<?xml version="1.0" encoding="UTF-8"?>
<svg width="114px" height="40px" viewBox="0 0 114 40" version="1.1" xmlns="http://www.w3.org/2000/svg" xmlns:xlink="http://www.w3.org/1999/xlink">
    <!-- Generator: Sketch 52.2 (67145) - http://www.bohemiancoding.com/sketch -->
    <title>AIMM_logo</title>
    <desc>Created with Sketch.</desc>
    <g id="Symbols" stroke="none" stroke-width="1" fill="none" fill-rule="evenodd">
        <g id="footer2-copy" transform="translate(-915.000000, -49.000000)">
            <g id="Group-3" transform="translate(151.000000, 40.000000)">
                <g id="AIMM_logo" transform="translate(766.000000, 9.000000)">
                    <path d="M5.62617139,35.5799163 C8.62712083,37.9432104 12.5320784,39.1213376 16.5934129,38.5430848 C24.5592086,37.4092065 30.1088552,29.9492424 28.9893944,21.8813587 C27.8699335,13.8129721 20.5053206,8.19185197 12.5395249,9.3257303 C4.57422567,10.4596086 -0.975917399,17.9190699 0.143543479,25.9874564 C0.692600565,29.9417 2.74138772,33.3086398 5.62617139,35.5799163" id="Fill-1" fill="#FFFFFE"></path>
                    <path d="M5.62617139,35.5799163 C8.62712083,37.9432104 12.5320784,39.1213376 16.5934129,38.5430848 C24.5592086,37.4092065 30.1088552,29.9492424 28.9893944,21.8813587 C27.8699335,13.8129721 20.5053206,8.19185197 12.5395249,9.3257303 C4.57422567,10.4596086 -0.975917399,17.9190699 0.143543479,25.9874564 C0.692600565,29.9417 2.74138772,33.3086398 5.62617139,35.5799163" id="Stroke-2" stroke="#CBCBCB" stroke-width="2.34705594"></path>
                    <path d="M18.4178766,0 C26.8271006,9.34051189 26.3242334,29.4116863 1.29479769,39.3442623 C20.3696236,27.193946 25.1940369,10.513639 18.4178766,0" id="Fill-3" fill="#999999"></path>
                    <path d="M3.23699422,28.9237718 C8.66793058,26.462313 12.1901466,19.5471443 13.1397612,23.6295026 C13.4729505,25.0632208 12.4059454,28.0385499 10.6985373,30.8196721 C20.6812297,20.1714164 22.4266024,8.21138639 17.1774965,0 C21.078859,7.34924853 17.9158081,14.0340788 14.844172,15.9671144 C8.6259697,19.8813608 8.14641682,24.8479372 3.23699422,28.9237718" id="Fill-4" fill="#999999"></path>
                    <path d="M15.3355094,10.0883921 C15.9231899,11.6670678 15.1853792,13.2738661 13.6875347,13.6775914 C12.190184,14.0817934 10.5002322,13.1294401 9.91304553,11.5507644 C9.32536502,9.97256538 10.0631757,8.36576713 11.5610202,7.96156514 C13.0583709,7.55783981 14.7483227,8.51019308 15.3355094,10.0883921" id="Fill-5" fill="#999999"></path>
                    <path d="M21.3641618,23.6065574 C19.8731567,26.7779611 17.5468869,29.8932908 14.2289605,32.7446263 C13.8060481,35.0109071 12.4266797,37.5471369 10.3583815,40 C17.6675754,35.391019 20.2875204,28.6705809 21.3641618,23.6065574" id="Fill-6" fill="#999999"></path>
                    <path d="M33.6647399,36.0655738 L38.3681146,36.0655738 L40.2854233,31.2464553 L49.152295,31.2464553 L51.0696037,36.0655738 L55.8923458,36.0655738 L46.9056114,14.4262295 L42.6519696,14.4262295 L33.6647399,36.0655738 Z M41.9327931,27.0723557 L44.7188591,20.1045274 L47.5049251,27.0723557 L41.9327931,27.0723557 Z M58.2014373,36.0655738 L62.8146673,36.0655738 L62.8146673,14.5799988 L58.2014373,14.5799988 L58.2014373,36.0655738 Z M66.542795,36.0655738 L71.0663756,36.0655738 L71.0663756,22.1304248 L76.9079511,31.2160059 L77.0273185,31.2160059 L82.9288254,22.0385692 L82.9288254,36.0655738 L87.5123374,36.0655738 L87.5123374,14.5799988 L82.5395191,14.5799988 L77.0273185,23.6650724 L71.5156132,14.5799988 L66.542795,14.5799988 L66.542795,36.0655738 Z M91.0304577,36.0655738 L95.5540382,36.0655738 L95.5540382,22.1304248 L101.395614,31.2160059 L101.515476,31.2160059 L107.416488,22.0385692 L107.416488,36.0655738 L112,36.0655738 L112,14.5799988 L107.027182,14.5799988 L101.515476,23.6650724 L96.0032759,14.5799988 L91.0304577,14.5799988 L91.0304577,36.0655738 Z" id="Fill-7" fill="#999999"></path>
                </g>
            </g>
        </g>
    </g>
</svg>