<?xml version="1.0" encoding="UTF-8"?>
<svg width="283px" height="28px" viewBox="0 0 283 28" version="1.1" xmlns="http://www.w3.org/2000/svg" xmlns:xlink="http://www.w3.org/1999/xlink">
    <!-- Generator: Sketch 52.2 (67145) - http://www.bohemiancoding.com/sketch -->
    <title>Group 4</title>
    <desc>Created with Sketch.</desc>
    <defs>
        <polygon id="path-1" points="0.0461413043 0.342054054 17.617519 0.342054054 17.617519 21.9731892 0.0461413043 21.9731892"></polygon>
    </defs>
    <g id="Symbols" stroke="none" stroke-width="1" fill="none" fill-rule="evenodd">
        <g id="footer2-copy" transform="translate(-151.000000, -55.000000)">
            <g id="Group-3" transform="translate(151.000000, 40.000000)">
                <g id="Group-4" transform="translate(0.000000, 15.000000)">
                    <g id="Center-for-Medication-Optimization_logo_pms_h">
                        <polygon id="Fill-1" fill="#999999" points="97.4481277 27.9545946 97.7565054 27.9545946 97.7565054 0.75372973 97.4481277 0.75372973"></polygon>
                        <path d="M9.16135598,8.22821622 C9.20288315,8.26832432 9.22749185,8.26227027 9.22749185,8.26227027 C12.2674348,8.14648649 14.0085,9.28464865 14.1569212,9.7492973 L15.3712065,9.72810811 L15.7487962,8.91837838 C15.7718668,8.85254054 15.7595625,8.75416216 15.7372609,8.72691892 C15.3712065,8.32810811 12.311269,7.46767568 8.61996467,7.46767568 C4.68180435,7.46767568 2.18402174,8.23351351 1.65724185,8.61643243 C1.65724185,8.61643243 1.53266033,8.69135135 1.52727717,8.80486486 C1.52573913,8.85708108 1.6026413,9.00389189 1.6026413,9.00389189 L1.70953533,9.23091892 C1.74260326,9.29902703 1.78951359,9.29372973 1.87026087,9.24756757 C1.87026087,9.24756757 1.94101087,9.22562162 1.9563913,9.17945946 C1.9702337,9.13405405 1.92486141,9.05308108 1.92486141,9.05308108 C1.84565217,8.89567568 1.95023913,8.87524324 1.95716033,8.87145946 L2.1824837,8.77156757 C2.28937772,8.7412973 2.30245109,8.7972973 2.33859511,8.8812973 C2.33859511,8.8812973 2.37935326,8.99708108 2.40934511,9.01448649 C2.4654837,9.04854054 2.64543478,8.94864865 3.18221196,8.82 C3.21835598,8.81318919 3.23835054,8.80864865 3.30986957,8.78140541 C3.360625,8.76097297 3.31525272,8.58313514 3.31525272,8.58313514 C3.29602717,8.49610811 3.25526902,8.40605405 3.45060054,8.37578378 L3.785125,8.30918919 C3.94123641,8.26832432 3.95584783,8.34854054 3.97584239,8.43783784 C3.97584239,8.43783784 3.98583967,8.57027027 4.02044565,8.62627027 C4.06427989,8.69589189 4.1457962,8.58540541 5.16936413,8.47718919 C5.16936413,8.47718919 5.31778533,8.47340541 5.34777717,8.4227027 C5.37853804,8.36972973 5.35316033,8.25167568 5.35316033,8.25167568 C5.34316304,8.12908108 5.29240761,8.03978378 5.52849728,8.02540541 L5.97683696,7.98378378 C6.31213043,7.93156757 6.25676087,8.04205405 6.2682962,8.16313514 C6.2682962,8.16313514 6.2790625,8.29556757 6.30520924,8.31902703 C6.32981793,8.34324324 6.43594293,8.34021622 6.43594293,8.34021622 C7.00963315,8.28194595 7.33185326,8.28497297 7.94014946,8.26 C7.94014946,8.26 8.02627989,8.25924324 8.05704076,8.22443243 C8.08857065,8.18962162 8.08011141,8.15178378 8.08011141,8.15178378 C8.08011141,8.08443243 8.0655,7.97621622 8.10933424,7.93081081 C8.1608587,7.87935135 8.23929891,7.90054054 8.31927717,7.90054054 L8.83221467,7.90054054 C8.91142391,7.90054054 9.07138043,7.86572973 9.11829076,7.92172973 C9.14674457,7.95654054 9.1375163,8.17221622 9.1375163,8.17221622 C9.1375163,8.17221622 9.1375163,8.20627027 9.16135598,8.22821622" id="Fill-3" fill="#999999"></path>
                        <g id="Group-7" transform="translate(0.000000, 3.027027)">
                            <mask id="mask-2" fill="white">
                                <use xlink:href="#path-1"></use>
                            </mask>
                            <g id="Clip-5"></g>
                            <path d="M8.64457337,0.342054054 C5.67307337,0.342054054 3.84433967,1.28118919 2.67388859,2.41102703 C2.67388859,2.41102703 2.65389402,2.4307027 2.64312772,2.46097297 C2.62159511,2.51772973 2.61544293,2.60475676 2.73541033,2.56313514 C5.2816413,1.512 8.06319293,2.16962162 8.949875,3.16021622 C8.98063587,3.20713514 8.95064402,3.21848649 8.9145,3.21848649 C8.02012772,3.22908108 7.2695625,3.17610811 5.61462772,3.40389189 C4.72025543,3.52875676 3.92354891,3.65589189 3.25219293,3.82843243 C2.14633967,4.1107027 1.36039946,4.46713514 0.922826087,4.75318919 C0.761331522,4.8387027 0.749027174,4.89924324 0.709038043,4.97189189 C0.661358696,5.11416216 0.66751087,5.11264865 0.63675,5.20875676 C0.582149457,5.39264865 0.553695652,5.50918919 0.542929348,5.56972973 C0.525241848,5.68021622 0.647516304,5.64313514 0.710576087,5.57881081 C0.845154891,5.44637838 1.2096712,5.1292973 1.74567935,4.88335135 C2.2924538,4.63286486 3.19605435,4.34832432 4.17732609,4.16972973 C5.48620109,3.93362162 7.07730707,3.78151351 8.53383424,3.77772973 C10.2210679,3.77243243 11.7352717,3.94572973 13.0003125,4.18789189 C14.2868859,4.43610811 15.3035326,4.77816216 15.9610462,5.09372973 C16.2701929,5.2412973 16.4439918,5.37827027 16.6508587,5.55005405 C16.8138913,5.71427027 16.8238886,5.57351351 16.8208125,5.53113514 C16.8208125,5.53113514 16.7915897,5.31091892 16.5170489,4.81448649 C15.6765082,3.29416216 13.4332717,0.342054054 8.64457337,0.342054054" id="Fill-4" fill="#999999" mask="url(#mask-2)"></path>
                            <path d="M0.00999728261,19.9019459 C0.00999728261,20.5807568 2.87767935,21.9731892 8.81452717,21.9731892 C14.575269,21.9731892 17.617519,20.5807568 17.617519,19.9019459 L17.5875272,18.8606486 C17.5875272,18.8803243 17.5836821,18.791027 17.5752228,18.8152432 C17.5652255,18.6268108 17.261462,18.5912432 16.3301766,18.5776216 L16.308644,17.9994595 C16.308644,18.0584865 16.1117745,18.1848649 15.990269,18.2537297 C15.2312446,18.6843243 12.3328016,19.3252973 8.70686413,19.3252973 C4.50954348,19.3252973 1.56957337,18.4694054 1.10585326,17.9994595 L1.09585598,18.8916757 C2.47855707,19.8625946 6.73432337,20.7336216 11.0331549,20.2833514 C11.1608125,20.2803243 11.2038777,20.2538378 11.3338424,20.2909189 C11.3684484,20.3022703 11.4868777,20.4044324 11.2530951,20.4876757 C8.76146467,21.2981622 2.6069837,21.1172973 0,19.1701622 L0.0123043478,19.9019459" id="Fill-6" fill="#999999" mask="url(#mask-2)"></path>
                        </g>
                        <path d="M12.2905054,9.47308108 L12.3427989,9.47308108 C12.3343397,9.47081081 12.3251114,9.47005405 12.3166522,9.47005405 C12.3066549,9.47005405 12.2974266,9.47081081 12.2905054,9.47308108" id="Fill-8" fill="#999999"></path>
                        <path d="M12.2266766,9.69178378 C12.2266766,9.69481081 12.2282147,9.69935135 12.2282147,9.70162162 L12.2282147,9.51924324 C12.2282147,9.52151351 12.2266766,9.5252973 12.2266766,9.52908108 L12.2266766,9.69178378" id="Fill-9" fill="#999999"></path>
                        <polyline id="Fill-10" fill="#999999" points="12.2282147 9.70162162 12.2282147 9.51924324 12.2282147 9.70162162"></polyline>
                        <path d="M10.6540272,9.40648649 C10.6555652,9.40648649 10.6571033,9.40421622 10.6617174,9.40421622 L10.647106,9.40421622 C10.649413,9.40421622 10.6517201,9.40648649 10.6540272,9.40648649" id="Fill-11" fill="#999999"></path>
                        <path d="M12.3304946,9.05459459 L10.7078587,9.05308108 C10.6286495,9.05308108 10.5940435,9.09243243 10.5917364,9.16886486 L10.5917364,9.34972973 C10.5909674,9.43297297 10.6286495,9.47005405 10.7155489,9.47081081 L11.2169511,9.47081081 C11.2630924,9.46778378 11.2753967,9.48972973 11.2777038,9.49654054 C11.2961603,9.54572973 11.2038777,9.58583784 11.1738859,9.60702703 L10.9247228,9.76745946 C10.8916549,9.78713514 10.858587,9.83254054 10.858587,9.91956757 L10.8478207,21.3647568 C10.8724293,21.5660541 11.1977255,21.5857297 11.5507065,21.5834595 C11.849087,21.5827027 12.2020679,21.5668108 12.238212,21.3700541 C12.238212,21.3700541 12.2289837,10.4772973 12.238981,9.53589189 C12.241288,9.49275676 12.2597446,9.48367568 12.2674348,9.48064865 C12.2782011,9.47308108 12.3297255,9.46778378 12.3297255,9.46778378 C12.4027826,9.46551351 12.4427717,9.42918919 12.4427717,9.3572973 L12.4427717,9.16432432 C12.4404647,9.09394595 12.3943234,9.05762162 12.3304946,9.05459459" id="Fill-13" fill="#999999"></path>
                        <path d="M9.6642962,17.0164324 L9.70197826,16.94 L9.81194837,16.94 L9.81041033,16.8688649 L7.55717663,16.8688649 L7.55717663,16.94 L7.67714402,16.94 L7.70944293,17.0103784 L7.84479076,17.2881081 C7.84479076,17.2881081 7.86863043,17.3138378 7.90016033,17.3267027 C7.92707609,17.3388108 7.98705978,17.3433514 8.00859239,17.3433514 C8.60073913,17.3494054 8.47154348,17.3433514 8.56459511,17.3433514 C8.60766033,17.3448649 8.66841304,17.3448649 8.69840489,17.3796757 C8.71763043,17.4046486 8.73454891,17.4727568 8.65149457,17.5257297 C8.45847011,17.6528649 8.13548098,17.860973 7.98552174,17.9578378 C7.96706522,17.9676757 7.91554076,18.000973 7.90016033,18.0425946 C7.87939674,18.0872432 7.88401087,18.1220541 7.88401087,18.1220541 L7.88401087,20.2727568 L7.69329348,20.3461622 C7.69329348,20.3461622 7.63484783,20.7752432 7.7009837,20.8191351 C7.76404348,20.863027 9.60123641,20.863027 9.66506522,20.8221622 C9.72735598,20.7812973 9.67275543,20.3385946 9.67275543,20.3385946 L9.47896196,20.2727568 L9.47896196,17.384973 L9.6642962,17.0164324" id="Fill-14" fill="#999999"></path>
                        <path d="M15.4781005,9.67967568 L13.8546957,9.67740541 C13.7754864,9.67437838 13.7408804,9.716 13.7378043,9.7947027 L13.7378043,9.97178378 C13.7378043,10.0565405 13.7747174,10.0928649 13.8600788,10.0951351 L14.3645571,10.0951351 C14.4099293,10.0921081 14.4222337,10.1125405 14.4237717,10.1201081 C14.4437663,10.1700541 14.3507147,10.2116757 14.3184158,10.2313514 L14.0723288,10.3917838 C14.0369538,10.4107027 14.0046549,10.4553514 14.0054239,10.5438919 L13.9961957,20.863027 C14.0184973,21.0628108 14.3437935,21.080973 14.6983125,21.0802162 C14.997462,21.0802162 15.3473668,21.0628108 15.3850489,20.8683243 C15.3850489,20.8683243 15.3750516,11.1016216 15.386587,10.160973 C15.386587,10.1170811 15.4073505,10.1064865 15.4135027,10.1027027 C15.425038,10.0966486 15.4750245,10.0921081 15.4750245,10.0921081 C15.5496196,10.0898378 15.5903777,10.052 15.5903777,9.98086486 L15.5903777,9.78713514 C15.5865326,9.71751351 15.5411603,9.68118919 15.4781005,9.67967568" id="Fill-15" fill="#999999"></path>
                        <path d="M6.60666576,9.05459459 L4.98402989,9.05308108 C4.90482065,9.05308108 4.86790761,9.09394595 4.86790761,9.17037838 L4.86790761,9.34972973 C4.86790761,9.43297297 4.90328261,9.47081081 4.98941304,9.47081081 L5.49312228,9.47081081 C5.53926359,9.46778378 5.55156793,9.49048649 5.553875,9.49654054 C5.57310054,9.54572973 5.48004891,9.58810811 5.44851902,9.60702703 L5.20243207,9.76745946 C5.16782609,9.78713514 5.13398913,9.83405405 5.13552717,9.92032432 L5.12476087,21.3677838 C5.14860054,21.5668108 5.47312772,21.5857297 5.82764674,21.5834595 C6.12525815,21.5834595 6.47747011,21.5668108 6.51438315,21.3715676 C6.51438315,21.3715676 6.50592391,10.4772973 6.51669022,9.53816216 C6.51669022,9.49427027 6.53591576,9.48367568 6.54283696,9.48064865 C6.55437228,9.47308108 6.60589674,9.46778378 6.60589674,9.46778378 C6.67818478,9.46702703 6.71894293,9.42918919 6.71894293,9.3572973 L6.71894293,9.16583784 C6.71586685,9.09394595 6.66972554,9.05762162 6.60666576,9.05459459" id="Fill-16" fill="#999999"></path>
                        <path d="M3.44829348,9.70843243 L1.82411957,9.70616216 C1.74567935,9.70616216 1.70953533,9.74627027 1.7087663,9.82421622 L1.7087663,10.0028108 C1.7087663,10.0860541 1.7441413,10.1223784 1.83104076,10.1223784 L2.33475,10.1238919 C2.38012228,10.1208649 2.39165761,10.1420541 2.3947337,10.1488649 C2.41395924,10.1988108 2.32167663,10.2411892 2.28937772,10.2616216 L2.04405978,10.4197838 C2.00714674,10.4402162 1.97484783,10.4863784 1.97715489,10.5734054 L1.96638859,20.8917838 C1.98869022,21.0923243 2.31475543,21.1127568 2.66850543,21.1112432 C2.96765489,21.1112432 3.3183288,21.0923243 3.35524185,20.8978378 C3.35524185,20.8978378 3.34678261,11.1303784 3.35754891,10.1904865 C3.35754891,10.1473514 3.3783125,10.136 3.38446467,10.132973 C3.39523098,10.1238919 3.44521739,10.1208649 3.44521739,10.1208649 C3.5198125,10.1201081 3.56057065,10.083027 3.56057065,10.0103784 L3.56057065,9.81816216 C3.55672554,9.74854054 3.51135326,9.70994595 3.44829348,9.70843243" id="Fill-17" fill="#999999"></path>
                        <path d="M88.4621087,9.64335135 C87.3800951,6.63372973 84.5531712,4.66010811 80.9679918,4.66010811 C75.4802527,4.66010811 72.060413,8.57405405 72.060413,14.0075676 C72.060413,19.8618378 76.3361739,24.164 81.3294321,24.164 C83.9271875,24.164 87.1186277,23.2907027 89.3503288,19.3782703 L89.9755435,19.3782703 C89.5471984,20.8312432 88.6605163,22.8404324 87.872269,24.0981622 C85.7666875,23.8098378 84.3232337,24.9767568 80.443519,24.9767568 C73.7684103,24.9767568 68.9720217,20.6405405 68.9720217,14.6561081 C68.9720217,8.37956757 73.9014511,3.85340541 80.7718913,3.85340541 C84.9138424,3.85340541 86.6856685,5.14745946 87.7076984,5.14745946 C88.0691386,5.14745946 88.2314022,5.04983784 88.2990761,4.95297297 L88.7889429,4.95297297 L89.0880924,9.64335135 L88.4621087,9.64335135" id="Fill-18" fill="#999999"></path>
                        <path d="M61.1526087,4.33848649 L61.1526087,4.95297297 C63.7780489,5.0172973 64.3701957,5.37372973 64.3701957,7.34508108 L64.3701957,20.2175135 L48.889788,4.33848649 L36.5316087,4.33848649 L36.5316087,4.95297297 C39.2600978,5.08237838 39.7538098,5.63254054 39.7538098,8.73524324 L39.7538098,16.2717838 C39.7538098,21.7696216 35.9725299,23.2907027 32.261231,23.2907027 C27.3625625,23.2907027 24.7663451,20.6708108 24.7663451,16.3028108 L24.7663451,7.31481081 C24.7663451,5.43654054 25.5568995,4.95297297 27.3625625,4.95297297 L27.6609429,4.95297297 L27.6609429,4.33848649 L19.2117011,4.33848649 L19.2117011,4.95297297 C21.4472473,4.98551351 22.039394,5.31016216 22.039394,7.37837838 L22.039394,16.8242162 C22.039394,21.4472432 25.258519,24.9767568 31.5375815,24.9767568 C38.6702582,24.9767568 41.2657065,20.6708108 41.2657065,16.6592432 L41.2657065,7.9292973 C41.2657065,5.53189189 42.4346196,4.96205405 43.9580516,4.96205405 C44.8724185,4.96205405 45.7552554,5.2412973 46.4919783,5.74983784 L46.4919783,21.6727568 C46.4919783,23.1597838 45.8336957,23.8401081 43.795788,23.8401081 L43.6650543,23.8401081 L43.6650543,24.4553514 L51.29375,24.4553514 L51.29375,23.8401081 C48.499125,23.8401081 47.9715761,23.3565405 47.9715761,21.0272432 L47.9715761,7.15135135 L64.9938723,24.6838919 L65.8513315,24.6838919 L65.8513315,6.63372973 C65.8513315,5.37372973 66.3765734,4.95297297 68.8443641,4.95297297 L68.8443641,4.33848649 L61.1526087,4.33848649" id="Fill-19" fill="#999999"></path>
                        <polyline id="Fill-20" fill="#999999" points="105.838924 9.28010811 105.838924 4.31654054 108.558185 4.31654054 108.558185 4.93481081 106.52566 4.93481081 106.52566 6.37416216 108.105231 6.37416216 108.207511 6.99243243 106.52566 6.99243243 106.52566 8.66183784 108.631242 8.66183784 108.631242 9.28010811 105.838924 9.28010811"></polyline>
                        <path d="M111.009826,9.33762162 C110.462283,9.33762162 109.971647,9.20821622 109.598671,9.01372973 L109.700951,8.32356757 C110.045473,8.54605405 110.519959,8.74735135 111.024438,8.74735135 C111.551217,8.74735135 111.923424,8.47416216 111.923424,7.99210811 C111.923424,7.53956757 111.718864,7.35189189 110.959071,7.01362162 C110.00856,6.58983784 109.650196,6.28032432 109.650196,5.56821622 C109.650196,4.76908108 110.270796,4.25902703 111.185163,4.25902703 C111.67503,4.25902703 112.040315,4.3732973 112.333313,4.53902703 L112.224111,5.21556757 C111.945726,5.0067027 111.56506,4.84854054 111.16363,4.84854054 C110.586095,4.84854054 110.330011,5.15048649 110.330011,5.51751351 C110.330011,5.89891892 110.519959,6.07827027 111.288212,6.42410811 C112.267177,6.86302703 112.604008,7.19372973 112.604008,7.94216216 C112.604008,8.79805405 111.952647,9.33762162 111.009826,9.33762162" id="Fill-21" fill="#999999"></path>
                        <polyline id="Fill-22" fill="#999999" points="117.034342 9.28010811 117.034342 6.99243243 114.483497 6.99243243 114.483497 9.28010811 113.795992 9.28010811 113.795992 4.31654054 114.483497 4.31654054 114.483497 6.37416216 117.034342 6.37416216 117.034342 4.31654054 117.721848 4.31654054 117.721848 9.28010811 117.034342 9.28010811"></polyline>
                        <polyline id="Fill-23" fill="#999999" points="119.204522 9.28010811 119.204522 4.31654054 121.923783 4.31654054 121.923783 4.93481081 119.891258 4.93481081 119.891258 6.37416216 121.470829 6.37416216 121.573109 6.99243243 119.891258 6.99243243 119.891258 8.66183784 121.99684 8.66183784 121.99684 9.28010811 119.204522 9.28010811"></polyline>
                        <polyline id="Fill-24" fill="#999999" points="123.095772 9.28010811 123.095772 4.31654054 123.783277 4.31654054 123.783277 8.64745946 125.603552 8.64745946 125.698141 9.28010811 123.095772 9.28010811"></polyline>
                        <polyline id="Fill-25" fill="#999999" points="131.326611 9.28010811 131.326611 5.35935135 129.609386 9.3012973 129.060304 9.3012973 127.343079 5.35935135 127.343079 9.28010811 126.736321 9.28010811 126.736321 4.31654054 127.583783 4.31654054 129.353302 8.38789189 131.129742 4.31654054 131.963361 4.31654054 131.963361 9.28010811 131.326611 9.28010811"></polyline>
                        <path d="M134.50344,7.19372973 L136.111465,7.19372973 L135.307837,5.08616216 L134.50344,7.19372973 Z M134.978696,4.29459459 L135.666201,4.29459459 L137.610288,9.18627027 L136.930473,9.33005405 L136.338326,7.79081081 L134.284269,7.79081081 L133.721345,9.28010811 L133.004617,9.28010811 L134.978696,4.29459459 Z" id="Fill-26" fill="#999999"></path>
                        <polyline id="Fill-27" fill="#999999" points="142.059079 9.28010811 139.289063 5.41686486 139.289063 9.28010811 138.653082 9.28010811 138.653082 4.31654054 139.26753 4.31654054 141.942188 8.03524324 141.942188 4.31654054 142.578168 4.31654054 142.578168 9.28010811 142.059079 9.28010811"></polyline>
                        <path d="M146.880076,9.33762162 C146.331764,9.33762162 145.841128,9.20821622 145.468921,9.01372973 L145.571201,8.32356757 C145.914954,8.54605405 146.38944,8.74735135 146.894688,8.74735135 C147.420698,8.74735135 147.792905,8.47416216 147.792905,7.99210811 C147.792905,7.53956757 147.589114,7.35189189 146.829321,7.01362162 C145.878041,6.58983784 145.519677,6.28032432 145.519677,5.56821622 C145.519677,4.76908108 146.141046,4.25902703 147.055413,4.25902703 C147.544511,4.25902703 147.910565,4.3732973 148.203563,4.53902703 L148.093592,5.21556757 C147.815976,5.0067027 147.43531,4.84854054 147.033111,4.84854054 C146.455576,4.84854054 146.199492,5.15048649 146.199492,5.51751351 C146.199492,5.89891892 146.38944,6.07827027 147.157693,6.42410811 C148.137427,6.86302703 148.473489,7.19372973 148.473489,7.94216216 C148.473489,8.79805405 147.822897,9.33762162 146.880076,9.33762162" id="Fill-28" fill="#999999"></path>
                        <path d="M151.765671,9.37318919 C150.347595,9.37318919 149.433228,8.33794595 149.433228,6.80551351 C149.433228,5.26551351 150.362207,4.2227027 151.780283,4.2227027 C152.379351,4.2227027 152.825383,4.3732973 153.21297,4.63286486 L153.111459,5.32302703 C152.745405,5.04983784 152.313984,4.84172973 151.772592,4.84172973 C150.749793,4.84172973 150.143035,5.60378378 150.143035,6.79794595 C150.143035,7.99210811 150.756715,8.74735135 151.772592,8.74735135 C152.313984,8.74735135 152.789239,8.53924324 153.191437,8.25167568 L153.293717,8.89189189 C152.90613,9.17189189 152.343207,9.37318919 151.765671,9.37318919" id="Fill-29" fill="#999999"></path>
                        <polyline id="Fill-30" fill="#999999" points="157.699443 9.28010811 157.699443 6.99243243 155.148598 6.99243243 155.148598 9.28010811 154.461092 9.28010811 154.461092 4.31654054 155.148598 4.31654054 155.148598 6.37416216 157.699443 6.37416216 157.699443 4.31654054 158.386948 4.31654054 158.386948 9.28010811 157.699443 9.28010811"></polyline>
                        <path d="M161.973666,4.84172973 C160.97163,4.84172973 160.357951,5.60378378 160.357951,6.79794595 C160.357951,7.99210811 160.979321,8.75491892 161.973666,8.75491892 C162.975701,8.75491892 163.58938,7.99210811 163.58938,6.79794595 C163.58938,5.60378378 162.968011,4.84172973 161.973666,4.84172973 Z M161.965976,9.37318919 C160.547899,9.37318919 159.648144,8.33794595 159.648144,6.80551351 C159.648144,5.26551351 160.562511,4.2227027 161.981356,4.2227027 C163.406353,4.2227027 164.297649,5.2587027 164.297649,6.79113514 C164.297649,8.32356757 163.391742,9.37318919 161.965976,9.37318919 Z" id="Fill-31" fill="#999999"></path>
                        <path d="M167.655198,4.84172973 C166.653163,4.84172973 166.039484,5.60378378 166.039484,6.79794595 C166.039484,7.99210811 166.660853,8.75491892 167.655198,8.75491892 C168.656465,8.75491892 169.270144,7.99210811 169.270144,6.79794595 C169.270144,5.60378378 168.649543,4.84172973 167.655198,4.84172973 Z M167.647508,9.37318919 C166.229432,9.37318919 165.329677,8.33794595 165.329677,6.80551351 C165.329677,5.26551351 166.244043,4.2227027 167.66212,4.2227027 C169.087886,4.2227027 169.979182,5.2587027 169.979182,6.79113514 C169.979182,8.32356757 169.072505,9.37318919 167.647508,9.37318919 Z" id="Fill-32" fill="#999999"></path>
                        <polyline id="Fill-33" fill="#999999" points="171.241147 9.28010811 171.241147 4.31654054 171.927883 4.31654054 171.927883 8.64745946 173.748158 8.64745946 173.842747 9.28010811 171.241147 9.28010811"></polyline>
                        <path d="M178.679894,4.84172973 C177.677859,4.84172973 177.064179,5.60378378 177.064179,6.79794595 C177.064179,7.99210811 177.685549,8.75491892 178.679894,8.75491892 C179.68116,8.75491892 180.29484,7.99210811 180.29484,6.79794595 C180.29484,5.60378378 179.674239,4.84172973 178.679894,4.84172973 Z M178.672204,9.37318919 C177.254128,9.37318919 176.354372,8.33794595 176.354372,6.80551351 C176.354372,5.26551351 177.268739,4.2227027 178.686815,4.2227027 C180.112582,4.2227027 181.003878,5.2587027 181.003878,6.79113514 C181.003878,8.32356757 180.097201,9.37318919 178.672204,9.37318919 Z" id="Fill-34" fill="#999999"></path>
                        <polyline id="Fill-35" fill="#999999" points="182.953348 4.93481081 182.953348 6.45286486 184.474473 6.45286486 184.576753 7.07113514 182.953348 7.07113514 182.953348 9.28010811 182.266611 9.28010811 182.266611 4.31654054 184.891283 4.31654054 184.891283 4.93481081 182.953348 4.93481081"></polyline>
                        <path d="M188.959408,4.91286486 L188.344959,4.91286486 L188.344959,6.66854054 L188.914804,6.66854054 C189.60231,6.66854054 190.011429,6.38854054 190.011429,5.76951351 C190.011429,5.20118919 189.646144,4.91286486 188.959408,4.91286486 Z M188.87866,7.26562162 L188.344959,7.26562162 L188.344959,9.28010811 L187.657454,9.28010811 L187.657454,4.31654054 L188.995552,4.31654054 C190.062954,4.31654054 190.705856,4.82735135 190.705856,5.74756757 C190.705856,6.76237838 189.975285,7.26562162 188.87866,7.26562162 Z" id="Fill-36" fill="#999999"></path>
                        <polyline id="Fill-37" fill="#999999" points="195.006995 9.28010811 195.006995 6.99243243 192.456149 6.99243243 192.456149 9.28010811 191.768644 9.28010811 191.768644 4.31654054 192.456149 4.31654054 192.456149 6.37416216 195.006995 6.37416216 195.006995 4.31654054 195.6945 4.31654054 195.6945 9.28010811 195.006995 9.28010811"></polyline>
                        <path d="M198.233041,7.19372973 L199.841065,7.19372973 L199.037437,5.08616216 L198.233041,7.19372973 Z M198.708296,4.29459459 L199.395802,4.29459459 L201.339889,9.18627027 L200.660842,9.33005405 L200.067927,7.79081081 L198.01387,7.79081081 L197.450946,9.28010811 L196.734217,9.28010811 L198.708296,4.29459459 Z" id="Fill-38" fill="#999999"></path>
                        <path d="M203.725394,4.91286486 L203.067111,4.91286486 L203.067111,6.61859459 L203.652337,6.61859459 C204.317541,6.61859459 204.741272,6.32345946 204.741272,5.76194595 C204.741272,5.22313514 204.398288,4.91286486 203.725394,4.91286486 Z M205.099636,9.33005405 L203.578511,7.18691892 L203.067111,7.18691892 L203.067111,9.28010811 L202.380375,9.28010811 L202.380375,4.31654054 L203.754617,4.31654054 C204.785875,4.31654054 205.428777,4.81978378 205.428777,5.72637838 C205.428777,6.48162162 204.982745,6.92735135 204.324462,7.10064865 L205.823285,9.17945946 L205.099636,9.33005405 Z" id="Fill-39" fill="#999999"></path>
                        <polyline id="Fill-40" fill="#999999" points="211.401 9.28010811 211.401 5.35935135 209.683774 9.3012973 209.134693 9.3012973 207.417467 5.35935135 207.417467 9.28010811 206.810709 9.28010811 206.810709 4.31654054 207.658171 4.31654054 209.42769 8.38789189 211.20413 4.31654054 212.03775 4.31654054 212.03775 9.28010811 211.401 9.28010811"></polyline>
                        <path d="M214.57706,7.19372973 L216.185084,7.19372973 L215.381457,5.08616216 L214.57706,7.19372973 Z M215.052315,4.29459459 L215.739821,4.29459459 L217.683908,9.18627027 L217.004092,9.33005405 L216.411946,7.79081081 L214.357889,7.79081081 L213.794965,9.28010811 L213.078236,9.28010811 L215.052315,4.29459459 Z" id="Fill-41" fill="#999999"></path>
                        <path d="M220.64541,9.37318919 C219.226565,9.37318919 218.312967,8.33794595 218.312967,6.80551351 C218.312967,5.26551351 219.241946,4.2227027 220.659253,4.2227027 C221.25909,4.2227027 221.705122,4.3732973 222.092709,4.63286486 L221.990429,5.32302703 C221.624375,5.04983784 221.193723,4.84172973 220.652332,4.84172973 C219.629533,4.84172973 219.022774,5.60378378 219.022774,6.79794595 C219.022774,7.99210811 219.635685,8.74735135 220.652332,8.74735135 C221.193723,8.74735135 221.668209,8.53924324 222.070408,8.25167568 L222.172687,8.89189189 C221.785101,9.17189189 221.222946,9.37318919 220.64541,9.37318919" id="Fill-42" fill="#999999"></path>
                        <polyline id="Fill-43" fill="#999999" points="225.476405 7.30875676 225.476405 9.28010811 224.789668 9.28010811 224.789668 7.30875676 223.004769 4.40962162 223.706886 4.26583784 225.140342 6.67535135 226.528427 4.31654054 227.311291 4.31654054 225.476405 7.30875676"></polyline>
                        <path d="M109.690954,24.5681081 C107.378505,24.5681081 105.887372,22.8782703 105.887372,20.3794595 C105.887372,17.8685405 107.401576,16.1673514 109.714793,16.1673514 C110.69222,16.1673514 111.419715,16.4140541 112.051082,16.8363243 L111.884204,17.9623784 C111.288212,17.5166486 110.585326,17.1768649 109.702489,17.1768649 C108.033712,17.1768649 107.043981,18.4202162 107.043981,20.3673514 C107.043981,22.3152432 108.045247,23.5472432 109.702489,23.5472432 C110.585326,23.5472432 111.359731,23.2067027 112.015707,22.7375135 L112.182584,23.7818378 C111.551217,24.2396757 110.632236,24.5681081 109.690954,24.5681081" id="Fill-44" fill="#999999"></path>
                        <path d="M114.338152,20.9424865 L117.079715,20.9424865 C116.948981,20.0389189 116.543707,19.5228108 115.720084,19.5228108 C115.064878,19.5228108 114.504261,19.992 114.338152,20.9424865 Z M115.863891,24.5325405 C114.385062,24.5325405 113.229223,23.6524324 113.229223,21.5993514 C113.229223,19.8043243 114.302008,18.7017297 115.732389,18.7017297 C117.38963,18.7017297 118.153269,19.9571892 118.153269,21.5055135 L118.153269,21.7287568 L114.290473,21.7287568 C114.325848,23.0303784 114.957215,23.6410811 115.946946,23.6410811 C116.770568,23.6410811 117.365791,23.324 117.986391,22.8427027 L118.140965,23.7818378 C117.533437,24.251027 116.805943,24.5325405 115.863891,24.5325405 Z" id="Fill-45" fill="#999999"></path>
                        <path d="M123.146527,24.4152432 L123.146527,20.6019459 C123.146527,20.0275676 122.895057,19.6401081 122.275995,19.6401081 C121.715378,19.6401081 121.143226,20.0041081 120.630288,20.5436757 L120.630288,24.4152432 L119.569038,24.4152432 L119.569038,18.819027 L120.415731,18.819027 L120.547234,19.6287568 C121.083242,19.1474595 121.750753,18.7017297 122.562071,18.7017297 C123.634856,18.7017297 124.207777,19.3351351 124.207777,20.3446486 L124.207777,24.4152432 L123.146527,24.4152432" id="Fill-46" fill="#999999"></path>
                        <path d="M127.784497,24.5090811 C126.782462,24.5090811 126.127255,24.1571892 126.127255,23.0303784 L126.127255,19.6991351 L125.268258,19.6991351 L125.268258,18.819027 L126.127255,18.819027 L126.127255,16.9536216 L127.163897,16.8007568 L127.163897,18.819027 L128.392793,18.819027 L128.535062,19.6991351 L127.163897,19.6991351 L127.163897,22.8427027 C127.163897,23.3005405 127.354614,23.5820541 127.951375,23.5820541 C128.142092,23.5820541 128.30897,23.5707027 128.439704,23.5472432 L128.583511,24.4387027 C128.405098,24.4742703 128.153628,24.5090811 127.784497,24.5090811" id="Fill-47" fill="#999999"></path>
                        <path d="M130.485302,20.9424865 L133.226864,20.9424865 C133.09613,20.0389189 132.690856,19.5228108 131.868003,19.5228108 C131.212027,19.5228108 130.65141,19.992 130.485302,20.9424865 Z M132.011041,24.5325405 C130.532981,24.5325405 129.376372,23.6524324 129.376372,21.5993514 C129.376372,19.8043243 130.449158,18.7017297 131.879538,18.7017297 C133.53678,18.7017297 134.300418,19.9571892 134.300418,21.5055135 L134.300418,21.7287568 L130.436853,21.7287568 C130.472997,23.0303784 131.105133,23.6410811 132.094095,23.6410811 C132.916948,23.6410811 133.51294,23.324 134.133541,22.8427027 L134.288114,23.7818378 C133.679818,24.251027 132.953092,24.5325405 132.011041,24.5325405 Z" id="Fill-48" fill="#999999"></path>
                        <path d="M136.777437,21.1067027 L136.777437,24.4152432 L135.716187,24.4152432 L135.716187,18.819027 L136.56288,18.819027 L136.742062,19.9571892 C137.147337,19.3237838 137.802543,18.7486486 138.73306,18.7017297 L138.899937,19.6991351 C137.957886,19.7460541 137.158872,20.3673514 136.777437,21.1067027" id="Fill-49" fill="#999999"></path>
                        <path d="M144.87216,16.9415135 C144.383063,16.9415135 144.084682,17.1412973 144.084682,17.6574054 L144.084682,18.819027 L145.228986,18.819027 L145.360489,19.6991351 L144.084682,19.6991351 L144.084682,24.4152432 L143.048041,24.4152432 L143.048041,19.6991351 L142.189043,19.6991351 L142.189043,18.819027 L143.048041,18.819027 L143.048041,17.5522162 C143.048041,16.4375135 143.798606,16.0152432 144.812177,16.0152432 C144.979054,16.0152432 145.122092,16.0265946 145.26513,16.0387027 L145.420473,16.9884324 C145.300505,16.9657297 145.085948,16.9415135 144.87216,16.9415135" id="Fill-50" fill="#999999"></path>
                        <path d="M148.675742,19.5697297 C147.650636,19.5697297 147.137698,20.4498378 147.137698,21.6228108 C147.137698,22.7730811 147.674476,23.6645405 148.675742,23.6645405 C149.724687,23.6645405 150.249929,22.7965405 150.249929,21.6228108 C150.249929,20.4732973 149.701617,19.5697297 148.675742,19.5697297 Z M148.675742,24.5325405 C147.161538,24.5325405 146.064913,23.4647568 146.064913,21.6228108 C146.064913,19.7808649 147.161538,18.7017297 148.675742,18.7017297 C150.201481,18.7017297 151.321946,19.7808649 151.321946,21.6228108 C151.321946,23.4647568 150.201481,24.5325405 148.675742,24.5325405 Z" id="Fill-51" fill="#999999"></path>
                        <path d="M153.765897,21.1067027 L153.765897,24.4152432 L152.704647,24.4152432 L152.704647,18.819027 L153.55134,18.819027 L153.729753,19.9571892 C154.135796,19.3237838 154.791003,18.7486486 155.721519,18.7017297 L155.888397,19.6991351 C154.946345,19.7460541 154.147332,20.3673514 153.765897,21.1067027" id="Fill-52" fill="#999999"></path>
                        <polyline id="Fill-53" fill="#999999" points="167.356049 24.4152432 167.356049 18.0214054 164.554503 24.4500541 163.66013 24.4500541 160.858584 18.0214054 160.858584 24.4152432 159.869622 24.4152432 159.869622 16.3202162 161.251554 16.3202162 164.136924 22.9607568 167.034598 16.3202162 168.393459 16.3202162 168.393459 24.4152432 167.356049 24.4152432"></polyline>
                        <path d="M171.042739,20.9424865 L173.784302,20.9424865 C173.653568,20.0389189 173.248293,19.5228108 172.42544,19.5228108 C171.769465,19.5228108 171.209617,19.992 171.042739,20.9424865 Z M172.568478,24.5325405 C171.089649,24.5325405 169.93381,23.6524324 169.93381,21.5993514 C169.93381,19.8043243 171.006595,18.7017297 172.436976,18.7017297 C174.094986,18.7017297 174.857856,19.9571892 174.857856,21.5055135 L174.857856,21.7287568 L170.99506,21.7287568 C171.030435,23.0303784 171.662571,23.6410811 172.652302,23.6410811 C173.475155,23.6410811 174.070378,23.324 174.690978,22.8427027 L174.845552,23.7818378 C174.238024,24.251027 173.51053,24.5325405 172.568478,24.5325405 Z" id="Fill-54" fill="#999999"></path>
                        <path d="M179.958777,19.9450811 C179.51659,19.7225946 179.171299,19.6287568 178.563003,19.6287568 C177.669399,19.6287568 177.024959,20.3446486 177.024959,21.7287568 C177.024959,22.9607568 177.586345,23.6055135 178.349215,23.6055135 C179.004421,23.6055135 179.505054,23.2180541 179.958777,22.6202162 L179.958777,19.9450811 Z M180.172565,24.4152432 L180.041832,23.6055135 C179.611948,24.1102703 179.028261,24.5325405 178.193872,24.5325405 C176.965745,24.5325405 175.952943,23.6524324 175.952943,21.7756757 C175.952943,19.7339459 177.144158,18.7486486 178.527628,18.7486486 C179.088245,18.7486486 179.600413,18.8545946 179.958777,18.9945946 L179.958777,16.1090811 L181.020027,15.9448649 L181.020027,24.4152432 L180.172565,24.4152432 Z" id="Fill-55" fill="#999999"></path>
                        <path d="M182.751095,24.4152432 L183.811576,24.4152432 L183.811576,18.819027 L182.751095,18.819027 L182.751095,24.4152432 Z M183.287872,17.692973 C182.917973,17.692973 182.608057,17.3993514 182.608057,17.0353514 C182.608057,16.6721081 182.917973,16.3671351 183.287872,16.3671351 C183.657003,16.3671351 183.955383,16.6721081 183.955383,17.0353514 C183.955383,17.3993514 183.657003,17.692973 183.287872,17.692973 Z" id="Fill-56" fill="#999999"></path>
                        <path d="M187.839712,24.5325405 C186.313204,24.5325405 185.192739,23.4882162 185.192739,21.6228108 C185.192739,19.7225946 186.384723,18.7017297 187.910462,18.7017297 C188.734084,18.7017297 189.341611,18.9484324 189.723046,19.2178378 L189.568473,20.2387027 C189.079375,19.8512432 188.554133,19.6166486 187.898927,19.6166486 C186.920731,19.6166486 186.265524,20.3204324 186.265524,21.6114595 C186.265524,22.9721081 186.980715,23.6176216 187.935071,23.6176216 C188.507223,23.6176216 189.067071,23.4647568 189.627687,22.9955676 L189.782261,23.9574054 C189.257788,24.3448649 188.649492,24.5325405 187.839712,24.5325405" id="Fill-57" fill="#999999"></path>
                        <path d="M194.355633,21.5758919 C192.257742,21.7756757 191.817092,22.3387027 191.817092,22.9138378 C191.817092,23.3709189 192.127008,23.6645405 192.663016,23.6645405 C193.283617,23.6645405 193.87884,23.3595676 194.355633,22.8782703 L194.355633,21.5758919 Z M194.558655,24.4152432 L194.439457,23.6645405 C193.986503,24.1216216 193.366671,24.5325405 192.436155,24.5325405 C191.411049,24.5325405 190.767378,23.9225946 190.767378,22.9721081 C190.767378,21.5758919 191.983201,21.0242162 194.355633,20.7782703 L194.355633,20.5436757 C194.355633,19.8398919 193.927288,19.5931892 193.271312,19.5931892 C192.579962,19.5931892 191.923986,19.8043243 191.304155,20.0744865 L191.161117,19.1709189 C191.840932,18.9007568 192.484603,18.7017297 193.366671,18.7017297 C194.749372,18.7017297 195.416883,19.2534054 195.416883,20.4967568 L195.416883,24.4152432 L194.558655,24.4152432 Z" id="Fill-58" fill="#999999"></path>
                        <path d="M198.982837,24.5090811 C197.981571,24.5090811 197.325595,24.1571892 197.325595,23.0303784 L197.325595,19.6991351 L196.466598,19.6991351 L196.466598,18.819027 L197.325595,18.819027 L197.325595,16.9536216 L198.363005,16.8007568 L198.363005,18.819027 L199.591133,18.819027 L199.733402,19.6991351 L198.363005,19.6991351 L198.363005,22.8427027 C198.363005,23.3005405 198.553723,23.5820541 199.149715,23.5820541 C199.340432,23.5820541 199.508079,23.5707027 199.638043,23.5472432 L199.781851,24.4387027 C199.602668,24.4742703 199.351967,24.5090811 198.982837,24.5090811" id="Fill-59" fill="#999999"></path>
                        <path d="M201.016899,24.4152432 L202.078149,24.4152432 L202.078149,18.819027 L201.016899,18.819027 L201.016899,24.4152432 Z M201.554446,17.692973 C201.184546,17.692973 200.87463,17.3993514 200.87463,17.0353514 C200.87463,16.6721081 201.184546,16.3671351 201.554446,16.3671351 C201.923576,16.3671351 202.221957,16.6721081 202.221957,17.0353514 C202.221957,17.3993514 201.923576,17.692973 201.554446,17.692973 Z" id="Fill-60" fill="#999999"></path>
                        <path d="M206.069372,19.5697297 C205.044266,19.5697297 204.531329,20.4498378 204.531329,21.6228108 C204.531329,22.7730811 205.068106,23.6645405 206.069372,23.6645405 C207.118318,23.6645405 207.64356,22.7965405 207.64356,21.6228108 C207.64356,20.4732973 207.094478,19.5697297 206.069372,19.5697297 Z M206.069372,24.5325405 C204.555168,24.5325405 203.458543,23.4647568 203.458543,21.6228108 C203.458543,19.7808649 204.555168,18.7017297 206.069372,18.7017297 C207.595111,18.7017297 208.716345,19.7808649 208.716345,21.6228108 C208.716345,23.4647568 207.595111,24.5325405 206.069372,24.5325405 Z" id="Fill-61" fill="#999999"></path>
                        <path d="M213.674997,24.4152432 L213.674997,20.6019459 C213.674997,20.0275676 213.424296,19.6401081 212.805234,19.6401081 C212.244617,19.6401081 211.672465,20.0041081 211.159527,20.5436757 L211.159527,24.4152432 L210.098277,24.4152432 L210.098277,18.819027 L210.94497,18.819027 L211.076473,19.6287568 C211.612481,19.1474595 212.279992,18.7017297 213.09131,18.7017297 C214.164095,18.7017297 214.736247,19.3351351 214.736247,20.3446486 L214.736247,24.4152432 L213.674997,24.4152432" id="Fill-62" fill="#999999"></path>
                        <path d="M222.734073,17.1768649 C221.100671,17.1768649 220.099405,18.4202162 220.099405,20.3673514 C220.099405,22.3152432 221.112207,23.5585946 222.734073,23.5585946 C224.367476,23.5585946 225.368742,22.3152432 225.368742,20.3673514 C225.368742,18.4202162 224.355171,17.1768649 222.734073,17.1768649 Z M222.722538,24.5681081 C220.409321,24.5681081 218.942796,22.8782703 218.942796,20.3794595 C218.942796,17.8685405 220.43316,16.1673514 222.745609,16.1673514 C225.07113,16.1673514 226.525351,17.8571892 226.525351,20.356 C226.525351,22.8548108 225.047291,24.5681081 222.722538,24.5681081 Z" id="Fill-63" fill="#999999"></path>
                        <path d="M230.77112,19.6287568 C230.127448,19.6287568 229.626815,20.0154595 229.173861,20.6140541 L229.173861,23.3005405 C229.602976,23.5116757 229.949035,23.6055135 230.557332,23.6055135 C231.450935,23.6055135 232.106141,22.8903784 232.106141,21.5055135 C232.106141,20.2856216 231.546293,19.6287568 230.77112,19.6287568 Z M230.604242,24.4856216 C230.044394,24.4856216 229.531457,24.3804324 229.173861,24.2396757 L229.173861,26.4448649 L228.112611,26.596973 L228.112611,18.819027 L228.958535,18.819027 L229.090038,19.6287568 C229.519152,19.1361081 230.103609,18.7017297 230.938766,18.7017297 C232.166125,18.7017297 233.179696,19.5931892 233.179696,21.4585946 C233.179696,23.4995676 231.987712,24.4856216 230.604242,24.4856216 Z" id="Fill-64" fill="#999999"></path>
                        <path d="M236.464957,24.5090811 C235.46369,24.5090811 234.807715,24.1571892 234.807715,23.0303784 L234.807715,19.6991351 L233.949486,19.6991351 L233.949486,18.819027 L234.807715,18.819027 L234.807715,16.9536216 L235.845125,16.8007568 L235.845125,18.819027 L237.073253,18.819027 L237.216291,19.6991351 L235.845125,19.6991351 L235.845125,22.8427027 C235.845125,23.3005405 236.036611,23.5820541 236.631834,23.5820541 C236.822552,23.5820541 236.990198,23.5707027 237.120932,23.5472432 L237.26397,24.4387027 C237.084788,24.4742703 236.834856,24.5090811 236.464957,24.5090811" id="Fill-65" fill="#999999"></path>
                        <path d="M238.499019,24.4152432 L239.560269,24.4152432 L239.560269,18.819027 L238.499019,18.819027 L238.499019,24.4152432 Z M239.035796,17.692973 C238.665897,17.692973 238.355981,17.3993514 238.355981,17.0353514 C238.355981,16.6721081 238.665897,16.3671351 239.035796,16.3671351 C239.404927,16.3671351 239.703307,16.6721081 239.703307,17.0353514 C239.703307,17.3993514 239.404927,17.692973 239.035796,17.692973 Z" id="Fill-66" fill="#999999"></path>
                        <path d="M248.291742,24.4152432 L248.291742,20.6019459 C248.291742,20.0275676 248.077185,19.6401081 247.457353,19.6401081 C246.896736,19.6401081 246.359959,20.0041081 245.847022,20.5436757 L245.847022,24.4152432 L244.786541,24.4152432 L244.786541,20.6019459 C244.786541,20.0275676 244.571984,19.6401081 243.952152,19.6401081 C243.391535,19.6401081 242.855527,20.0041081 242.34259,20.5436757 L242.34259,24.4152432 L241.28134,24.4152432 L241.28134,18.819027 L242.127264,18.819027 L242.258766,19.6287568 C242.795543,19.1474595 243.439215,18.7017297 244.238228,18.7017297 C245.072617,18.7017297 245.525571,19.0536216 245.740897,19.6287568 C246.253065,19.1474595 246.944416,18.7017297 247.74266,18.7017297 C248.82775,18.7017297 249.352992,19.3351351 249.352992,20.3446486 L249.352992,24.4152432 L248.291742,24.4152432" id="Fill-67" fill="#999999"></path>
                        <path d="M251.057144,24.4152432 L252.118394,24.4152432 L252.118394,18.819027 L251.057144,18.819027 L251.057144,24.4152432 Z M251.593921,17.692973 C251.224791,17.692973 250.914106,17.3993514 250.914106,17.0353514 C250.914106,16.6721081 251.224791,16.3671351 251.593921,16.3671351 C251.963052,16.3671351 252.261432,16.6721081 252.261432,17.0353514 C252.261432,17.3993514 251.963052,17.692973 251.593921,17.692973 Z" id="Fill-68" fill="#999999"></path>
                        <polyline id="Fill-69" fill="#999999" points="253.331141 24.4152432 253.331141 23.5934054 256.513353 19.687027 253.617217 19.687027 253.47341 18.819027 257.729946 18.819027 257.729946 19.6401081 254.53466 23.5472432 257.729946 23.5472432 257.872984 24.4152432 253.331141 24.4152432"></polyline>
                        <path d="M262.386372,21.5758919 C260.288481,21.7756757 259.847062,22.3387027 259.847062,22.9138378 C259.847062,23.3709189 260.157747,23.6645405 260.693755,23.6645405 C261.313587,23.6645405 261.909579,23.3595676 262.386372,22.8782703 L262.386372,21.5758919 Z M262.589394,24.4152432 L262.470196,23.6645405 C262.017242,24.1216216 261.39741,24.5325405 260.466894,24.5325405 C259.441788,24.5325405 258.798117,23.9225946 258.798117,22.9721081 C258.798117,21.5758919 260.01394,21.0242162 262.386372,20.7782703 L262.386372,20.5436757 C262.386372,19.8398919 261.958027,19.5931892 261.302052,19.5931892 C260.610701,19.5931892 259.954726,19.8043243 259.334125,20.0744865 L259.191856,19.1709189 C259.871671,18.9007568 260.515342,18.7017297 261.39741,18.7017297 C262.780111,18.7017297 263.447622,19.2534054 263.447622,20.4967568 L263.447622,24.4152432 L262.589394,24.4152432 Z" id="Fill-70" fill="#999999"></path>
                        <path d="M267.013576,24.5090811 C266.011541,24.5090811 265.356334,24.1571892 265.356334,23.0303784 L265.356334,19.6991351 L264.497337,19.6991351 L264.497337,18.819027 L265.356334,18.819027 L265.356334,16.9536216 L266.392976,16.8007568 L266.392976,18.819027 L267.621872,18.819027 L267.764141,19.6991351 L266.392976,19.6991351 L266.392976,22.8427027 C266.392976,23.3005405 266.583693,23.5820541 267.180454,23.5820541 C267.371171,23.5820541 267.53728,23.5707027 267.668783,23.5472432 L267.81259,24.4387027 C267.633408,24.4742703 267.382707,24.5090811 267.013576,24.5090811" id="Fill-71" fill="#999999"></path>
                        <path d="M269.047639,24.4152432 L270.108889,24.4152432 L270.108889,18.819027 L269.047639,18.819027 L269.047639,24.4152432 Z M269.585185,17.692973 C269.215285,17.692973 268.90537,17.3993514 268.90537,17.0353514 C268.90537,16.6721081 269.215285,16.3671351 269.585185,16.3671351 C269.954315,16.3671351 270.252696,16.6721081 270.252696,17.0353514 C270.252696,17.3993514 269.954315,17.692973 269.585185,17.692973 Z" id="Fill-72" fill="#999999"></path>
                        <path d="M274.100111,19.5697297 C273.075005,19.5697297 272.562068,20.4498378 272.562068,21.6228108 C272.562068,22.7730811 273.098845,23.6645405 274.100111,23.6645405 C275.149057,23.6645405 275.674299,22.7965405 275.674299,21.6228108 C275.674299,20.4732973 275.125986,19.5697297 274.100111,19.5697297 Z M274.100111,24.5325405 C272.585908,24.5325405 271.489283,23.4647568 271.489283,21.6228108 C271.489283,19.7808649 272.585908,18.7017297 274.100111,18.7017297 C275.625851,18.7017297 276.746315,19.7808649 276.746315,21.6228108 C276.746315,23.4647568 275.625851,24.5325405 274.100111,24.5325405 Z" id="Fill-73" fill="#999999"></path>
                        <path d="M281.706505,24.4152432 L281.706505,20.6019459 C281.706505,20.0275676 281.455804,19.6401081 280.835973,19.6401081 C280.276125,19.6401081 279.703973,20.0041081 279.191035,20.5436757 L279.191035,24.4152432 L278.129785,24.4152432 L278.129785,18.819027 L278.975709,18.819027 L279.107212,19.6287568 C279.643989,19.1474595 280.3115,18.7017297 281.122049,18.7017297 C282.195603,18.7017297 282.767755,19.3351351 282.767755,20.3446486 L282.767755,24.4152432 L281.706505,24.4152432" id="Fill-74" fill="#999999"></path>
                    </g>
                </g>
            </g>
        </g>
    </g>
</svg>