<?xml version="1.0" encoding="UTF-8"?>
<svg width="268px" height="28px" viewBox="0 0 268 28" version="1.1" xmlns="http://www.w3.org/2000/svg" xmlns:xlink="http://www.w3.org/1999/xlink">
    <!-- Generator: Sketch 52.2 (67145) - http://www.bohemiancoding.com/sketch -->
    <title>Group 122</title>
    <desc>Created with Sketch.</desc>
    <defs>
        <polygon id="path-1" points="0 0.584603365 17.441775 0.584603365 17.441775 4.49760817 0 4.49760817"></polygon>
        <polygon id="path-3" points="0.761363636 0.372596154 1.14204545 0.372596154 1.14204545 0.745192308 0.761363636 0.745192308"></polygon>
        <polygon id="path-5" points="0.761363636 27.5721154 267.987818 27.5721154 267.987818 0.742211538 0.761363636 0.742211538"></polygon>
    </defs>
    <g id="Symbols" stroke="none" stroke-width="1" fill="none" fill-rule="evenodd">
        <g id="footer2-copy" transform="translate(-614.000000, -54.000000)">
            <g id="Group-3" transform="translate(151.000000, 40.000000)">
                <g id="Group-122" transform="translate(463.000000, 14.000000)">
                    <polygon id="Fill-1" fill="#999999" points="97.2390795 27.5750216 97.543625 27.5750216 97.543625 0.745117788 97.2390795 0.745117788"></polygon>
                    <g id="Group-121" transform="translate(0.000000, 0.002906)">
                        <path d="M9.83148864,8.102625 C9.87260227,8.14212019 9.89696591,8.13615865 9.89696591,8.13615865 C12.9066364,8.02214423 14.6303636,9.14291346 14.7773068,9.59971635 L15.9795,9.57885096 L16.3533295,8.78224038 C16.3761705,8.71666346 16.36475,8.62053365 16.3419091,8.59370673 C15.9795,8.20099038 12.9500341,7.35370673 9.29548864,7.35370673 C5.39654545,7.35370673 2.92363636,8.10709615 2.40210227,8.48490865 C2.40210227,8.48490865 2.27876136,8.5579375 2.27343182,8.67046154 C2.27190909,8.72187981 2.34804545,8.86644712 2.34804545,8.86644712 L2.453875,9.09000481 C2.48661364,9.15707212 2.53305682,9.15185577 2.613,9.10639904 C2.613,9.10639904 2.68304545,9.08478846 2.69827273,9.03858654 C2.71197727,8.99462019 2.66705682,8.91488462 2.66705682,8.91488462 C2.58863636,8.75988462 2.69294318,8.73976442 2.69903409,8.73603846 L2.92211364,8.63767308 C3.02794318,8.60786538 3.04088636,8.66300962 3.07667045,8.74498077 C3.07667045,8.74498077 3.11702273,8.85974038 3.14671591,8.87687981 C3.20229545,8.91041346 3.38045455,8.81204808 3.91188636,8.68462019 C3.94767045,8.67791346 3.96746591,8.6741875 4.03827273,8.64661538 C4.08928409,8.62724038 4.04360227,8.451375 4.04360227,8.451375 C4.02456818,8.36642308 3.98421591,8.277 4.17760227,8.24719231 L4.50879545,8.18236058 C4.66335227,8.14212019 4.67781818,8.22111058 4.69761364,8.30904327 C4.69761364,8.30904327 4.70827273,8.43945192 4.74177273,8.49385096 C4.78517045,8.56315385 4.865875,8.45435577 5.87925,8.34779327 C5.87925,8.34779327 6.02619318,8.34406731 6.05588636,8.29413942 C6.08634091,8.24197596 6.06121591,8.12572596 6.06121591,8.12572596 C6.05131818,8.00500481 6.00106818,7.91632692 6.23480682,7.90216827 L6.67868182,7.86192788 C7.01063636,7.80976442 6.95581818,7.91930769 6.96723864,8.03853846 C6.96723864,8.03853846 6.97789773,8.16820192 7.00378409,8.19204808 C7.02814773,8.21589423 7.13321591,8.21291346 7.13321591,8.21291346 C7.70119318,8.15553365 8.02020455,8.15851442 8.62244318,8.13392308 C8.62244318,8.13392308 8.70771591,8.13317788 8.73817045,8.09889904 C8.76938636,8.06462019 8.76101136,8.02661538 8.76101136,8.02661538 C8.76101136,7.96103846 8.74654545,7.85447596 8.78994318,7.80901923 C8.84095455,7.75909135 8.91861364,7.77995673 8.99779545,7.77995673 L9.505625,7.77995673 C9.58404545,7.77995673 9.74240909,7.74567788 9.78885227,7.80082212 C9.81702273,7.83510096 9.80788636,8.04673558 9.80788636,8.04673558 C9.80788636,8.04673558 9.80788636,8.08101442 9.83148864,8.102625" id="Fill-2" fill="#999999"></path>
                        <path d="M9.31954773,3.31781971 C6.37763864,3.31781971 4.56711591,4.24260337 3.40832045,5.35517548 C3.40832045,5.35517548 3.388525,5.37455048 3.37862727,5.40361298 C3.35654773,5.4602476 3.35045682,5.54519952 3.46999091,5.50495913 C5.99010455,4.46914183 8.74471818,5.11745913 9.62180909,6.09291587 C9.65226364,6.13911779 9.62333182,6.14955048 9.58754773,6.14955048 C8.70132045,6.15998317 7.95822955,6.1085649 6.319775,6.33286779 C5.43430909,6.45507933 4.64553636,6.58101683 3.98086591,6.75017548 C2.88678636,7.0288774 2.10867273,7.37986298 1.67469545,7.66154567 C1.51480909,7.74500721 1.50262727,7.8046226 1.46379773,7.87616106 C1.41659318,8.0170024 1.42192273,8.01476683 1.39146818,8.11015144 C1.33817273,8.29048798 1.30924091,8.40599279 1.29934318,8.46560817 C1.28107045,8.57440625 1.40212727,8.53789183 1.46532045,8.47380529 C1.59779773,8.34414183 1.95944545,8.03190625 2.49011591,7.78971875 C3.03144545,7.5430601 3.92604773,7.26286779 4.89754773,7.0870024 C6.19338864,6.8545024 7.76865,6.70397356 9.20991136,6.70099279 C10.8811045,6.69577644 12.3802295,6.86642548 13.6319114,7.10488702 C14.9056727,7.3485649 15.9129568,7.68539183 16.5639227,7.99688221 C16.8699909,8.14219471 17.0412977,8.27632933 17.2461045,8.44548798 C17.408275,8.6079399 17.4174114,8.46933413 17.4143659,8.42685817 C17.4143659,8.42685817 17.3854341,8.2107524 17.1143886,7.72190625 C16.2822182,6.2248149 14.0605591,3.31781971 9.31954773,3.31781971" id="Fill-4" fill="#999999"></path>
                        <g id="Group-8" transform="translate(0.761364, 20.120192)">
                            <mask id="mask-2" fill="white">
                                <use xlink:href="#path-1"></use>
                            </mask>
                            <g id="Clip-7"></g>
                            <path d="M0.00959318182,2.45801683 C0.00959318182,3.12645433 2.84871818,4.49760817 8.72720682,4.49760817 C14.4305818,4.49760817 17.441775,3.12645433 17.441775,2.45801683 L17.4128432,1.43263221 C17.4128432,1.4527524 17.408275,1.36407452 17.3999,1.38792067 C17.3907636,1.20236779 17.0892636,1.16734375 16.1672523,1.15393029 L16.1459341,0.584603365 C16.1459341,0.642728365 15.9517864,0.767175481 15.8307295,0.835733173 C15.0792636,1.2590024 12.2096841,1.89092548 8.62061591,1.89092548 C4.46433182,1.89092548 1.55363864,1.04736779 1.09453636,0.584603365 L1.0854,1.4631851 C2.45357045,2.42001202 6.66771818,3.27772837 10.9229795,2.83359375 C11.0493659,2.83061298 11.0920023,2.80527644 11.2206727,2.84104567 C11.2556955,2.85222356 11.3729455,2.95282452 11.1414909,3.03554087 C8.67391136,3.83289663 2.58071818,3.65479567 -0.000304545455,1.73816106 L0.0118772727,2.45801683" id="Fill-6" fill="#989898" mask="url(#mask-2)"></path>
                        </g>
                        <path d="M12.929325,9.32846635 L12.9810977,9.32846635 C12.9727227,9.32623077 12.9635864,9.32548558 12.9552114,9.32548558 C12.9453136,9.32548558 12.9361773,9.32623077 12.929325,9.32846635" id="Fill-9" fill="#999999"></path>
                        <path d="M12.8661318,9.54352885 C12.8661318,9.54650962 12.8676545,9.55098077 12.8676545,9.55321635 L12.8676545,9.373625 C12.8676545,9.37586058 12.8661318,9.37958654 12.8661318,9.3833125 L12.8661318,9.54352885 Z" id="Fill-11" fill="#999999"></path>
                        <polygon id="Fill-13" fill="#999999" points="12.8676545 9.55336538 12.8676545 9.55336538 12.8676545 9.37377404"></polygon>
                        <path d="M11.3096,9.26303846 C11.3111227,9.26303846 11.3118841,9.26005769 11.3164523,9.26005769 L11.3019864,9.26005769 C11.3042705,9.26005769 11.3073159,9.26303846 11.3096,9.26303846" id="Fill-15" fill="#999999"></path>
                        <g id="Group-19" transform="translate(0.000000, 26.826923)">
                            <mask id="mask-4" fill="white">
                                <use xlink:href="#path-3"></use>
                            </mask>
                            <g id="Clip-18"></g>
                            <path d="" id="Fill-17" fill="#989898" mask="url(#mask-4)"></path>
                        </g>
                        <path d="M12.9691443,8.91622596 L11.362667,8.91473558 C11.2842466,8.91473558 11.2499852,8.95348558 11.2477011,9.02875 L11.2477011,9.20685096 C11.2469398,9.28882212 11.2842466,9.32533654 11.3695193,9.32608173 L11.8666898,9.32608173 C11.9123716,9.32310096 11.9245534,9.34471154 11.9268375,9.35141827 C11.9451102,9.39985577 11.8537466,9.43935096 11.8240534,9.46021635 L11.5773716,9.61819712 C11.544633,9.63757212 11.5118943,9.68228365 11.5118943,9.76798077 L11.5012352,21.0382692 C11.5255989,21.2364904 11.8476557,21.2558654 12.1971216,21.2536298 C12.4925307,21.2528846 12.8419966,21.2372356 12.8777807,21.0434856 C12.8777807,21.0434856 12.8686443,10.3171875 12.878542,9.39016827 C12.8808261,9.34769231 12.8990989,9.33875 12.9067125,9.33502404 C12.9173716,9.32831731 12.968383,9.32310096 12.968383,9.32310096 C13.0407125,9.32086538 13.0803034,9.28509615 13.0803034,9.21430288 L13.0803034,9.02427885 C13.0780193,8.95497596 13.0323375,8.91846154 12.9691443,8.91622596" id="Fill-20" fill="#999999"></path>
                        <path d="M10.3296489,16.7560216 L10.3669557,16.6807572 L10.4758307,16.6807572 L10.474308,16.6114543 L8.2435125,16.6114543 L8.2435125,16.6807572 L8.36228523,16.6807572 L8.3942625,16.7508053 L8.5282625,17.0242909 C8.5282625,17.0242909 8.55186477,17.0488822 8.58308068,17.0615505 C8.60972841,17.0734736 8.66835341,17.0786899 8.69043295,17.0786899 C9.27668295,17.0839062 9.14877386,17.0786899 9.24089886,17.0786899 C9.28353523,17.0794351 9.34368295,17.0794351 9.37337614,17.1137139 C9.39241023,17.1390505 9.40916023,17.2061178 9.32693295,17.2575361 C9.13583068,17.3834736 8.81605795,17.5876562 8.66759205,17.6837861 C8.64855795,17.6934736 8.59830795,17.726262 8.58308068,17.7665024 C8.56252386,17.8112139 8.56709205,17.8447476 8.56709205,17.8447476 L8.56709205,19.9633293 L8.37827386,20.0348678 C8.37827386,20.0348678 8.31964886,20.458137 8.3858875,20.5013582 C8.44831932,20.5438341 10.2664557,20.5438341 10.3304102,20.5043389 C10.3920807,20.4640986 10.3380239,20.0281611 10.3380239,20.0281611 L10.1461602,19.9633293 L10.1461602,17.1189303 L10.3296489,16.7560216 Z" id="Fill-22" fill="#999999"></path>
                        <path d="M16.0851773,9.53153125 L14.4779386,9.52929567 C14.3995182,9.5270601 14.3652568,9.56730048 14.3622114,9.64480048 L14.3622114,9.81992067 C14.3622114,9.90263702 14.3987568,9.93840625 14.4832682,9.94064183 L14.9827227,9.94064183 C15.0276432,9.93766106 15.039825,9.95778125 15.0413477,9.96523317 C15.0611432,10.0144159 14.9697795,10.0554014 14.9378023,10.0747764 L14.6934045,10.2327572 C14.6583818,10.251387 14.6264045,10.2953534 14.6271659,10.3832861 L14.6180295,20.5439832 C14.6408705,20.7407139 14.9621659,20.7585986 15.3131545,20.7578534 C15.609325,20.7578534 15.9565068,20.7407139 15.9930523,20.5491995 C15.9930523,20.5491995 15.9831545,10.9317476 15.994575,10.0054736 C15.994575,9.9629976 16.0151318,9.95181971 16.0212227,9.94883894 C16.0326432,9.94213221 16.0828932,9.93766106 16.0828932,9.93766106 C16.1559841,9.93542548 16.1963364,9.89891106 16.1963364,9.82811779 L16.1963364,9.63734856 C16.1925295,9.56879087 16.1483705,9.53302163 16.0851773,9.53153125" id="Fill-24" fill="#999999"></path>
                        <path d="M7.30239091,8.91622596 L5.69591364,8.91473558 C5.61749318,8.91473558 5.58094773,8.95497596 5.58094773,9.03024038 L5.58094773,9.20685096 C5.58094773,9.28882212 5.61597045,9.32608173 5.70124318,9.32608173 L6.19993636,9.32608173 C6.24561818,9.32310096 6.2578,9.34545673 6.25932273,9.35141827 C6.27911818,9.39985577 6.18699318,9.44158654 6.15577727,9.46021635 L5.91137955,9.61819712 C5.87711818,9.63757212 5.84361818,9.68377404 5.84514091,9.76872596 L5.83524318,21.04125 C5.85884545,21.2372356 6.18014091,21.2558654 6.53036818,21.2536298 C6.82577727,21.2536298 7.17448182,21.2372356 7.21102727,21.044976 C7.21102727,21.044976 7.20265227,10.3171875 7.21331136,9.39240385 C7.21331136,9.34918269 7.23234545,9.33875 7.23919773,9.33502404 C7.25061818,9.32831731 7.30162955,9.32310096 7.30162955,9.32310096 C7.37319773,9.32235577 7.41355,9.28509615 7.41355,9.21430288 L7.41355,9.02502404 C7.41050455,8.95497596 7.36482273,8.91846154 7.30239091,8.91622596" id="Fill-26" fill="#999999"></path>
                        <path d="M4.17516591,9.55992308 L2.56792727,9.5576875 C2.49026818,9.5576875 2.45372273,9.59718269 2.45296136,9.6739375 L2.45296136,9.84980288 C2.45296136,9.93251923 2.48874545,9.96754327 2.57401818,9.96754327 L3.07347273,9.96903365 C3.11763182,9.96605288 3.12905227,9.98691827 3.13209773,9.99437019 C3.15113182,10.0428077 3.05976818,10.0845385 3.02779091,10.1046587 L2.78491591,10.2604038 C2.74837045,10.280524 2.71639318,10.3259808 2.71867727,10.4124231 L2.70801818,20.572375 C2.73009773,20.769851 3.05291591,20.7899712 3.40314318,20.7884808 C3.69931364,20.7884808 4.04649545,20.769851 4.08304091,20.5783365 C4.08304091,20.5783365 4.07542727,10.9601394 4.085325,10.0346106 C4.085325,9.99213462 4.10588182,9.98095673 4.11197273,9.97797596 C4.12339318,9.96903365 4.17212045,9.96605288 4.17212045,9.96605288 C4.24597273,9.96530769 4.286325,9.92953846 4.286325,9.85725481 L4.286325,9.66872115 C4.28251818,9.59941827 4.23759773,9.56141346 4.17516591,9.55992308" id="Fill-28" fill="#999999"></path>
                        <path d="M88.3426216,9.49620913 C87.271383,6.53257933 84.4726102,4.58911779 80.923133,4.58911779 C75.490042,4.58911779 72.104258,8.4432524 72.104258,13.792988 C72.104258,19.5577957 76.3366784,23.7949591 81.2809739,23.7949591 C83.8528602,23.7949591 87.011758,22.9350072 89.2219966,19.082363 L89.8409852,19.082363 C89.4169057,20.5131322 88.5390534,22.4908726 87.7578943,23.7301274 C85.674042,23.4462091 84.2449625,24.5945505 80.403883,24.5945505 C73.7952466,24.5945505 69.0466216,20.3253438 69.0466216,14.432363 C69.0466216,8.25173798 73.9269625,3.7939976 80.7289852,3.7939976 C84.8296898,3.7939976 86.5838716,5.06902163 87.5957239,5.06902163 C87.9535648,5.06902163 88.1142125,4.97214663 88.1812125,4.87676202 L88.6662011,4.87676202 L88.9616102,9.49620913 L88.3426216,9.49620913 Z" id="Fill-30" fill="#999999"></path>
                        <path d="M61.3053045,4.27226202 L61.3053045,4.87735817 C63.9046,4.94069952 64.49085,5.2916851 64.49085,7.23291106 L64.49085,19.907887 L49.1646,4.27226202 L48.10935,4.27226202 L46.7906682,4.27226202 L41.6164409,4.27226202 L40.3921682,4.27226202 L36.9294864,4.27226202 L36.9294864,4.87735817 C39.6308045,5.00478606 40.1188386,5.54654087 40.1188386,8.60182933 L40.1188386,16.0231995 C40.1188386,21.4370216 36.375975,22.9348582 32.7016341,22.9348582 C27.8517477,22.9348582 25.2813841,20.3550024 25.2813841,16.0537524 L25.2813841,7.20310337 C25.2813841,5.35353606 26.0640659,4.87735817 27.8517477,4.87735817 L28.1463955,4.87735817 L28.1463955,4.27226202 L19.7820545,4.27226202 L19.7820545,4.87735817 C21.9953386,4.90940144 22.5808273,5.22908894 22.5808273,7.26569952 L22.5808273,16.5671899 C22.5808273,21.1195697 25.7686568,24.5944014 31.9844295,24.5944014 C39.0468386,24.5944014 41.6164409,20.3550024 41.6164409,16.404738 L41.6164409,7.80819952 C41.6164409,5.44743029 42.7729523,4.88630048 44.281975,4.88630048 C45.186475,4.88630048 46.0612818,5.16127644 46.7906682,5.66204567 L46.7906682,21.341637 C46.7906682,22.8059399 46.1389409,23.4758678 44.1205659,23.4758678 L43.9911341,23.4758678 L43.9911341,24.0817091 L51.5438614,24.0817091 L51.5438614,23.4758678 C48.7770659,23.4758678 48.2555318,22.9996899 48.2555318,20.705988 L48.2555318,7.04214183 L65.1083159,24.3067572 L65.9572364,24.3067572 L65.9572364,6.53243029 C65.9572364,5.2916851 66.4772477,4.87735817 68.9204636,4.87735817 L68.9204636,4.27226202 L61.3053045,4.27226202 Z" id="Fill-32" fill="#999999"></path>
                        <polygon id="Fill-34" fill="#999999" points="105.546166 9.13821875 105.546166 4.2505024 108.238348 4.2505024 108.238348 4.85932452 106.226825 4.85932452 106.226825 6.27668029 107.789905 6.27668029 107.891166 6.8855024 106.226825 6.8855024 106.226825 8.52939663 108.310677 8.52939663 108.310677 9.13821875"></polygon>
                        <path d="M110.666032,9.1950024 C110.12318,9.1950024 109.63743,9.06757452 109.26893,8.8760601 L109.370191,8.19644471 C109.71052,8.41553125 110.180282,8.6137524 110.680498,8.6137524 C111.20127,8.6137524 111.56977,8.34473798 111.56977,7.87005048 C111.56977,7.42442548 111.368009,7.23961779 110.615782,6.90651683 C109.673975,6.48920913 109.31918,6.18442548 109.31918,5.48319952 C109.31918,4.69627644 109.934361,4.19401683 110.839623,4.19401683 C111.32385,4.19401683 111.686259,4.30654087 111.976339,4.46973798 L111.867464,5.1359399 C111.592611,4.93026683 111.215736,4.77452163 110.817543,4.77452163 C110.245759,4.77452163 109.992225,5.07185337 109.992225,5.43327163 C109.992225,5.80884856 110.180282,5.98545913 110.940884,6.32601202 C111.910861,6.75822356 112.243577,7.0838726 112.243577,7.82086779 C112.243577,8.66368029 111.599464,9.1950024 110.666032,9.1950024" id="Fill-36" fill="#999999"></path>
                        <polygon id="Fill-38" fill="#999999" points="116.630555 9.13821875 116.630555 6.8855024 114.105111 6.8855024 114.105111 9.13821875 113.424452 9.13821875 113.424452 4.2505024 114.105111 4.2505024 114.105111 6.27668029 116.630555 6.27668029 116.630555 4.2505024 117.311214 4.2505024 117.311214 9.13821875"></polygon>
                        <polygon id="Fill-40" fill="#999999" points="118.77859 9.13821875 118.77859 4.2505024 121.470772 4.2505024 121.470772 4.85932452 119.459249 4.85932452 119.459249 6.27668029 121.022328 6.27668029 121.12359 6.8855024 119.459249 6.8855024 119.459249 8.52939663 121.543101 8.52939663 121.543101 9.13821875"></polygon>
                        <polygon id="Fill-42" fill="#999999" points="122.63147 9.13821875 122.63147 4.2505024 123.31213 4.2505024 123.31213 8.51523798 125.114277 8.51523798 125.207925 9.13821875"></polygon>
                        <polygon id="Fill-44" fill="#999999" points="130.780498 9.13821875 130.780498 5.2773774 129.080373 9.15908413 128.536759 9.15908413 126.835873 5.2773774 126.835873 9.13821875 126.235157 9.13821875 126.235157 4.2505024 127.074941 4.2505024 128.826839 8.25963702 130.584827 4.2505024 131.410145 4.2505024 131.410145 9.13821875"></polygon>
                        <path d="M133.925539,7.08379808 L135.51755,7.08379808 L134.721925,5.0084375 L133.925539,7.08379808 Z M134.396061,4.22896635 L135.07672,4.22896635 L137.001448,9.04588942 L136.328402,9.18747596 L135.742152,7.67175481 L133.70855,7.67175481 L133.15047,9.13829327 L132.441641,9.13829327 L134.396061,4.22896635 Z" id="Fill-46" fill="#999999"></path>
                        <polygon id="Fill-48" fill="#999999" points="141.406089 9.13821875 138.662895 5.33401202 138.662895 9.13821875 138.033248 9.13821875 138.033248 4.2505024 138.641577 4.2505024 141.290361 7.9123774 141.290361 4.2505024 141.920009 4.2505024 141.920009 9.13821875"></polygon>
                        <path d="M146.178773,9.1950024 C145.63592,9.1950024 145.15017,9.06757452 144.78167,8.8760601 L144.882932,8.19644471 C145.223261,8.41553125 145.693023,8.6137524 146.193239,8.6137524 C146.714011,8.6137524 147.082511,8.34473798 147.082511,7.87005048 C147.082511,7.42442548 146.88075,7.23961779 146.128523,6.90651683 C145.186716,6.48920913 144.83192,6.18442548 144.83192,5.48319952 C144.83192,4.69627644 145.447102,4.19401683 146.352364,4.19401683 C146.836591,4.19401683 147.199,4.30654087 147.48908,4.46973798 L147.380205,5.1359399 C147.105352,4.93026683 146.728477,4.77452163 146.330284,4.77452163 C145.7585,4.77452163 145.504966,5.07185337 145.504966,5.43327163 C145.504966,5.80884856 145.693023,5.98545913 146.453625,6.32601202 C147.423602,6.75822356 147.756318,7.0838726 147.756318,7.82086779 C147.756318,8.66368029 147.112205,9.1950024 146.178773,9.1950024" id="Fill-50" fill="#999999"></path>
                        <path d="M151.016097,9.23025 C149.611381,9.23025 148.706881,8.21008173 148.706881,6.70106731 C148.706881,5.18534615 149.626608,4.15772596 151.030562,4.15772596 C151.623665,4.15772596 152.065256,4.30676442 152.448983,4.56162019 L152.347722,5.24198077 C151.985312,4.97296635 151.558949,4.76729327 151.022949,4.76729327 C150.010335,4.76729327 149.409619,5.51844712 149.409619,6.69436058 C149.409619,7.87027404 150.017187,8.61397596 151.022949,8.61397596 C151.558949,8.61397596 152.02871,8.40830288 152.427665,8.12512981 L152.528165,8.7555625 C152.144437,9.03202885 151.587881,9.23025 151.016097,9.23025" id="Fill-52" fill="#999999"></path>
                        <polygon id="Fill-54" fill="#999999" points="156.890626 9.13821875 156.890626 6.8855024 154.365183 6.8855024 154.365183 9.13821875 153.684524 9.13821875 153.684524 4.2505024 154.365183 4.2505024 154.365183 6.27668029 156.890626 6.27668029 156.890626 4.2505024 157.571285 4.2505024 157.571285 9.13821875"></polygon>
                        <path d="M161.121981,4.76744231 C160.129924,4.76744231 159.522356,5.51785096 159.522356,6.69376442 C159.522356,7.87042308 160.137537,8.62083173 161.121981,8.62083173 C162.114037,8.62083173 162.721606,7.87042308 162.721606,6.69376442 C162.721606,5.51785096 162.106424,4.76744231 161.121981,4.76744231 M161.114367,9.23039904 C159.710412,9.23039904 158.820378,8.21023077 158.820378,6.70121635 C158.820378,5.18549519 159.724878,4.157875 161.129594,4.157875 C162.540401,4.157875 163.422822,5.17804327 163.422822,6.68705769 C163.422822,8.19607212 162.525935,9.23039904 161.114367,9.23039904" id="Fill-56" fill="#999999"></path>
                        <path d="M166.746707,4.76744231 C165.75465,4.76744231 165.147082,5.51785096 165.147082,6.69376442 C165.147082,7.87042308 165.762264,8.62083173 166.746707,8.62083173 C167.738764,8.62083173 168.346332,7.87042308 168.346332,6.69376442 C168.346332,5.51785096 167.73115,4.76744231 166.746707,4.76744231 M166.739093,9.23039904 C165.335139,9.23039904 164.445105,8.21023077 164.445105,6.70121635 C164.445105,5.18549519 165.349605,4.157875 166.75432,4.157875 C168.165127,4.157875 169.047548,5.17804327 169.047548,6.68705769 C169.047548,8.19607212 168.150661,9.23039904 166.739093,9.23039904" id="Fill-58" fill="#999999"></path>
                        <polygon id="Fill-60" fill="#999999" points="170.297022 9.13821875 170.297022 4.2505024 170.977681 4.2505024 170.977681 8.51523798 172.779828 8.51523798 172.873476 9.13821875"></polygon>
                        <path d="M177.661616,4.76744231 C176.669559,4.76744231 176.061991,5.51785096 176.061991,6.69376442 C176.061991,7.87042308 176.677173,8.62083173 177.661616,8.62083173 C178.653673,8.62083173 179.261241,7.87042308 179.261241,6.69376442 C179.261241,5.51785096 178.646059,4.76744231 177.661616,4.76744231 M177.654002,9.23039904 C176.250048,9.23039904 175.360014,8.21023077 175.360014,6.70121635 C175.360014,5.18549519 176.264514,4.157875 177.66923,4.157875 C179.080036,4.157875 179.962457,5.17804327 179.962457,6.68705769 C179.962457,8.19607212 179.06557,9.23039904 177.654002,9.23039904" id="Fill-62" fill="#999999"></path>
                        <polygon id="Fill-64" fill="#999999" points="181.89297 4.85954808 181.89297 6.35440385 183.398948 6.35440385 183.499448 6.96322596 181.89297 6.96322596 181.89297 9.13844231 181.212311 9.13844231 181.212311 4.25072596 183.811607 4.25072596 183.811607 4.85954808"></polygon>
                        <path d="M187.83884,4.83808654 L187.23051,4.83808654 L187.23051,6.56693269 L187.794681,6.56693269 C188.47534,6.56693269 188.880385,6.29046635 188.880385,5.68089904 C188.880385,5.12125962 188.519499,4.83808654 187.83884,4.83808654 M187.759658,7.15488942 L187.23051,7.15488942 L187.23051,9.13859135 L186.550612,9.13859135 L186.550612,4.25012981 L187.874624,4.25012981 C188.932158,4.25012981 189.567897,4.75313462 189.567897,5.66003365 C189.567897,6.65859135 188.844601,7.15488942 187.759658,7.15488942" id="Fill-66" fill="#999999"></path>
                        <polygon id="Fill-68" fill="#999999" points="193.826432 9.13821875 193.826432 6.8855024 191.300989 6.8855024 191.300989 9.13821875 190.62033 9.13821875 190.62033 4.2505024 191.300989 4.2505024 191.300989 6.27668029 193.826432 6.27668029 193.826432 4.2505024 194.507091 4.2505024 194.507091 9.13821875"></polygon>
                        <path d="M197.020581,7.08379808 L198.612592,7.08379808 L197.816967,5.0084375 L197.020581,7.08379808 Z M197.491103,4.22896635 L198.171762,4.22896635 L200.09649,9.04588942 L199.423444,9.18747596 L198.837194,7.67175481 L196.803592,7.67175481 L196.245512,9.13829327 L195.536683,9.13829327 L197.491103,4.22896635 Z" id="Fill-70" fill="#999999"></path>
                        <path d="M202.457935,4.83808654 L201.806969,4.83808654 L201.806969,6.51700481 L202.385606,6.51700481 C203.044947,6.51700481 203.463697,6.22637981 203.463697,5.67419231 C203.463697,5.14287019 203.124128,4.83808654 202.457935,4.83808654 Z M203.818492,9.18777404 L202.313276,7.07664423 L201.806969,7.07664423 L201.806969,9.13859135 L201.12631,9.13859135 L201.12631,4.25012981 L202.486867,4.25012981 C203.507856,4.25012981 204.144356,4.74568269 204.144356,5.63842308 C204.144356,6.38287019 203.702765,6.82178846 203.051037,6.99169231 L204.535697,9.03873558 L203.818492,9.18777404 Z" id="Fill-72" fill="#999999"></path>
                        <polygon id="Fill-74" fill="#999999" points="210.057486 9.13821875 210.057486 5.2773774 208.357361 9.15908413 207.813748 9.15908413 206.112861 5.2773774 206.112861 9.13821875 205.512145 9.13821875 205.512145 4.2505024 206.35193 4.2505024 208.103827 8.25963702 209.861816 4.2505024 210.687134 4.2505024 210.687134 9.13821875"></polygon>
                        <path d="M213.201766,7.08379808 L214.793777,7.08379808 L213.998152,5.0084375 L213.201766,7.08379808 Z M213.672289,4.22896635 L214.352948,4.22896635 L216.277675,9.04588942 L215.60463,9.18747596 L215.01838,7.67175481 L212.984777,7.67175481 L212.426698,9.13829327 L211.717868,9.13829327 L213.672289,4.22896635 Z" id="Fill-76" fill="#999999"></path>
                        <path d="M219.209458,9.23025 C217.804742,9.23025 216.900242,8.21008173 216.900242,6.70106731 C216.900242,5.18534615 217.819969,4.15772596 219.223924,4.15772596 C219.817026,4.15772596 220.258617,4.30676442 220.642344,4.56162019 L220.541083,5.24198077 C220.178674,4.97296635 219.75231,4.76729327 219.21631,4.76729327 C218.203697,4.76729327 217.602981,5.51844712 217.602981,6.69436058 C217.602981,7.87027404 218.210549,8.61397596 219.21631,8.61397596 C219.75231,8.61397596 220.222072,8.40830288 220.621026,8.12512981 L220.721526,8.7555625 C220.337799,9.03202885 219.781242,9.23025 219.209458,9.23025" id="Fill-78" fill="#999999"></path>
                        <polygon id="Fill-80" fill="#999999" points="223.992497 7.19736538 223.992497 9.13784615 223.311837 9.13784615 223.311837 7.19736538 221.545474 4.34253365 222.240599 4.20094712 223.659781 6.57363942 225.034042 4.25012981 225.80911 4.25012981"></polygon>
                        <polygon id="Fill-82" fill="#999999" points="105.925401 24.0420649 105.925401 16.0707428 110.316185 16.0707428 110.316185 17.0640841 107.034708 17.0640841 107.034708 19.3749255 109.584515 19.3749255 109.748969 20.3682668 107.034708 20.3682668 107.034708 23.0487236 110.434197 23.0487236 110.434197 24.0420649"></polygon>
                        <path d="M113.590277,24.1574207 C112.846425,24.1574207 112.020345,23.9033101 111.53688,23.6380216 L111.689914,22.6670361 C112.221345,23.0254736 112.905811,23.3026851 113.672505,23.3026851 C114.393516,23.3026851 114.817595,23.0373966 114.817595,22.5746322 C114.817595,22.0664111 114.499345,21.8816034 113.483686,21.6394159 C112.161959,21.3160024 111.631289,20.9225409 111.631289,19.9411226 C111.631289,19.0632861 112.386561,18.4157139 113.61388,18.4157139 C114.310527,18.4157139 114.936368,18.5543197 115.467039,18.7860745 L115.301823,19.7563149 C114.806175,19.4791034 114.180334,19.2823726 113.590277,19.2823726 C112.953016,19.2823726 112.622584,19.5253053 112.622584,19.9180216 C112.622584,20.287637 112.905811,20.4955457 113.791277,20.7146322 C115.183811,21.0618918 115.809652,21.4546082 115.809652,22.5053293 C115.809652,23.5105937 115.042198,24.1574207 113.590277,24.1574207" id="Fill-84" fill="#999999"></path>
                        <path d="M120.67233,24.0420649 L120.67233,20.2870409 C120.67233,19.7214399 120.424125,19.3399014 119.810466,19.3399014 C119.256193,19.3399014 118.689739,19.6983389 118.181909,20.2296611 L118.181909,24.0420649 L117.131227,24.0420649 L117.131227,15.8628341 L118.181909,15.7011274 L118.181909,19.2594207 C118.641773,18.8547812 119.291216,18.415863 120.093693,18.415863 C121.156557,18.415863 121.723011,19.0395889 121.723011,20.0336755 L121.723011,24.0420649 L120.67233,24.0420649 Z" id="Fill-86" fill="#999999"></path>
                        <path d="M124.159451,20.6224519 L126.873713,20.6224519 C126.745042,19.7326923 126.343042,19.2244712 125.529144,19.2244712 C124.87894,19.2244712 124.324667,19.6864904 124.159451,20.6224519 M125.669997,24.1576442 C124.206656,24.1576442 123.062326,23.2909856 123.062326,21.2692788 C123.062326,19.5016827 124.123667,18.4159375 125.539803,18.4159375 C127.181303,18.4159375 127.936576,19.6522115 127.936576,21.176875 L127.936576,21.3967067 L124.112247,21.3967067 C124.147269,22.6784375 124.773872,23.2798077 125.752985,23.2798077 C126.566883,23.2798077 127.157701,22.9675721 127.77136,22.4936298 L127.924394,23.4176683 C127.322156,23.8804327 126.602667,24.1576442 125.669997,24.1576442" id="Fill-88" fill="#999999"></path>
                        <polygon id="Fill-90" fill="#999999" points="129.389334 24.0420649 129.389334 15.8628341 130.440016 15.7011274 130.440016 24.0420649"></polygon>
                        <path d="M139.071443,24.0420649 L139.071443,20.2870409 C139.071443,19.7214399 138.859023,19.3399014 138.244602,19.3399014 C137.69033,19.3399014 137.158898,19.6983389 136.651068,20.2296611 L136.651068,24.0420649 L135.600386,24.0420649 L135.600386,20.2870409 C135.600386,19.7214399 135.388727,19.3399014 134.774307,19.3399014 C134.220034,19.3399014 133.689364,19.6983389 133.181534,20.2296611 L133.181534,24.0420649 L132.130852,24.0420649 L132.130852,18.5313678 L132.968352,18.5313678 L133.098545,19.3287236 C133.629977,18.8547812 134.267239,18.415863 135.058295,18.415863 C135.884375,18.415863 136.332818,18.7623774 136.545239,19.3287236 C137.053068,18.8547812 137.737534,18.415863 138.528591,18.415863 C139.602114,18.415863 140.122125,19.0395889 140.122125,20.0336755 L140.122125,24.0420649 L139.071443,24.0420649 Z" id="Fill-92" fill="#999999"></path>
                        <path d="M144.972773,21.246476 C142.895011,21.4424615 142.45875,21.9968846 142.45875,22.5632308 C142.45875,23.0140721 142.766341,23.3024615 143.297011,23.3024615 C143.909909,23.3024615 144.500727,23.002149 144.972773,22.5289519 L144.972773,21.246476 Z M145.173773,24.0416923 L145.055,23.3024615 C144.607318,23.7533029 143.993659,24.1571971 143.072409,24.1571971 C142.057511,24.1571971 141.42025,23.5573173 141.42025,22.6213558 C141.42025,21.246476 142.623966,20.7032308 144.972773,20.4602981 L144.972773,20.2300337 C144.972773,19.5362596 144.547932,19.2940721 143.89925,19.2940721 C143.214023,19.2940721 142.565341,19.5019808 141.95092,19.7680144 L141.810068,18.8782548 C142.482352,18.6122212 143.119614,18.4162356 143.993659,18.4162356 C145.362591,18.4162356 146.023455,18.9587356 146.023455,20.1830865 L146.023455,24.0416923 L145.173773,24.0416923 Z" id="Fill-94" fill="#999999"></path>
                        <path d="M151.206438,24.0420649 L151.206438,20.2870409 C151.206438,19.7214399 150.958233,19.3399014 150.344574,19.3399014 C149.790301,19.3399014 149.223847,19.6983389 148.716017,20.2296611 L148.716017,24.0420649 L147.665335,24.0420649 L147.665335,18.5313678 L148.502835,18.5313678 L148.633028,19.3287236 C149.163699,18.8547812 149.825324,18.415863 150.627801,18.415863 C151.690665,18.415863 152.257119,19.0395889 152.257119,20.0336755 L152.257119,24.0420649 L151.206438,24.0420649 Z" id="Fill-96" fill="#999999"></path>
                        <mask id="mask-6" fill="white">
                            <use xlink:href="#path-5"></use>
                        </mask>
                        <g id="Clip-99"></g>
                        <polygon id="Fill-98" fill="#999999" mask="url(#mask-6)" points="156.822636 24.0421394 157.931943 24.0421394 157.931943 16.0708173 156.822636 16.0708173"></polygon>
                        <path d="M163.360009,24.0420649 L163.360009,20.2870409 C163.360009,19.7214399 163.111805,19.3399014 162.498145,19.3399014 C161.943873,19.3399014 161.377418,19.6983389 160.869589,20.2296611 L160.869589,24.0420649 L159.818907,24.0420649 L159.818907,18.5313678 L160.656407,18.5313678 L160.7866,19.3287236 C161.31727,18.8547812 161.978895,18.415863 162.781373,18.415863 C163.844236,18.415863 164.410691,19.0395889 164.410691,20.0336755 L164.410691,24.0420649 L163.360009,24.0420649 Z" id="Fill-100" fill="#999999" mask="url(#mask-6)"></path>
                        <path d="M167.791374,24.1574207 C167.047522,24.1574207 166.221442,23.9033101 165.737976,23.6380216 L165.89101,22.6670361 C166.422442,23.0254736 167.106908,23.3026851 167.873601,23.3026851 C168.594613,23.3026851 169.018692,23.0373966 169.018692,22.5746322 C169.018692,22.0664111 168.700442,21.8816034 167.684783,21.6394159 C166.363056,21.3160024 165.832385,20.9225409 165.832385,19.9411226 C165.832385,19.0632861 166.587658,18.4157139 167.814976,18.4157139 C168.511624,18.4157139 169.137465,18.5543197 169.668135,18.7860745 L169.502919,19.7563149 C169.007272,19.4791034 168.381431,19.2823726 167.791374,19.2823726 C167.154113,19.2823726 166.823681,19.5253053 166.823681,19.9180216 C166.823681,20.287637 167.106908,20.4955457 167.992374,20.7146322 C169.384908,21.0618918 170.010749,21.4546082 170.010749,22.5053293 C170.010749,23.5105937 169.243294,24.1574207 167.791374,24.1574207" id="Fill-101" fill="#999999" mask="url(#mask-6)"></path>
                        <path d="M173.227967,24.1344687 C172.236672,24.1344687 171.587228,23.7879543 171.587228,22.678363 L171.587228,19.3980264 L170.737547,19.3980264 L170.737547,18.5313678 L171.587228,18.5313678 L171.587228,16.6944687 L172.614308,16.5439399 L172.614308,18.5313678 L173.830206,18.5313678 L173.971819,19.3980264 L172.614308,19.3980264 L172.614308,22.4935553 C172.614308,22.9443966 172.803126,23.2216082 173.393183,23.2216082 C173.582001,23.2216082 173.747978,23.2104303 173.87741,23.1873293 L174.019024,24.0651659 C173.841626,24.1001899 173.593422,24.1344687 173.227967,24.1344687" id="Fill-102" fill="#999999" mask="url(#mask-6)"></path>
                        <path d="M175.242307,24.0421394 L176.292989,24.0421394 L176.292989,18.5314423 L175.242307,18.5314423 L175.242307,24.0421394 Z M175.773739,17.4225962 C175.408284,17.4225962 175.100693,17.1334615 175.100693,16.775024 C175.100693,16.4173317 175.408284,16.1170192 175.773739,16.1170192 C176.139955,16.1170192 176.434602,16.4173317 176.434602,16.775024 C176.434602,17.1334615 176.139955,17.4225962 175.773739,17.4225962 Z" id="Fill-103" fill="#999999" mask="url(#mask-6)"></path>
                        <path d="M179.901091,24.1344687 C178.909034,24.1344687 178.260352,23.7879543 178.260352,22.678363 L178.260352,19.3980264 L177.41067,19.3980264 L177.41067,18.5313678 L178.260352,18.5313678 L178.260352,16.6944687 L179.28667,16.5439399 L179.28667,18.5313678 L180.50333,18.5313678 L180.644943,19.3980264 L179.28667,19.3980264 L179.28667,22.4935553 C179.28667,22.9443966 179.475489,23.2216082 180.066307,23.2216082 C180.255125,23.2216082 180.420341,23.2104303 180.550534,23.1873293 L180.692148,24.0651659 C180.515511,24.1001899 180.266545,24.1344687 179.901091,24.1344687" id="Fill-104" fill="#999999" mask="url(#mask-6)"></path>
                        <path d="M185.59198,24.0420649 L185.461786,23.2447091 C184.931116,23.7305745 184.25807,24.1575697 183.467014,24.1575697 C182.393491,24.1575697 181.838457,23.5338438 181.838457,22.5405024 L181.838457,18.5313678 L182.888377,18.5313678 L182.888377,22.2863918 C182.888377,22.8519928 183.136582,23.2335313 183.750241,23.2335313 C184.305275,23.2335313 184.87173,22.8750938 185.379559,22.3437716 L185.379559,18.5313678 L186.430241,18.5313678 L186.430241,24.0420649 L185.59198,24.0420649 Z" id="Fill-105" fill="#999999" mask="url(#mask-6)"></path>
                        <path d="M190.006975,24.1344687 C189.014918,24.1344687 188.366236,23.7879543 188.366236,22.678363 L188.366236,19.3980264 L187.516555,19.3980264 L187.516555,18.5313678 L188.366236,18.5313678 L188.366236,16.6944687 L189.392555,16.5439399 L189.392555,18.5313678 L190.609214,18.5313678 L190.750827,19.3980264 L189.392555,19.3980264 L189.392555,22.4935553 C189.392555,22.9443966 189.581373,23.2216082 190.172191,23.2216082 C190.361009,23.2216082 190.526225,23.2104303 190.656418,23.1873293 L190.798032,24.0651659 C190.621395,24.1001899 190.37243,24.1344687 190.006975,24.1344687" id="Fill-106" fill="#999999" mask="url(#mask-6)"></path>
                        <path d="M192.680656,20.6224519 L195.394917,20.6224519 C195.266247,19.7326923 194.864247,19.2244712 194.050349,19.2244712 C193.400144,19.2244712 192.845872,19.6864904 192.680656,20.6224519 M194.191201,24.1576442 C192.72786,24.1576442 191.583531,23.2909856 191.583531,21.2692788 C191.583531,19.5016827 192.644872,18.4159375 194.061008,18.4159375 C195.702508,18.4159375 196.457781,19.6522115 196.457781,21.176875 L196.457781,21.3967067 L192.633451,21.3967067 C192.668474,22.6784375 193.295076,23.2798077 194.27419,23.2798077 C195.088088,23.2798077 195.678906,22.9675721 196.292565,22.4936298 L196.445599,23.4176683 C195.84336,23.8804327 195.123872,24.1576442 194.191201,24.1576442" id="Fill-107" fill="#999999" mask="url(#mask-6)"></path>
                        <path d="M202.629699,16.6829183 C202.145472,16.6829183 201.850824,16.879649 201.850824,17.3878702 L201.850824,18.5309952 L202.983733,18.5309952 L203.113926,19.398399 L201.850824,19.398399 L201.850824,24.0416923 L200.823744,24.0416923 L200.823744,19.398399 L199.974063,19.398399 L199.974063,18.5309952 L200.823744,18.5309952 L200.823744,17.2835433 C200.823744,16.185875 201.566835,15.7700577 202.570313,15.7700577 C202.73629,15.7700577 202.877142,15.7819808 203.019517,15.7939038 L203.172551,16.7291202 C203.05454,16.7060192 202.841358,16.6829183 202.629699,16.6829183" id="Fill-108" fill="#999999" mask="url(#mask-6)"></path>
                        <path d="M206.396393,19.2706731 C205.381495,19.2706731 204.873666,20.1373317 204.873666,21.2923798 C204.873666,22.4243269 205.405098,23.3029087 206.396393,23.3029087 C207.434893,23.3029087 207.954905,22.4481731 207.954905,21.2923798 C207.954905,20.1604327 207.411291,19.2706731 206.396393,19.2706731 M206.396393,24.1576442 C204.897268,24.1576442 203.811564,23.1061779 203.811564,21.2923798 C203.811564,19.4785817 204.897268,18.4159375 206.396393,18.4159375 C207.906939,18.4159375 209.017007,19.4785817 209.017007,21.2923798 C209.017007,23.1061779 207.906939,24.1576442 206.396393,24.1576442" id="Fill-109" fill="#999999" mask="url(#mask-6)"></path>
                        <path d="M211.435935,20.7843822 L211.435935,24.042363 L210.385253,24.042363 L210.385253,18.5316659 L211.223515,18.5316659 L211.400913,19.6516899 C211.80139,19.0287091 212.450833,18.462363 213.372083,18.4161611 L213.537299,19.3983245 C212.604628,19.4437813 211.813572,20.0563293 211.435935,20.7843822" id="Fill-110" fill="#999999" mask="url(#mask-6)"></path>
                        <polygon id="Fill-111" fill="#999999" mask="url(#mask-6)" points="217.549 24.0421394 218.658307 24.0421394 218.658307 16.0708173 217.549 16.0708173"></polygon>
                        <path d="M224.086144,24.0420649 L224.086144,20.2870409 C224.086144,19.7214399 223.83794,19.3399014 223.224281,19.3399014 C222.670008,19.3399014 222.103553,19.6983389 221.595724,20.2296611 L221.595724,24.0420649 L220.545042,24.0420649 L220.545042,18.5313678 L221.382542,18.5313678 L221.512735,19.3287236 C222.043406,18.8547812 222.705031,18.415863 223.507508,18.415863 C224.570372,18.415863 225.136826,19.0395889 225.136826,20.0336755 L225.136826,24.0420649 L224.086144,24.0420649 Z" id="Fill-112" fill="#999999" mask="url(#mask-6)"></path>
                        <path d="M230.322778,24.0420649 L230.322778,20.2870409 C230.322778,19.7214399 230.074574,19.3399014 229.460915,19.3399014 C228.906642,19.3399014 228.340188,19.6983389 227.832358,20.2296611 L227.832358,24.0420649 L226.781676,24.0420649 L226.781676,18.5313678 L227.619176,18.5313678 L227.749369,19.3287236 C228.28004,18.8547812 228.941665,18.415863 229.744142,18.415863 C230.807006,18.415863 231.37346,19.0395889 231.37346,20.0336755 L231.37346,24.0420649 L230.322778,24.0420649 Z" id="Fill-113" fill="#999999" mask="url(#mask-6)"></path>
                        <path d="M235.296995,19.2706731 C234.282098,19.2706731 233.774268,20.1373317 233.774268,21.2923798 C233.774268,22.4243269 234.3057,23.3029087 235.296995,23.3029087 C236.335495,23.3029087 236.855507,22.4481731 236.855507,21.2923798 C236.855507,20.1604327 236.311893,19.2706731 235.296995,19.2706731 M235.296995,24.1576442 C233.79787,24.1576442 232.712166,23.1061779 232.712166,21.2923798 C232.712166,19.4785817 233.79787,18.4159375 235.296995,18.4159375 C236.807541,18.4159375 237.917609,19.4785817 237.917609,21.2923798 C237.917609,23.1061779 236.807541,24.1576442 235.296995,24.1576442" id="Fill-114" fill="#999999" mask="url(#mask-6)"></path>
                        <polygon id="Fill-115" fill="#999999" mask="url(#mask-6)" points="241.552207 24.0766418 240.525127 24.0766418 238.542536 18.6121466 239.61682 18.4504399 241.056559 22.8060889 242.449855 18.5316659 243.54698 18.5316659"></polygon>
                        <path d="M247.809626,21.246476 C245.731865,21.4424615 245.295603,21.9968846 245.295603,22.5632308 C245.295603,23.0140721 245.603194,23.3024615 246.133865,23.3024615 C246.747524,23.3024615 247.337581,23.002149 247.809626,22.5289519 L247.809626,21.246476 Z M248.010626,24.0416923 L247.891853,23.3024615 C247.444172,23.7533029 246.830513,24.1571971 245.909263,24.1571971 C244.894365,24.1571971 244.257103,23.5573173 244.257103,22.6213558 C244.257103,21.246476 245.460819,20.7032308 247.809626,20.4602981 L247.809626,20.2300337 C247.809626,19.5362596 247.384785,19.2940721 246.736103,19.2940721 C246.050876,19.2940721 245.402194,19.5019808 244.787774,19.7680144 L244.646922,18.8782548 C245.319206,18.6122212 245.956467,18.4162356 246.830513,18.4162356 C248.199444,18.4162356 248.860308,18.9587356 248.860308,20.1830865 L248.860308,24.0416923 L248.010626,24.0416923 Z" id="Fill-116" fill="#999999" mask="url(#mask-6)"></path>
                        <path d="M252.390447,24.1344687 C251.399151,24.1344687 250.749708,23.7879543 250.749708,22.678363 L250.749708,19.3980264 L249.900026,19.3980264 L249.900026,18.5313678 L250.749708,18.5313678 L250.749708,16.6944687 L251.776788,16.5439399 L251.776788,18.5313678 L252.992685,18.5313678 L253.134299,19.3980264 L251.776788,19.3980264 L251.776788,22.4935553 C251.776788,22.9443966 251.965606,23.2216082 252.555663,23.2216082 C252.744481,23.2216082 252.910458,23.2104303 253.03989,23.1873293 L253.181503,24.0651659 C253.004106,24.1001899 252.755901,24.1344687 252.390447,24.1344687" id="Fill-117" fill="#999999" mask="url(#mask-6)"></path>
                        <path d="M254.40433,24.0421394 L255.455011,24.0421394 L255.455011,18.5314423 L254.40433,18.5314423 L254.40433,24.0421394 Z M254.936523,17.4225962 C254.570307,17.4225962 254.263477,17.1334615 254.263477,16.775024 C254.263477,16.4173317 254.570307,16.1170192 254.936523,16.1170192 C255.301977,16.1170192 255.597386,16.4173317 255.597386,16.775024 C255.597386,17.1334615 255.301977,17.4225962 254.936523,17.4225962 Z" id="Fill-118" fill="#999999" mask="url(#mask-6)"></path>
                        <path d="M259.406336,19.2706731 C258.391439,19.2706731 257.883609,20.1373317 257.883609,21.2923798 C257.883609,22.4243269 258.415041,23.3029087 259.406336,23.3029087 C260.444836,23.3029087 260.964848,22.4481731 260.964848,21.2923798 C260.964848,20.1604327 260.421234,19.2706731 259.406336,19.2706731 M259.406336,24.1576442 C257.907211,24.1576442 256.821507,23.1061779 256.821507,21.2923798 C256.821507,19.4785817 257.907211,18.4159375 259.406336,18.4159375 C260.916882,18.4159375 262.02695,19.4785817 262.02695,21.2923798 C262.02695,23.1061779 260.916882,24.1576442 259.406336,24.1576442" id="Fill-119" fill="#999999" mask="url(#mask-6)"></path>
                        <path d="M266.937441,24.0420649 L266.937441,20.2870409 C266.937441,19.7214399 266.689236,19.3399014 266.075577,19.3399014 C265.521305,19.3399014 264.95485,19.6983389 264.44702,20.2296611 L264.44702,24.0420649 L263.396339,24.0420649 L263.396339,18.5313678 L264.233839,18.5313678 L264.364032,19.3287236 C264.894702,18.8547812 265.556327,18.415863 266.358805,18.415863 C267.421668,18.415863 267.988123,19.0395889 267.988123,20.0336755 L267.988123,24.0420649 L266.937441,24.0420649 Z" id="Fill-120" fill="#999999" mask="url(#mask-6)"></path>
                    </g>
                </g>
            </g>
        </g>
    </g>
</svg>