<?xml version="1.0" encoding="UTF-8"?>
<svg width="110px" height="57px" viewBox="0 0 110 57" version="1.1" xmlns="http://www.w3.org/2000/svg" xmlns:xlink="http://www.w3.org/1999/xlink">
    <!-- Generator: Sketch 52.2 (67145) - http://www.bohemiancoding.com/sketch -->
    <title>Group 63</title>
    <desc>Created with Sketch.</desc>
    <defs>
        <polygon id="path-1" points="0 56.6126018 109.918761 56.6126018 109.918761 0 0 0"></polygon>
    </defs>
    <g id="Symbols" stroke="none" stroke-width="1" fill="none" fill-rule="evenodd">
        <g id="footer2-copy" transform="translate(-469.000000, -40.000000)">
            <g id="Group-3" transform="translate(151.000000, 40.000000)">
                <g id="Group-63" transform="translate(318.000000, 0.000000)">
                    <path d="M68.2473807,12.4505655 L68.3114633,12.4924327 L68.3361881,12.5625478 L68.3144908,12.6311496 L68.2559587,12.6785655 L68.1701789,12.6942027 L68.0510963,12.6942027 L68.0510963,12.4394681 L68.1701789,12.4394681 L68.2473807,12.4505655 Z M68.1555459,12.8203088 L68.2584817,12.8389726 L68.3104541,12.8904239 L68.3291239,12.9948398 C68.3346743,13.0624327 68.3392156,13.1022823 68.3447661,13.1153973 L68.5153165,13.1153973 L68.503711,13.0094681 L68.495133,12.9075743 L68.4608211,12.8273708 L68.4063257,12.7769283 L68.3175183,12.7471673 L68.4063257,12.725477 L68.4850413,12.6553619 L68.512289,12.5479195 L68.4850413,12.4394681 L68.4149037,12.3648133 L68.3043991,12.322946 L68.1616009,12.3143708 L67.8744908,12.3143708 L67.8744908,13.1153973 L68.0510963,13.1153973 L68.0510963,12.8203088 L68.1555459,12.8203088 Z M68.8392615,12.4162646 C68.8059587,12.3416097 68.7605459,12.2745212 68.6999954,12.2114681 C68.6384358,12.148415 68.5627477,12.0954504 68.4739404,12.0550965 C68.3846284,12.0122204 68.2862339,11.9920434 68.1772431,11.9920434 C68.0667385,11.9920434 67.962289,12.0167602 67.8643991,12.0636717 C67.7917385,12.0979726 67.7241239,12.1453885 67.6625642,12.205415 C67.6025183,12.265946 67.5520596,12.3416097 67.5132064,12.4303885 C67.473344,12.5191673 67.4546743,12.6139991 67.4546743,12.7169018 C67.4546743,12.843008 67.4864633,12.9650788 67.5495367,13.0795832 C67.6141239,13.1940876 67.7024266,13.2828664 67.8184817,13.3474327 C67.9320138,13.4104858 68.0510963,13.4432735 68.1772431,13.4432735 C68.2902706,13.4432735 68.3962339,13.4190611 68.495133,13.3706363 C68.5713257,13.3333088 68.6414633,13.2813531 68.7030229,13.2172912 C68.7660963,13.1527248 68.8160505,13.0765566 68.8518761,12.9877779 C68.8866927,12.8989991 68.9038486,12.8087071 68.9038486,12.7169018 C68.9038486,12.6139991 68.8836651,12.5136186 68.8392615,12.4162646 Z M68.4063257,12.1453885 C68.4825183,12.1741407 68.5466009,12.2170168 68.6010963,12.2699814 L68.7272431,12.4475389 C68.7706376,12.5322823 68.7903165,12.6225743 68.7903165,12.7169018 C68.7903165,12.8243442 68.7630688,12.9277513 68.709078,13.0251053 C68.6545826,13.1224593 68.5799037,13.198123 68.4825183,13.2531053 C68.3846284,13.3075832 68.2832064,13.3343177 68.1772431,13.3343177 C68.072289,13.3343177 67.9723807,13.3075832 67.8744908,13.2531053 C67.7786193,13.198123 67.7024266,13.1224593 67.6484358,13.0251053 C67.5924266,12.9277513 67.5677018,12.8243442 67.5677018,12.7169018 C67.5677018,12.6256009 67.5838486,12.5408575 67.6196743,12.4662027 C67.6539862,12.3905389 67.6999037,12.3259726 67.7513716,12.2745212 L67.9264633,12.155477 C68.0077018,12.1181496 68.0939862,12.0994858 68.1772431,12.0994858 C68.2559587,12.0994858 68.3316468,12.115123 68.4063257,12.1453885 Z" id="Fill-1" fill="#A6A8AB"></path>
                    <polygon id="Fill-3" fill="#A6A8AB" points="65.4253257 10.6954195 61.1933532 3.66373805 62.358445 3.66373805 62.358445 0.000100884956 55.3144083 0.000100884956 55.3144083 3.66373805 56.4795 3.66373805 54.8628028 6.3498 53.2461055 3.66373805 54.412711 3.66373805 54.412711 0.000100884956 47.3686743 0.000100884956 47.3686743 3.66373805 48.5337661 3.66373805 44.3033073 10.6954195 42.7925734 10.6954195 42.7925734 14.3605699 49.9773899 14.3605699 49.9773899 10.6954195 48.6876651 10.6954195 50.8917018 7.0317823 51.7459679 8.45325133 50.9260138 8.45325133 50.9260138 12.1168885 58.8026193 12.1168885 58.8026193 8.45325133 57.9826651 8.45325133 58.838445 7.0317823 61.0414725 10.6954195 59.7497294 10.6954195 59.7497294 14.3605699 66.9345459 14.3605699 66.9345459 10.6954195"></polygon>
                    <mask id="mask-2" fill="white">
                        <use xlink:href="#path-1"></use>
                    </mask>
                    <g id="Clip-6"></g>
                    <polygon id="Fill-5" fill="#A6A8AB" mask="url(#mask-2)" points="0 32.2377876 109.727523 32.2377876 109.727523 31.8710708 0 31.8710708"></polygon>
                    <path d="M105.059587,39.4417301 L105.09945,40.7971195 L104.922339,40.7971195 C104.756835,39.9274912 104.546422,39.7842345 103.403028,39.7842345 L103.403028,43.8342611 C103.403028,44.3084204 103.644725,44.5192699 104.086239,44.5192699 L104.086239,44.7094381 L101.965459,44.7094381 L101.965459,44.5192699 C102.407982,44.5192699 102.650688,44.3084204 102.650688,43.8342611 L102.650688,39.7842345 C101.506789,39.7842345 101.294358,39.9274912 101.129862,40.7971195 L100.953257,40.7971195 L100.993624,39.4417301 L105.059587,39.4417301 Z" id="Fill-7" fill="#A6A8AB" mask="url(#mask-2)"></path>
                    <path d="M98.0224633,44.4889035 C97.0370046,44.4889035 96.4723716,43.540585 96.4723716,42.0691779 C96.4723716,40.5977708 97.0370046,39.6509655 98.0224633,39.6509655 C99.0099404,39.6509655 99.5745734,40.5977708 99.5745734,42.0691779 C99.5745734,43.540585 99.0099404,44.4889035 98.0224633,44.4889035 M98.0224633,39.3397354 C96.7231514,39.3397354 95.6695734,40.4086115 95.6695734,42.0691779 C95.6695734,43.7297442 96.7231514,44.7971071 98.0224633,44.7971071 C99.3222798,44.7971071 100.375858,43.7297442 100.375858,42.0691779 C100.375858,40.4086115 99.3222798,39.3397354 98.0224633,39.3397354" id="Fill-8" fill="#A6A8AB" mask="url(#mask-2)"></path>
                    <path d="M106.271757,42.623692 C106.629005,41.6567097 107.050335,40.5162053 107.050335,40.5162053 C107.050335,40.5162053 107.473179,41.6637717 107.823867,42.623692 L106.271757,42.623692 Z M109.172628,44.0607982 C109.076757,43.8141345 107.311206,39.3671257 107.311206,39.3671257 L107.133087,39.3671257 C107.133087,39.3671257 105.572399,43.4443912 105.380151,43.9230903 C105.188913,44.4033027 104.956803,44.5193204 104.771115,44.5193204 L104.771115,44.7094885 L106.209188,44.7094885 L106.209188,44.5193204 C105.998271,44.5193204 105.760106,44.3715239 105.760106,44.142515 C105.760106,44.0739133 105.766161,43.991692 105.78483,43.9432673 C105.79795,43.9029133 105.946298,43.5034088 106.134509,42.9934354 L107.96061,42.9934354 C108.146803,43.498869 108.290106,43.8887894 108.295656,43.9099752 C108.320381,43.9790814 108.351665,44.0739133 108.351665,44.142515 C108.351665,44.3473115 108.186665,44.5193204 107.878867,44.5193204 L107.878867,44.7094885 L109.727674,44.7094885 L109.727674,44.5193204 C109.502124,44.5193204 109.2685,44.3069575 109.172628,44.0607982 Z" id="Fill-9" fill="#A6A8AB" mask="url(#mask-2)"></path>
                    <path d="M90.4255505,43.3413876 C90.1919266,43.8886885 89.8922018,44.3689009 89.0566055,44.3689009 L88.2215138,44.3689009 C87.9157339,44.3689009 87.7845413,44.2624673 87.7845413,44.0122726 L87.7845413,42.1363168 L88.9193578,42.1363168 C89.357844,42.1363168 89.5899541,42.3844938 89.658578,42.8500779 L89.8366972,42.8500779 L89.8366972,41.0291044 L89.6459633,41.0291044 C89.618211,41.5345381 89.357844,41.7812018 88.9607339,41.7812018 L87.7845413,41.7812018 L87.7845413,40.0177327 C87.7845413,39.8240336 87.9076606,39.7841841 88.0706422,39.7841841 L89.0843578,39.7841841 C89.7130734,39.7841841 89.9320642,40.0434584 90.0703211,40.6321221 L90.2474312,40.6321221 L90.206055,39.4416796 L86.4155963,39.4416796 L86.4155963,39.6333611 C86.8571101,39.6333611 87.058945,39.8426973 87.058945,40.3168566 L87.058945,43.8342106 C87.058945,44.3083699 86.8571101,44.5192195 86.4155963,44.5192195 L86.4155963,44.7093876 L90.303945,44.7093876 L90.6450459,43.3413876 L90.4255505,43.3413876 Z" id="Fill-10" fill="#A6A8AB" mask="url(#mask-2)"></path>
                    <path d="M94.4371193,39.3328752 L94.5874862,41.0706186 L94.3952385,41.0706186 C94.1358807,40.2156186 93.6973945,39.6879903 93.0681743,39.6879903 C92.6155596,39.6879903 92.3562018,39.9931673 92.3562018,40.4002381 C92.3562018,40.8643088 92.6988165,41.1382115 93.1231743,41.4257336 C93.5465229,41.7122469 93.833633,41.905946 93.9708807,42.0007779 C94.3634495,42.275185 94.7378532,42.7654858 94.7378532,43.3284239 C94.7378532,44.1854416 94.094,44.820008 93.2462936,44.820008 C92.7255596,44.820008 92.397578,44.5592204 92.1367064,44.5592204 C91.9934037,44.5592204 91.9247798,44.7039903 91.8899633,44.820008 L91.7128532,44.820008 L91.4933578,43.0676363 L91.6851009,43.0676363 C92.0065229,43.965008 92.4778073,44.4906186 93.1373028,44.4906186 C93.6282661,44.4906186 93.998633,44.1536628 93.998633,43.6023265 C93.998633,43.1024416 93.7342294,42.8628398 93.4234037,42.643415 C93.0757431,42.3972558 92.6438165,42.0966186 92.3834495,41.9175478 C91.9762477,41.641123 91.7254679,41.265831 91.7254679,40.6595124 C91.7254679,39.934654 92.2038165,39.3328752 93.0267982,39.3328752 C93.3820275,39.3328752 93.7791376,39.5649106 93.998633,39.5649106 C94.1616147,39.5649106 94.2307431,39.4559549 94.2448716,39.3328752 L94.4371193,39.3328752 Z" id="Fill-11" fill="#A6A8AB" mask="url(#mask-2)"></path>
                    <path d="M83.9649679,39.4417301 L83.9649679,39.6334115 C84.3746927,39.6334115 84.6214358,39.948677 84.6214358,40.4273761 L84.6214358,43.1981814 L81.8835459,39.4417301 L80.6927202,39.4417301 L80.6927202,39.6334115 C80.9253349,39.6334115 81.117078,39.7423673 81.2114358,39.8654469 C81.2230413,39.8800752 81.2775367,39.9532168 81.3638211,40.0677212 L81.3638211,43.6022257 C81.3638211,44.2040044 81.157445,44.5192699 80.6785917,44.5192699 L80.6785917,44.7094381 L82.3623991,44.7094381 L82.3623991,44.5192699 C81.9511606,44.5192699 81.7059312,44.2453673 81.7059312,43.7656593 L81.7059312,40.5302788 C82.7024908,41.8760841 84.8535459,44.7926681 84.8535459,44.7926681 L84.9650596,44.7926681 L84.9650596,40.5504558 C84.9650596,39.8800752 85.2370321,39.6334115 85.6472615,39.6334115 L85.6472615,39.4417301 L83.9649679,39.4417301 Z" id="Fill-12" fill="#A6A8AB" mask="url(#mask-2)"></path>
                    <path d="M78.1188716,39.4417301 L78.1188716,39.6334115 C78.5301101,39.6334115 78.7753394,39.948677 78.7753394,40.4273761 L78.7753394,43.1981814 L76.0379541,39.4417301 L74.8471284,39.4417301 L74.8471284,39.6334115 C75.0807523,39.6334115 75.2709817,39.7423673 75.3673578,39.8654469 C75.3774495,39.8800752 75.4329541,39.9532168 75.5192385,40.0677212 L75.5192385,43.6022257 C75.5192385,44.2040044 75.3128624,44.5192699 74.8340092,44.5192699 L74.8340092,44.7094381 L76.5183211,44.7094381 L76.5183211,44.5192699 C76.106578,44.5192699 75.8603394,44.2453673 75.8603394,43.7656593 L75.8603394,40.5302788 C76.8563945,41.8760841 79.0089633,44.7926681 79.0089633,44.7926681 L79.1179541,44.7926681 L79.1179541,40.5504558 C79.1179541,39.8800752 79.3914404,39.6334115 79.8026789,39.6334115 L79.8026789,39.4417301 L78.1188716,39.4417301 Z" id="Fill-13" fill="#A6A8AB" mask="url(#mask-2)"></path>
                    <path d="M71.0549037,37.923008 L71.0549037,37.7308221 L69.4266009,37.7308221 L67.3043073,43.4232558 L65.1704083,37.7308221 L63.5123349,37.7308221 L63.5123349,37.923008 C64.2111881,37.923008 64.4034358,38.3053619 64.4034358,38.9903708 L64.4034358,43.2724327 C64.4034358,44.2626186 64.1254083,44.5193708 63.5007294,44.5193708 L63.5007294,44.7095389 L65.6492615,44.7095389 L65.6492615,44.5193708 C65.047289,44.5193708 64.7586651,44.2600965 64.7586651,43.2724327 L64.7586651,38.798185 L66.9763257,44.7236628 L67.1811881,44.7236628 L69.4412339,38.6897336 L69.4412339,43.2724327 C69.4412339,44.2626186 69.2161881,44.5193708 68.5915092,44.5193708 L68.5915092,44.7095389 L71.0549037,44.7095389 L71.0549037,44.5193708 C70.4529312,44.5193708 70.2208211,44.2600965 70.2208211,43.2724327 L70.2208211,38.8945301 C70.2208211,38.1005655 70.6451789,37.923008 71.0549037,37.923008" id="Fill-14" fill="#A6A8AB" mask="url(#mask-2)"></path>
                    <path d="M73.0670963,40.3170584 C73.0670963,39.8428991 73.3092982,39.6335628 73.7518211,39.6335628 L73.7518211,39.4418814 L71.6295275,39.4418814 L71.6295275,39.6335628 C72.072555,39.6335628 72.3147569,39.8428991 72.3147569,40.3170584 L72.3147569,43.8344124 C72.3147569,44.3085717 72.072555,44.5194212 71.6295275,44.5194212 L71.6295275,44.7095894 L73.7518211,44.7095894 L73.7518211,44.5194212 C73.3092982,44.5194212 73.0670963,44.3085717 73.0670963,43.8344124 L73.0670963,40.3170584 Z" id="Fill-15" fill="#A6A8AB" mask="url(#mask-2)"></path>
                    <path d="M53.6363028,44.4948558 C52.6488257,44.4948558 52.0841927,43.5480504 52.0841927,42.0766434 C52.0841927,40.603723 52.6488257,39.6564133 53.6363028,39.6564133 C54.6207523,39.6564133 55.1868991,40.603723 55.1868991,42.0766434 C55.1868991,43.5480504 54.6207523,44.4948558 53.6363028,44.4948558 M53.6363028,39.3472009 C52.3364862,39.3472009 51.2813945,40.416077 51.2813945,42.0766434 C51.2813945,43.7372097 52.3364862,44.8040681 53.6363028,44.8040681 C54.9346055,44.8040681 55.991211,43.7372097 55.991211,42.0766434 C55.991211,40.416077 54.9346055,39.3472009 53.6363028,39.3472009" id="Fill-16" fill="#A6A8AB" mask="url(#mask-2)"></path>
                    <path d="M60.556867,39.4417301 L56.7245275,39.4417301 L56.7245275,39.6334115 C57.1660413,39.6334115 57.366867,39.8427478 57.366867,40.3169071 L57.366867,43.8342611 C57.366867,44.3084204 57.1660413,44.5192699 56.7245275,44.5192699 L56.7245275,44.7094381 L58.7640688,44.7094381 L58.7640688,44.5192699 C58.339711,44.5192699 58.0919587,44.3129602 58.0919587,43.8342611 L58.0919587,42.1363673 L59.1869128,42.1363673 C59.6253991,42.1363673 59.8590229,42.3845442 59.9276468,42.8501283 L60.1042523,42.8501283 L60.1042523,41.0291549 L59.9135183,41.0291549 C59.8862706,41.5345885 59.6253991,41.7812522 59.228289,41.7812522 L58.0919587,41.7812522 L58.0919587,40.0177832 C58.0919587,39.8240841 58.215078,39.7842345 58.380078,39.7842345 L59.4346651,39.7842345 C60.0638853,39.7842345 60.281867,40.0435088 60.4196193,40.6321726 L60.5987477,40.6321726 L60.556867,39.4417301 Z" id="Fill-17" fill="#A6A8AB" mask="url(#mask-2)"></path>
                    <path d="M42.9576743,39.4488425 L42.9980413,40.8027186 L42.8204266,40.8027186 C42.6569404,39.9346035 42.4445092,39.7913469 41.3011147,39.7913469 L41.3011147,43.8413735 C41.3011147,44.3155327 41.5433165,44.5263823 41.9843257,44.5263823 L41.9843257,44.7165504 L39.8635459,44.7165504 L39.8635459,44.5263823 C40.3065734,44.5263823 40.5487752,44.3155327 40.5487752,43.8413735 L40.5487752,39.7913469 C39.4063899,39.7913469 39.1944633,39.9346035 39.0294633,40.8027186 L38.8503349,40.8027186 L38.891711,39.4488425 L42.9576743,39.4488425 Z" id="Fill-18" fill="#A6A8AB" mask="url(#mask-2)"></path>
                    <path d="M47.0236881,39.6392628 L47.0236881,39.4490947 L48.6388716,39.4490947 L48.6388716,39.6392628 C48.4067615,39.6392628 48.0399266,39.8945018 47.8850183,40.1467142 C47.7144679,40.4271743 46.5852018,42.3086788 46.5852018,42.3086788 L46.5852018,43.8416257 C46.5852018,44.3531124 46.7729083,44.5261301 47.324422,44.5261301 L47.324422,44.7168027 L45.0931376,44.7168027 L45.0931376,44.5261301 C45.645156,44.5261301 45.8328624,44.3531124 45.8328624,43.8416257 L45.8328624,42.3919088 C45.8328624,42.3919088 44.5870367,40.4059885 44.4366697,40.1593248 C44.284789,39.9141743 43.984055,39.6392628 43.6974495,39.6392628 L43.6974495,39.4490947 L45.778367,39.4490947 L45.778367,39.6392628 C45.4887339,39.6392628 45.2838716,39.7699088 45.2838716,39.9202274 C45.2838716,40.0175814 45.3338257,40.1335991 45.3666239,40.1941301 L46.4217156,41.931369 L47.4606606,40.1265372 L47.5020367,39.9560416 C47.5020367,39.8112717 47.4207982,39.6392628 47.0236881,39.6392628" id="Fill-19" fill="#A6A8AB" mask="url(#mask-2)"></path>
                    <path d="M34.5521606,39.3328752 L34.7025275,41.0706186 L34.5117936,41.0706186 C34.2514266,40.2156186 33.8129404,39.6879903 33.1837202,39.6879903 C32.7321147,39.6879903 32.4712431,39.9931673 32.4712431,40.4002381 C32.4712431,40.8643088 32.8138578,41.1382115 33.2382156,41.4257336 C33.6635826,41.7122469 33.9501881,41.905946 34.0864266,42.0007779 C34.4789954,42.275185 34.8533991,42.7654858 34.8533991,43.3284239 C34.8533991,44.1854416 34.2095459,44.820008 33.3613349,44.820008 C32.8411055,44.820008 32.5126193,44.5592204 32.2517477,44.5592204 C32.108445,44.5592204 32.0398211,44.7039903 32.0070229,44.820008 L31.8294083,44.820008 L31.6083991,43.0676363 L31.8006468,43.0676363 C32.1215642,43.965008 32.5943624,44.4906186 33.252344,44.4906186 C33.7438119,44.4906186 34.1136743,44.1536628 34.1136743,43.6023265 C34.1136743,43.1024416 33.8497752,42.8628398 33.5389495,42.643415 C33.1907844,42.3972558 32.7593624,42.0966186 32.5000046,41.9175478 C32.0917936,41.641123 31.8420229,41.265831 31.8420229,40.6595124 C31.8420229,39.934654 32.3208761,39.3328752 33.1418394,39.3328752 C33.4990872,39.3328752 33.8956927,39.5649106 34.1136743,39.5649106 C34.2786743,39.5649106 34.3457844,39.4559549 34.3604174,39.3328752 L34.5521606,39.3328752 Z" id="Fill-20" fill="#A6A8AB" mask="url(#mask-2)"></path>
                    <path d="M37.4542431,40.3242212 C37.4542431,39.8500619 37.696445,39.6392124 38.1379587,39.6392124 L38.1379587,39.4490442 L36.0166743,39.4490442 L36.0166743,39.6392124 C36.4597018,39.6392124 36.7019037,39.8500619 36.7019037,40.3242212 L36.7019037,43.8415752 C36.7019037,44.3157345 36.4597018,44.5265841 36.0166743,44.5265841 L36.0166743,44.7167522 L38.1379587,44.7167522 L38.1379587,44.5265841 C37.696445,44.5265841 37.4542431,44.3157345 37.4542431,43.8415752 L37.4542431,40.3242212 Z" id="Fill-21" fill="#A6A8AB" mask="url(#mask-2)"></path>
                    <path d="M25.3798761,43.3413876 C25.1477661,43.8886885 24.8465275,44.3689009 24.0129495,44.3689009 L23.1773532,44.3689009 C22.872078,44.3689009 22.738867,44.2624673 22.738867,44.0122726 L22.738867,42.1363168 L23.8751972,42.1363168 C24.3136835,42.1363168 24.5457936,42.3844938 24.6144174,42.8500779 L24.7920321,42.8500779 L24.7920321,41.0291044 L24.600289,41.0291044 C24.5715275,41.5345381 24.3136835,41.7812018 23.9150596,41.7812018 L22.738867,41.7812018 L22.738867,40.0177327 C22.738867,39.8240336 22.8619862,39.7841841 23.0264817,39.7841841 L24.0381789,39.7841841 C24.6689128,39.7841841 24.8884083,40.0434584 25.0241422,40.6321221 L25.2022615,40.6321221 L25.1618945,39.4416796 L21.369922,39.4416796 L21.369922,39.6333611 C21.8129495,39.6333611 22.0132706,39.8426973 22.0132706,40.3168566 L22.0132706,43.8342106 C22.0132706,44.3083699 21.8129495,44.5192195 21.369922,44.5192195 L21.369922,44.7093876 L25.2582706,44.7093876 L25.5993716,43.3413876 L25.3798761,43.3413876 Z" id="Fill-22" fill="#A6A8AB" mask="url(#mask-2)"></path>
                    <path d="M27.6658073,41.9731858 L27.6658073,40.1940796 C27.6658073,39.829885 27.7399817,39.7426195 28.1461743,39.7426195 C29.0357615,39.7426195 29.3642477,40.1809646 29.3642477,40.8372212 C29.3642477,41.6453097 28.7521835,41.9731858 27.8449358,41.9731858 L27.6658073,41.9731858 Z M30.3900734,44.285469 C30.2684679,44.1391858 29.1003486,42.5376372 28.8409908,42.1810088 C29.7840642,41.9802478 30.1165872,41.5005398 30.1165872,40.8099823 C30.1165872,39.9887788 29.5004862,39.4414779 28.3782844,39.4414779 L26.2696147,39.4414779 L26.2696147,39.6336637 C26.7126422,39.6336637 26.9149817,39.8424956 26.9149817,40.3171593 L26.9149817,43.8340088 C26.9149817,44.3086726 26.7126422,44.5190177 26.2696147,44.5190177 L26.2696147,44.7096903 L28.3106697,44.7096903 L28.3106697,44.5190177 C27.8676422,44.5190177 27.6658073,44.3086726 27.6658073,43.8340088 L27.6658073,42.2869381 C27.8075963,42.2869381 27.9392936,42.2813894 28.0654404,42.2753363 L29.7739725,44.7096903 L30.9249358,44.7096903 L30.9249358,44.5462566 C30.7326881,44.5462566 30.5278257,44.4504159 30.3900734,44.285469 Z" id="Fill-23" fill="#A6A8AB" mask="url(#mask-2)"></path>
                    <path d="M14.2112431,40.3170584 C14.2112431,39.8428991 14.4519312,39.6335628 14.8949587,39.6335628 L14.8949587,39.4418814 L12.7721606,39.4418814 L12.7721606,39.6335628 C13.2151881,39.6335628 13.4573899,39.8428991 13.4573899,40.3170584 L13.4573899,43.8344124 C13.4573899,44.3085717 13.2151881,44.5194212 12.7721606,44.5194212 L12.7721606,44.7095894 L14.8949587,44.7095894 L14.8949587,44.5194212 C14.4519312,44.5194212 14.2112431,44.3085717 14.2112431,43.8344124 L14.2112431,40.3170584 Z" id="Fill-24" fill="#A6A8AB" mask="url(#mask-2)"></path>
                    <path d="M17.6866881,39.6336133 L17.6866881,39.4419319 L15.7561376,39.4419319 L15.7561376,39.6336133 C15.9897615,39.6336133 16.236,39.7839319 16.3999908,40.1809142 C16.5644862,40.5763832 18.302789,44.7928699 18.302789,44.7928699 L18.4264128,44.7928699 C18.4264128,44.7928699 19.9467339,40.5506575 20.0829725,40.1809142 C20.2202202,39.8111708 20.4528349,39.6336133 20.6708165,39.6336133 L20.6708165,39.4419319 L19.1797615,39.4419319 L19.1797615,39.6336133 C19.5082477,39.6336133 19.6858624,39.8111708 19.6858624,40.0432062 C19.6858624,40.1123124 19.6671927,40.1864628 19.6444862,40.2495159 C19.6157248,40.3297195 18.5364128,43.3557637 18.5364128,43.3557637 C18.5364128,43.3557637 17.2608165,40.2984451 17.2239817,40.2051265 C17.1952202,40.1350115 17.1810917,40.0462327 17.1810917,39.9675425 C17.1810917,39.7597195 17.3556789,39.6336133 17.6866881,39.6336133" id="Fill-25" fill="#A6A8AB" mask="url(#mask-2)"></path>
                    <path d="M0,37.923008 C0.576238532,37.923008 0.875458716,38.2095212 0.875458716,39.0302204 L0.875458716,42.2883 C0.875458716,43.9342381 1.78018349,44.8068929 3.355,44.8068929 C4.70931193,44.8068929 5.74977064,43.9846805 5.74977064,42.3972558 L5.74977064,38.8400522 C5.74977064,38.2927513 5.91477064,37.923008 6.57073394,37.923008 L6.57073394,37.7308221 L4.49133028,37.7308221 L4.49133028,37.923008 C5.07917431,37.923008 5.32591743,38.1837956 5.34004587,38.8945301 C5.35266055,39.6062735 5.39454128,41.4676009 5.39454128,42.5763265 C5.39454128,43.6835389 4.6003211,44.3816628 3.51848624,44.3816628 C2.47954128,44.3816628 1.65655963,43.7657602 1.65655963,42.4658575 L1.65655963,38.8254239 C1.65655963,38.2882115 1.86293578,37.923008 2.47954128,37.923008 L2.47954128,37.7308221 L0,37.7308221 L0,37.923008 Z" id="Fill-26" fill="#A6A8AB" mask="url(#mask-2)"></path>
                    <path d="M9.99344954,39.4417301 L9.99344954,39.6334115 C10.4046881,39.6334115 10.6499174,39.948677 10.6499174,40.4273761 L10.6499174,43.1981814 L7.91253211,39.4417301 L6.72170642,39.4417301 L6.72170642,39.6334115 C6.95533028,39.6334115 7.14555963,39.7423673 7.24294495,39.8654469 C7.2530367,39.8800752 7.30753211,39.9532168 7.39381651,40.0677212 L7.39381651,43.6022257 C7.39381651,44.2040044 7.18744037,44.5192699 6.70858716,44.5192699 L6.70858716,44.7094381 L8.39289908,44.7094381 L8.39289908,44.5192699 C7.98115596,44.5192699 7.73491743,44.2453673 7.73491743,43.7656593 L7.73491743,40.5302788 C8.73097248,41.8760841 10.8835413,44.7926681 10.8835413,44.7926681 L10.9920275,44.7926681 L10.9920275,40.5504558 C10.9920275,39.8800752 11.2660183,39.6334115 11.6772569,39.6334115 L11.6772569,39.4417301 L9.99344954,39.4417301 Z" id="Fill-27" fill="#A6A8AB" mask="url(#mask-2)"></path>
                    <path d="M16.0270505,55.3574416 C17.4414083,55.3574416 18.0867752,54.5150522 18.0867752,53.326123 C18.0867752,52.1382027 17.4414083,51.2958133 16.0270505,51.2958133 L15.4467752,51.2958133 L15.4467752,55.3574416 L16.0270505,55.3574416 Z M14.136867,50.1442115 L16.0931514,50.1442115 C18.0494358,50.1442115 19.4451239,51.4446186 19.4451239,53.326123 C19.4451239,55.2086363 18.0590229,56.5095478 16.0931514,56.5095478 L14.136867,56.5095478 L14.136867,50.1442115 Z" id="Fill-28" fill="#A6A8AB" mask="url(#mask-2)"></path>
                    <path d="M20.6274725,52.5222717 L21.8914633,52.5222717 L21.8727936,53.2430947 C22.1624266,52.5878469 22.6311881,52.4380327 23.0439404,52.4380327 C23.3063257,52.4380327 23.5026101,52.5121832 23.661555,52.5964221 L23.2588945,53.7485283 C23.099445,53.6728646 22.9495826,53.6269619 22.7714633,53.6269619 C22.2012798,53.6269619 21.8914633,53.8887584 21.8914633,54.739723 L21.8914633,56.5092451 L20.6274725,56.5092451 L20.6274725,52.5222717 Z" id="Fill-29" fill="#A6A8AB" mask="url(#mask-2)"></path>
                    <path d="M24.8125688,56.5091947 L26.0765596,56.5091947 L26.0765596,52.5222212 L24.8125688,52.5222212 L24.8125688,56.5091947 Z M24.6445413,51.0624159 C24.6445413,50.6023805 25.018945,50.2760177 25.450367,50.2760177 C25.8802752,50.2760177 26.2455963,50.6023805 26.2455963,51.0624159 C26.2455963,51.5295133 25.8802752,51.8573894 25.450367,51.8573894 C25.018945,51.8573894 24.6445413,51.5295133 24.6445413,51.0624159 Z" id="Fill-30" fill="#A6A8AB" mask="url(#mask-2)"></path>
                    <path d="M27.1728257,52.5222717 L28.5675046,52.5222717 L29.1291101,53.7112009 C29.3168165,54.1137319 29.4570917,54.7689796 29.4570917,54.7689796 C29.4570917,54.7689796 29.5877798,54.1137319 29.7653945,53.7112009 L30.3083303,52.5222717 L31.5909908,52.5222717 L29.4570917,56.5939885 L29.3354862,56.5939885 L27.1728257,52.5222717 Z" id="Fill-31" fill="#A6A8AB" mask="url(#mask-2)"></path>
                    <path d="M35.3102523,54.1697735 C35.2532339,53.729915 34.9721789,53.4676142 34.4761697,53.4676142 C33.9801606,53.4676142 33.6436009,53.6910743 33.5401606,54.1697735 L35.3102523,54.1697735 Z M34.5891972,55.5453398 C35.047867,55.5453398 35.3935092,55.3677823 35.5913073,55.2270478 L36.3118578,56.0038619 C35.927867,56.3403133 35.4409404,56.5940389 34.607867,56.5940389 C33.1849312,56.5940389 32.266078,55.7329858 32.266078,54.5062248 C32.266078,53.2986319 33.2308486,52.4375788 34.4675917,52.4375788 C35.8991055,52.4375788 36.6776835,53.5049416 36.5828211,54.8991717 L33.5588303,54.8991717 C33.6809404,55.3117912 34.0175,55.5453398 34.5891972,55.5453398 Z" id="Fill-32" fill="#A6A8AB" mask="url(#mask-2)"></path>
                    <path d="M37.9130138,52.5222717 L39.1770046,52.5222717 L39.1482431,53.177015 C39.3919587,52.6998292 39.8607202,52.4380327 40.4122339,52.4380327 C41.283656,52.4380327 41.9113624,53.073608 41.9113624,54.2070504 L41.9113624,56.5092451 L40.6473716,56.5092451 L40.6473716,54.2902805 C40.6473716,53.8418469 40.4309037,53.5896345 39.9823257,53.5896345 C39.4767294,53.5896345 39.1770046,53.8700947 39.1770046,54.3745195 L39.1770046,56.5092451 L37.9130138,56.5092451 L37.9130138,52.5222717 Z" id="Fill-33" fill="#A6A8AB" mask="url(#mask-2)"></path>
                    <path d="M46.2640826,55.012415 L46.2640826,53.5697602 L45.6752294,53.5697602 L45.6752294,52.5220699 L46.2640826,52.5220699 L46.2640826,50.4433354 L47.5194954,50.4433354 L47.5194954,52.5220699 L48.5397706,52.5220699 L48.5397706,53.5697602 L47.5194954,53.5697602 L47.5194954,55.0497425 C47.5194954,55.4522735 47.6501835,55.5355035 47.8474771,55.5355035 C48.0523394,55.5355035 48.203211,55.4235212 48.2874771,55.3675301 L48.7648165,56.2472469 C48.5685321,56.4061407 48.2314679,56.6124504 47.6501835,56.6124504 C46.8443578,56.6124504 46.2640826,56.2099195 46.2640826,55.012415" id="Fill-34" fill="#A6A8AB" mask="url(#mask-2)"></path>
                    <path d="M52.7907156,54.5251912 C52.7907156,53.9264389 52.454156,53.523908 51.8920459,53.523908 C51.3299358,53.523908 50.9832844,53.9264389 50.9832844,54.5251912 C50.9832844,55.1138549 51.3299358,55.5264743 51.8920459,55.5264743 C52.454156,55.5264743 52.7907156,55.1138549 52.7907156,54.5251912 M49.6920459,54.5251912 C49.6920459,53.3070053 50.6553028,52.4378814 51.8920459,52.4378814 C53.1272752,52.4378814 54.0834679,53.3070053 54.0834679,54.5251912 C54.0834679,55.7327841 53.1272752,56.5938372 51.8920459,56.5938372 C50.6553028,56.5938372 49.6920459,55.7327841 49.6920459,54.5251912" id="Fill-35" fill="#A6A8AB" mask="url(#mask-2)"></path>
                    <path d="M60.0022752,55.3574416 C61.4156239,55.3574416 62.062,54.5150522 62.062,53.326123 C62.062,52.1382027 61.4156239,51.2958133 60.0022752,51.2958133 L59.4204862,51.2958133 L59.4204862,55.3574416 L60.0022752,55.3574416 Z M58.110578,50.1442115 L60.0668624,50.1442115 C62.0246606,50.1442115 63.4188349,51.4446186 63.4188349,53.326123 C63.4188349,55.2086363 62.0332385,56.5095478 60.0668624,56.5095478 L58.110578,56.5095478 L58.110578,50.1442115 Z" id="Fill-36" fill="#A6A8AB" mask="url(#mask-2)"></path>
                    <path d="M64.8707339,56.5091947 L66.1347248,56.5091947 L66.1347248,52.5222212 L64.8707339,52.5222212 L64.8707339,56.5091947 Z M64.7016972,51.0624159 C64.7016972,50.6023805 65.0755963,50.2760177 65.5070183,50.2760177 C65.9384404,50.2760177 66.3022477,50.6023805 66.3022477,51.0624159 C66.3022477,51.5295133 65.9384404,51.8573894 65.5070183,51.8573894 C65.0755963,51.8573894 64.7016972,51.5295133 64.7016972,51.0624159 Z" id="Fill-37" fill="#A6A8AB" mask="url(#mask-2)"></path>
                    <path d="M67.3515367,55.8345265 L68.0912615,55.1797832 C68.3632339,55.4420841 68.7088761,55.6009779 69.084289,55.6009779 C69.4955275,55.6009779 69.6272248,55.5268274 69.6272248,55.3573407 C69.6272248,55.1424558 69.373922,55.1424558 68.7275459,54.9734735 C68.1841055,54.8332434 67.5765826,54.533615 67.5765826,53.7013142 C67.5765826,52.8029336 68.2688761,52.4377301 69.1216284,52.4377301 C69.7765826,52.4377301 70.2448394,52.652615 70.5733257,52.9890664 L69.8981881,53.7114027 C69.7104817,53.5509956 69.4299312,53.4102611 69.1302064,53.4102611 C68.8405734,53.4102611 68.7002982,53.4864292 68.7002982,53.645323 C68.7002982,53.8702965 68.9525917,53.8975354 69.4955275,54.0191018 C70.0758028,54.1512611 70.8069495,54.4221372 70.8069495,55.2645265 C70.8069495,55.9949336 70.4229587,56.5936858 69.1690596,56.5936858 C68.2416284,56.5936858 67.6981881,56.247146 67.3515367,55.8345265" id="Fill-38" fill="#A6A8AB" mask="url(#mask-2)"></path>
                    <path d="M71.9117936,54.506477 C71.9117936,53.2983796 72.8478028,52.437831 74.0931239,52.437831 C74.889867,52.437831 75.3656927,52.7273708 75.7688578,53.2328044 L74.8696835,53.9637159 C74.7208303,53.7200788 74.4115183,53.5420168 74.0931239,53.5420168 C73.5229404,53.5420168 73.2030321,53.9450522 73.2030321,54.506477 C73.2030321,55.0865655 73.5229404,55.4976717 74.0931239,55.4976717 C74.4957844,55.4976717 74.7107385,55.3115389 74.898445,55.1238929 L75.7496835,55.8729637 C75.3571147,56.3133265 74.889867,56.5937867 74.0931239,56.5937867 C72.8478028,56.5937867 71.9117936,55.7327336 71.9117936,54.506477" id="Fill-39" fill="#A6A8AB" mask="url(#mask-2)"></path>
                    <path d="M79.8516743,54.5251912 C79.8516743,53.9264389 79.5151147,53.523908 78.9530046,53.523908 C78.3908945,53.523908 78.0442431,53.9264389 78.0442431,54.5251912 C78.0442431,55.1138549 78.3908945,55.5264743 78.9530046,55.5264743 C79.5151147,55.5264743 79.8516743,55.1138549 79.8516743,54.5251912 M76.7514908,54.5251912 C76.7514908,53.3070053 77.7162615,52.4378814 78.9530046,52.4378814 C80.1882339,52.4378814 81.1444266,53.3070053 81.1444266,54.5251912 C81.1444266,55.7327841 80.1882339,56.5938372 78.9530046,56.5938372 C77.7162615,56.5938372 76.7514908,55.7327841 76.7514908,54.5251912" id="Fill-40" fill="#A6A8AB" mask="url(#mask-2)"></path>
                    <path d="M81.8192615,52.5222717 L83.2139404,52.5222717 L83.7755459,53.7112009 C83.9637569,54.1137319 84.1025183,54.7689796 84.1025183,54.7689796 C84.1025183,54.7689796 84.2342156,54.1137319 84.4118303,53.7112009 L84.9547661,52.5222717 L86.2374266,52.5222717 L84.1025183,56.5939885 L83.9824266,56.5939885 L81.8192615,52.5222717 Z" id="Fill-41" fill="#A6A8AB" mask="url(#mask-2)"></path>
                    <path d="M89.9554771,54.1697735 C89.8999725,53.729915 89.6184128,53.4676142 89.1229083,53.4676142 C88.6268991,53.4676142 88.2883211,53.6910743 88.1868991,54.1697735 L89.9554771,54.1697735 Z M89.234422,55.5453398 C89.6946055,55.5453398 90.0397431,55.3677823 90.2365321,55.2270478 L90.9570826,56.0038619 C90.5746055,56.3403133 90.0871743,56.5940389 89.2530917,56.5940389 C87.830156,56.5940389 86.9128165,55.7329858 86.9128165,54.5062248 C86.9128165,53.2986319 87.8775872,52.4375788 89.1128165,52.4375788 C90.545844,52.4375788 91.3229083,53.5049416 91.2295596,54.8991717 L88.2055688,54.8991717 C88.3261651,55.3117912 88.6637339,55.5453398 89.234422,55.5453398 Z" id="Fill-42" fill="#A6A8AB" mask="url(#mask-2)"></path>
                    <path d="M92.5597018,52.5222717 L93.8236927,52.5222717 L93.8050229,53.2430947 C94.0941514,52.5878469 94.5634174,52.4380327 94.9741514,52.4380327 C95.2365367,52.4380327 95.4328211,52.5121832 95.5922706,52.5964221 L95.1896101,53.7485283 C95.0301606,53.6728646 94.8813073,53.6269619 94.7036927,53.6269619 C94.1314908,53.6269619 93.8236927,53.8887584 93.8236927,54.739723 L93.8236927,56.5092451 L92.5597018,56.5092451 L92.5597018,52.5222717 Z" id="Fill-43" fill="#A6A8AB" mask="url(#mask-2)"></path>
                    <path d="M96.217,53.3675867 L96.3936055,53.2732593 C96.4879633,53.4407283 96.6257156,53.5854982 96.9062661,53.5854982 C97.1383761,53.5854982 97.3205321,53.4548522 97.3205321,53.2440027 C97.3205321,53.0422327 97.1943853,52.9388257 96.9446147,52.8273478 L96.7861743,52.7542062 C96.5020917,52.6255779 96.3461743,52.4878699 96.3461743,52.2084186 C96.3461743,51.920392 96.5722294,51.7297195 96.8719541,51.7297195 C97.1383761,51.7297195 97.3058991,51.8533035 97.412367,52.0293478 L97.2413119,52.135277 C97.1656239,52.0121973 97.0596606,51.9173655 96.8719541,51.9173655 C96.6756697,51.9173655 96.5550734,52.0323743 96.5550734,52.2028699 C96.5550734,52.3789142 96.6479174,52.4576044 96.8719541,52.5610115 L97.0293853,52.6336487 C97.3624128,52.7799319 97.5324587,52.9448788 97.5324587,53.2440027 C97.5324587,53.5723832 97.270578,53.7731442 96.9133303,53.7731442 C96.5308532,53.7731442 96.3229633,53.5779319 96.217,53.3675867" id="Fill-44" fill="#A6A8AB" mask="url(#mask-2)"></path>
                    <path d="M97.9638303,51.7299212 L97.9925917,51.7299212 L98.9200229,52.8890894 L99.8413991,51.7299212 L99.8741972,51.7299212 L99.8741972,53.7486292 L99.6693349,53.7486292 L99.6693349,52.4320805 C99.6693349,52.3402752 99.6779128,52.2025673 99.6779128,52.2025673 C99.6779128,52.2025673 99.600711,52.3317 99.5361239,52.4103903 L98.9326376,53.1740894 L98.8973165,53.1740894 L98.3008945,52.4103903 C98.2363073,52.3317 98.1575917,52.2025673 98.1575917,52.2025673 C98.1575917,52.2025673 98.1686927,52.3402752 98.1686927,52.4320805 L98.1686927,53.7486292 L97.9638303,53.7486292 L97.9638303,51.7299212 Z" id="Fill-45" fill="#A6A8AB" mask="url(#mask-2)"></path>
                    <path d="M0.0909266055,23.4437469 C0.0909266055,21.5536673 1.5486789,20.1705345 3.38436697,20.1705345 C4.54088073,20.1705345 5.36941284,20.5846673 5.94262385,21.4780035 L4.93647706,22.1927735 C4.63574312,21.7034814 4.1180367,21.3559327 3.38436697,21.3559327 C2.22633945,21.3559327 1.44523853,22.249269 1.44523853,23.4437469 C1.44523853,24.6382248 2.22633945,25.5507292 3.38436697,25.5507292 C4.21138532,25.5507292 4.67308257,25.1557646 5.02982569,24.609977 L6.05565138,25.3156673 C5.5006055,26.1807558 4.61707339,26.7265434 3.38436697,26.7265434 C1.5486789,26.7265434 0.0909266055,25.334331 0.0909266055,23.4437469" id="Fill-46" fill="#A6A8AB" mask="url(#mask-2)"></path>
                    <path d="M11.9962569,23.4437469 C11.9962569,22.249269 11.2060734,21.3367646 10.0399725,21.3367646 C8.87185321,21.3367646 8.08217431,22.249269 8.08217431,23.4437469 C8.08217431,24.6382248 8.87185321,25.5507292 10.0399725,25.5507292 C11.2060734,25.5507292 11.9962569,24.6382248 11.9962569,23.4437469 M6.7273578,23.4437469 C6.7273578,21.5536673 8.19570642,20.1609504 10.0399725,20.1609504 C11.8832294,20.1609504 13.3505688,21.5536673 13.3505688,23.4437469 C13.3505688,25.334331 11.8832294,26.7265434 10.0399725,26.7265434 C8.19570642,26.7265434 6.7273578,25.334331 6.7273578,23.4437469" id="Fill-47" fill="#A6A8AB" mask="url(#mask-2)"></path>
                    <polygon id="Fill-48" fill="#A6A8AB" mask="url(#mask-2)" points="14.4748394 20.2459965 15.7913073 20.2459965 15.7913073 25.4849522 18.6901606 25.4849522 18.6901606 26.6421027 14.4748394 26.6421027"></polygon>
                    <polygon id="Fill-49" fill="#A6A8AB" mask="url(#mask-2)" points="19.7555459 20.2459965 21.0730229 20.2459965 21.0730229 25.4849522 23.9703624 25.4849522 23.9703624 26.6421027 19.7555459 26.6421027"></polygon>
                    <polygon id="Fill-50" fill="#A6A8AB" mask="url(#mask-2)" points="25.0367064 20.2459965 29.2712018 20.2459965 29.2712018 21.4026425 26.3536789 21.4026425 26.3536789 23.4344655 28.9220275 23.4344655 28.9220275 24.5638726 26.3536789 24.5638726 26.3536789 25.4849522 29.4018899 25.4849522 29.4018899 26.6421027 25.0367064 26.6421027"></polygon>
                    <path d="M30.3193303,23.4437469 C30.3193303,21.5536673 31.6544679,20.1705345 33.5835046,20.1705345 C34.6274954,20.1705345 35.3798349,20.4535168 35.9071284,21.0547912 L35.0145138,21.9390478 C34.6930917,21.6101628 34.3262569,21.3559327 33.5835046,21.3559327 C32.4259817,21.3559327 31.6731376,22.249269 31.6731376,23.4437469 C31.6731376,24.6382248 32.4446514,25.5507292 33.7903853,25.5507292 C34.2046514,25.5507292 34.7127706,25.4755699 35.0417615,25.3156673 L35.0417615,24.374915 L33.4987339,24.374915 L33.4987339,23.2177646 L36.2457064,23.2177646 L36.2457064,25.9830212 C35.8793761,26.2841628 34.9569908,26.7265434 33.7903853,26.7265434 C31.7013945,26.7265434 30.3193303,25.334331 30.3193303,23.4437469" id="Fill-51" fill="#A6A8AB" mask="url(#mask-2)"></path>
                    <polygon id="Fill-52" fill="#A6A8AB" mask="url(#mask-2)" points="37.4921881 20.2459965 41.7256743 20.2459965 41.7256743 21.4026425 38.8091606 21.4026425 38.8091606 23.4344655 41.3775092 23.4344655 41.3775092 24.5638726 38.8091606 24.5638726 38.8091606 25.4849522 41.8578761 25.4849522 41.8578761 26.6421027 37.4921881 26.6421027"></polygon>
                    <path d="M50.2160092,23.4437469 C50.2160092,22.249269 49.4263303,21.3367646 48.2597248,21.3367646 C47.0931193,21.3367646 46.3029358,22.249269 46.3029358,23.4437469 C46.3029358,24.6382248 47.0931193,25.5507292 48.2597248,25.5507292 C49.4263303,25.5507292 50.2160092,24.6382248 50.2160092,23.4437469 M44.9476147,23.4437469 C44.9476147,21.5536673 46.4149541,20.1609504 48.2597248,20.1609504 C50.1034862,20.1609504 51.5718349,21.5536673 51.5718349,23.4437469 C51.5718349,25.334331 50.1034862,26.7265434 48.2597248,26.7265434 C46.4149541,26.7265434 44.9476147,25.334331 44.9476147,23.4437469" id="Fill-53" fill="#A6A8AB" mask="url(#mask-2)"></path>
                    <polygon id="Fill-54" fill="#A6A8AB" mask="url(#mask-2)" points="52.6953486 20.2459965 56.8158073 20.2459965 56.8158073 21.4026425 54.0123211 21.4026425 54.0123211 23.5187044 56.562 23.5187044 56.562 24.695023 54.0123211 24.695023 54.0123211 26.6421027 52.6953486 26.6421027"></polygon>
                    <path d="M61.7399725,24.027215 C62.8132294,24.027215 63.2845138,23.5944186 63.2845138,22.719746 C63.2845138,21.8354894 62.7945596,21.4026929 61.7399725,21.4026929 L61.3272202,21.4026929 L61.3272202,24.027215 L61.7399725,24.027215 Z M60.0102477,20.2460469 L61.7788257,20.2460469 C63.566578,20.2460469 64.6393303,21.1767106 64.6393303,22.719746 C64.6393303,24.262277 63.5564862,25.1838611 61.7788257,25.1838611 L61.3272202,25.1838611 L61.3272202,26.6421531 L60.0102477,26.6421531 L60.0102477,20.2460469 Z" id="Fill-55" fill="#A6A8AB" mask="url(#mask-2)"></path>
                    <polygon id="Fill-56" fill="#A6A8AB" mask="url(#mask-2)" points="65.6675275 20.2459965 66.9845 20.2459965 66.9845 23.5187044 69.7228945 23.5187044 69.7228945 20.2459965 71.039867 20.2459965 71.039867 26.6421027 69.7228945 26.6421027 69.7228945 24.695023 66.9845 24.695023 66.9845 26.6421027 65.6675275 26.6421027"></polygon>
                    <path d="M75.6072385,24.817346 L75.1455413,23.7071071 C74.9573303,23.2561513 74.7600367,22.5600451 74.7600367,22.5600451 C74.7600367,22.5600451 74.5718257,23.2561513 74.3836147,23.7071071 L73.922422,24.817346 L75.6072385,24.817346 Z M74.7221927,20.1892487 L74.8357248,20.1892487 L77.7613211,26.6418504 L76.3782477,26.6418504 L76.0775138,25.9174965 L73.4804037,25.9174965 L73.1791651,26.6418504 L71.9096239,26.6418504 L74.7221927,20.1892487 Z" id="Fill-57" fill="#A6A8AB" mask="url(#mask-2)"></path>
                    <path d="M80.361156,23.9050434 C81.4344128,23.9050434 81.9046881,23.5660699 81.9046881,22.6631496 C81.9046881,21.7607336 81.4152385,21.4030965 80.361156,21.4030965 L79.9478991,21.4030965 L79.9478991,23.9050434 L80.361156,23.9050434 Z M83.3533578,26.6420522 L81.8284954,26.6420522 L80.775422,25.0238575 C80.6533119,25.0420168 80.5216147,25.0516009 80.4000092,25.0516009 L79.9478991,25.0516009 L79.9478991,26.6420522 L78.6299174,26.6420522 L78.6299174,20.245946 L80.4000092,20.245946 C82.1867523,20.245946 83.2600092,21.1024593 83.2600092,22.6631496 C83.2600092,23.6603973 82.8174862,24.2899195 82.0262936,24.6480611 L83.3533578,26.6420522 Z" id="Fill-58" fill="#A6A8AB" mask="url(#mask-2)"></path>
                    <path d="M84.4104174,20.1799673 L84.5138578,20.1799673 L87.6660138,23.6413301 L90.7707385,20.1799673 L90.8832615,20.1799673 L90.8832615,26.6421531 L89.6137202,26.6421531 L89.6137202,24.2431088 C89.6137202,23.8103124 89.6606468,23.1242947 89.6606468,23.1242947 C89.6606468,23.1242947 89.2756468,23.6882416 88.9744083,24.027215 L87.7028486,25.4471708 L87.5812431,25.4471708 L86.3117018,24.027215 C86.0104633,23.6882416 85.6249587,23.1242947 85.6249587,23.1242947 C85.6249587,23.1242947 85.6708761,23.8103124 85.6708761,24.2431088 L85.6708761,26.6421531 L84.4104174,26.6421531 L84.4104174,20.1799673 Z" id="Fill-59" fill="#A6A8AB" mask="url(#mask-2)"></path>
                    <path d="M95.4507339,24.817346 L94.9900459,23.7071071 C94.8018349,23.2561513 94.6045413,22.5600451 94.6045413,22.5600451 C94.6045413,22.5600451 94.4158257,23.2561513 94.2281193,23.7071071 L93.7674312,24.817346 L95.4507339,24.817346 Z M94.5666972,20.1892487 L94.6802294,20.1892487 L97.6063303,26.6418504 L96.2227523,26.6418504 L95.9220183,25.9174965 L93.3254128,25.9174965 L93.0241743,26.6418504 L91.7536239,26.6418504 L94.5666972,20.1892487 Z" id="Fill-60" fill="#A6A8AB" mask="url(#mask-2)"></path>
                    <path d="M97.6933211,23.4437469 C97.6933211,21.5536673 99.151578,20.1705345 100.986257,20.1705345 C102.14378,20.1705345 102.972312,20.5846673 103.545523,21.4780035 L102.539376,22.1927735 C102.237633,21.7034814 101.720936,21.3559327 100.986257,21.3559327 C99.8292385,21.3559327 99.0486422,22.249269 99.0486422,23.4437469 C99.0486422,24.6382248 99.8292385,25.5507292 100.986257,25.5507292 C101.814284,25.5507292 102.274972,25.1557646 102.632725,24.609977 L103.65855,25.3156673 C103.102495,26.1807558 102.218963,26.7265434 100.986257,26.7265434 C99.151578,26.7265434 97.6933211,25.334331 97.6933211,23.4437469" id="Fill-61" fill="#A6A8AB" mask="url(#mask-2)"></path>
                    <path d="M106.315606,24.609977 L103.887532,20.2461982 L105.346294,20.2461982 L106.476064,22.3057646 C106.71978,22.7577292 106.992761,23.5184018 106.992761,23.5184018 C106.992761,23.5184018 107.247578,22.7663044 107.491798,22.3057646 L108.573128,20.2461982 L109.918862,20.2461982 L107.642165,24.516154 L107.642165,26.6418 L106.315606,26.6418 L106.315606,24.609977 Z" id="Fill-62" fill="#A6A8AB" mask="url(#mask-2)"></path>
                </g>
            </g>
        </g>
    </g>
</svg>