<svg viewBox="0 0 39 50" xmlns="http://www.w3.org/2000/svg">
  <g fill="none" fill-rule="evenodd">
    <path d="M11.36 5.592c0-.575.47-1.042 1.046-1.042h4.973c.403 0 .73-.325.73-.726a2.379 2.379 0 0 1 2.38-2.371 2.379 2.379 0 0 1 2.382 2.37c0 .402.327.727.73.727h4.972c.577 0 1.046.467 1.046 1.042v4.93a1.042 1.042 0 0 1-1.046 1.042H12.406a1.045 1.045 0 0 1-1.046-1.042v-4.93z" fill="#5F63B8" fill-rule="nonzero"/>
    <path d="M13.325 9.081c.403 0 .73-.325.73-.726V7.244a.728.728 0 0 0-.73-.727.728.728 0 0 0-.73.727v1.11c0 .402.327.727.73.727M25.655 9.081c.402 0 .729-.325.729-.726V7.244a.728.728 0 0 0-.73-.727.728.728 0 0 0-.729.727v1.11c0 .402.327.727.73.727M19.49 9.674c.803 0 1.558-.335 2.07-.919a.724.724 0 0 0-.069-1.024.732.732 0 0 0-1.029.068c-.235.269-.59.422-.972.422-.383 0-.737-.153-.973-.422a.732.732 0 0 0-1.029-.068.724.724 0 0 0-.07 1.025 2.748 2.748 0 0 0 2.072.918M12.603 18.954a.305.305 0 0 1-.306.304h-1.631a.305.305 0 0 1-.306-.304v-1.625c0-.167.138-.304.306-.304h1.631c.169 0 .306.137.306.304v1.625zm-.306-3.382h-1.631c-.973 0-1.764.789-1.764 1.757v1.624c0 .97.791 1.757 1.764 1.757h1.631c.973 0 1.764-.788 1.764-1.757V17.33c0-.968-.791-1.757-1.764-1.757zM29.348 17.415H19.49a.728.728 0 0 0-.73.726c0 .402.327.727.73.727h9.858a.728.728 0 0 0 0-1.453M12.603 25.593a.305.305 0 0 1-.306.305h-1.631a.305.305 0 0 1-.306-.305V23.97c0-.167.138-.304.306-.304h1.631c.169 0 .306.137.306.304v1.624zm-.306-3.38h-1.631c-.973 0-1.764.788-1.764 1.756v1.624c0 .97.791 1.757 1.764 1.757h1.631c.973 0 1.764-.788 1.764-1.757V23.97c0-.968-.791-1.757-1.764-1.757zM29.348 24.055H19.49a.728.728 0 0 0-.73.726c0 .402.327.727.73.727h9.858a.728.728 0 0 0 0-1.453M12.603 32.233a.305.305 0 0 1-.306.305h-1.631a.305.305 0 0 1-.306-.305V30.61c0-.167.138-.304.306-.304h1.631c.169 0 .306.137.306.304v1.624zm-.306-3.38h-1.631c-.973 0-1.764.787-1.764 1.756v1.624c0 .97.791 1.757 1.764 1.757h1.631c.973 0 1.764-.788 1.764-1.757V30.61c0-.968-.791-1.757-1.764-1.757zM29.348 30.695H19.49a.728.728 0 0 0-.73.726c0 .402.327.727.73.727h9.858c.403 0 .73-.325.73-.727a.728.728 0 0 0-.73-.726M12.603 38.873a.305.305 0 0 1-.306.305h-1.631a.305.305 0 0 1-.306-.305V37.25c0-.168.138-.304.306-.304h1.631c.169 0 .306.136.306.304v1.624zm-.306-3.38h-1.631c-.973 0-1.764.787-1.764 1.756v1.624c0 .97.791 1.757 1.764 1.757h1.631c.973 0 1.764-.788 1.764-1.757V37.25c0-.969-.791-1.757-1.764-1.757zM29.348 37.335H19.49a.728.728 0 0 0-.73.726c0 .402.327.727.73.727h9.858a.728.728 0 0 0 0-1.453M19.49 2.828c.46 0 .834.372.834.831a.833.833 0 0 1-.834.832.833.833 0 0 1-.835-.832c0-.459.374-.83.835-.83" fill="#231F20"/>
    <path d="M10.36 5.592c0-.575.47-1.042 1.046-1.042h4.973c.403 0 .73-.325.73-.726a2.379 2.379 0 0 1 2.38-2.371 2.379 2.379 0 0 1 2.382 2.37c0 .402.327.727.73.727h4.972c.577 0 1.046.467 1.046 1.042v4.93a1.042 1.042 0 0 1-1.046 1.042H11.406a1.045 1.045 0 0 1-1.046-1.042v-4.93zm22.949 7.2v29.15c0 .85-.695 1.543-1.549 1.543H7.22a1.547 1.547 0 0 1-1.55-1.543v-29.15c0-.851.695-1.543 1.55-1.543h1.79l.002.005c.33 1.016 1.305 1.763 2.394 1.763h16.167a2.55 2.55 0 0 0 2.395-1.763l.002-.005h1.79c.854 0 1.549.692 1.549 1.542zM0 10.301v7.106c0 .4.327.726.73.726.402 0 .729-.325.729-.726v-7.106a3.077 3.077 0 0 1 3.08-3.067h4.363v2.561H7.219a3.005 3.005 0 0 0-3.008 2.995v29.151a3.005 3.005 0 0 0 3.008 2.995H31.76a3.005 3.005 0 0 0 3.008-2.995v-29.15a3.005 3.005 0 0 0-3.008-2.996h-1.682V7.235h4.362a3.077 3.077 0 0 1 3.08 3.067V36.68c0 .4.327.726.73.726.403 0 .73-.325.73-.726V10.302c0-2.493-2.037-4.52-4.54-4.52h-4.362v-.19a2.502 2.502 0 0 0-2.505-2.494H23.26A3.842 3.842 0 0 0 19.49 0a3.843 3.843 0 0 0-3.771 3.098h-4.313a2.502 2.502 0 0 0-2.504 2.494v.19H4.539C2.036 5.782 0 7.809 0 10.302z" fill="#231F20"/>
    <path d="M0 45.065c0 2.492 2.036 4.52 4.539 4.52H34.44c2.502 0 4.538-2.028 4.538-4.52v-5.48a.728.728 0 0 0-.73-.726.728.728 0 0 0-.729.726v5.48a3.077 3.077 0 0 1-3.08 3.067H4.54a3.077 3.077 0 0 1-3.08-3.067V20.313a.728.728 0 0 0-.73-.726.728.728 0 0 0-.729.726v24.752" fill="#231F20"/>
  </g>
</svg>
