<?xml version="1.0" encoding="UTF-8"?>
<svg width="78px" height="63px" viewBox="0 0 78 63" version="1.1" xmlns="http://www.w3.org/2000/svg" xmlns:xlink="http://www.w3.org/1999/xlink">
    <!-- Generator: Sketch 52.5 (67469) - http://www.bohemiancoding.com/sketch -->
    <title>Group 23</title>
    <desc>Created with Sketch.</desc>
    <g id="Set-2---Initial-Sign-In---Logged-In---Pick-Path---Overview---Single-Step" stroke="none" stroke-width="1" fill="none" fill-rule="evenodd">
        <g id="Pick-a-Path---step-2-" transform="translate(-1069.000000, -461.000000)">
            <g id="Group-6" transform="translate(170.000000, 441.000000)">
                <g id="Group-23" transform="translate(900.000000, 20.900000)">
                    <path d="M18.686414,46.6081171 L18.686414,5.40785333 C18.686414,2.62015333 20.9592649,0.338753333 23.7380193,0.338753333 L58.1408088,0.338753333 C60.9188877,0.338753333 63.192414,2.62015333 63.192414,5.40785333 L63.1762035,39.6410533 C63.1762035,42.4287533 60.9033526,44.7094756 58.1252737,44.7094756 L58.1408088,44.70812 L23.7380193,44.70812 C22.6100368,44.70812 21.5651333,45.0842867 20.722186,45.7173311 C19.4881596,46.6438533 18.686414,46.6081171 18.686414,46.6081171" id="Fill-1" fill="#5EB1EF"></path>
                    <path d="M23.6110368,55.4144333 L20.8674053,55.4144333 C18.0886509,55.4144333 15.8158,53.1337111 15.8158,50.3453333 L15.8158,6.08576667 C15.8158,3.29738889 18.0886509,1.01666667 20.8674053,1.01666667 L55.2701947,1.01666667 C58.0482737,1.01666667 60.3218,3.29738889 60.3218,6.08576667 L60.3218,50.3453333 C60.3218,53.1337111 58.0482737,55.4144333 55.2701947,55.4144333 L33.4048965,55.4144333" id="Stroke-3" stroke="#231F20" stroke-width="2.025" stroke-linecap="round" stroke-linejoin="round"></path>
                    <path d="M15.8158,50.4548622 C15.8158,47.6671622 18.0886509,45.3857622 20.8674053,45.3857622 L55.2701947,45.3857622 L55.2546596,45.3871178 C58.0327386,45.3871178 60.3055895,43.1063956 60.3055895,40.3186956" id="Stroke-5" stroke="#231F20" stroke-width="2.025" stroke-linecap="round" stroke-linejoin="round"></path>
                    <path d="M55.2702623,50.4694344 L55.2547272,50.47079 C58.0328061,50.47079 60.305657,48.1900678 60.305657,45.40169" id="Stroke-7" stroke="#231F20" stroke-width="2.025" stroke-linecap="round" stroke-linejoin="round"></path>
                    <polyline id="Fill-9" fill="#F77660" points="25.468493 50.7877867 25.468493 60.7850089 30.3660982 57.3934089 34.586914 60.7850089 34.586914 50.7877867"></polyline>
                    <path d="M20.8670675,50.4694344 L55.2705325,50.4694344" id="Stroke-11" stroke="#231F20" stroke-width="2.025" stroke-linecap="round" stroke-linejoin="round"></path>
                    <polyline id="Stroke-13" stroke="#231F20" stroke-width="2.025" stroke-linecap="round" stroke-linejoin="round" points="23.8643263 50.7877867 23.8643263 60.7850089 28.7619316 57.3934089 32.9827474 60.7850089 32.9827474 50.7877867"></polyline>
                    <path d="M3.80366491,56.7924911 C4.99986667,57.9921578 6.9377,57.9921578 8.13322632,56.7924911 C9.32875263,55.5928244 9.32875263,53.6476022 8.13322632,52.4486133 C6.9377,51.2482689 4.99986667,51.2482689 3.80366491,52.4486133 C2.6081386,53.6476022 2.6081386,55.5928244 3.80366491,56.7924911 Z" id="Stroke-15" stroke="#EAEAEA" stroke-width="2.025"></path>
                    <path d="M0.337449123,13.90983 L5.62680877,13.90983" id="Stroke-17" stroke="#EAEAEA" stroke-width="2.025" stroke-linecap="round"></path>
                    <path d="M2.98246667,11.2562622 L2.98246667,16.5632622" id="Stroke-19" stroke="#EAEAEA" stroke-width="2.025" stroke-linecap="round"></path>
                    <path d="M76.5096316,18.0280756 C76.5096316,18.9376533 75.7747544,19.6750756 74.8683158,19.6750756 C73.9625526,19.6750756 73.2283509,18.9376533 73.2283509,18.0280756 C73.2283509,17.1191756 73.9625526,16.3817533 74.8683158,16.3817533 C75.7747544,16.3817533 76.5096316,17.1191756 76.5096316,18.0280756" id="Fill-21" fill="#EAEAEA"></path>
                </g>
            </g>
        </g>
    </g>
</svg>