<svg viewBox="0 0 110 81" width="106" xmlns="http://www.w3.org/2000/svg">
  <g fill="none" fill-rule="evenodd">
    <path d="M68.882 41h19.236C89.153 41 90 40.138 90 39.086v-6.172C90 31.862 89.153 31 88.118 31H68.882C67.847 31 67 31.862 67 32.914v6.172c0 1.052.847 1.914 1.882 1.914" fill="#5EB1EF"/>
    <path d="M63 28a7 7 0 1 1-14 0 7 7 0 1 1 14 0" fill="#5F63B8"/>
    <path d="M35 48.613s1.735.297 1.735 3.162c0 2.864 1.103-.137 1.24-.546.138-.41-.344-4.229-.344-4.229L35 48.613zM34 74.387s1.737-.297 1.737-3.161c0-2.865 1.1.135 1.238.545.138.409-.344 4.229-.344 4.229L34 74.387z" fill="#5EB1EF"/>
    <path d="M42.83 49h-8.66c-.643 0-1.17-.535-1.17-1.19v-2.62c0-.655.527-1.19 1.17-1.19h8.66c.643 0 1.17.535 1.17 1.19v2.62c0 .655-.527 1.19-1.17 1.19M42.83 79h-8.66c-.643 0-1.17-.535-1.17-1.19v-2.62c0-.655.527-1.19 1.17-1.19h8.66c.643 0 1.17.535 1.17 1.19v2.62c0 .655-.527 1.19-1.17 1.19" fill="#5EB1EF"/>
    <path d="M41.465 46c.643 2.75.965 5.5 1.208 8.25.225 2.75.33 5.5.327 8.25-.002 2.75-.107 5.5-.333 8.25-.245 2.75-.563 5.5-1.202 8.25h-3.93c-.64-2.75-.957-5.5-1.203-8.25-.225-2.75-.33-5.5-.332-8.25-.003-2.75.102-5.5.327-8.25.243-2.75.564-5.5 1.208-8.25h3.93zM56 48.613s1.736.297 1.736 3.162c0 2.864 1.101-.137 1.239-.546.138-.41-.344-4.229-.344-4.229L56 48.613zM56 74.387s1.736-.297 1.736-3.161c0-2.865 1.102.135 1.24.545.137.409-.345 4.229-.345 4.229L56 74.387z" fill="#5EB1EF"/>
    <path d="M64.83 49h-8.66c-.643 0-1.17-.535-1.17-1.19v-2.62c0-.655.527-1.19 1.17-1.19h8.66c.643 0 1.17.535 1.17 1.19v2.62c0 .655-.527 1.19-1.17 1.19M64.83 79h-8.66c-.643 0-1.17-.535-1.17-1.19v-2.62c0-.655.527-1.19 1.17-1.19h8.66c.643 0 1.17.535 1.17 1.19v2.62c0 .655-.527 1.19-1.17 1.19" fill="#5EB1EF"/>
    <path d="M62.464 46c.644 2.75.966 5.5 1.209 8.25.225 2.75.33 5.5.327 8.25-.003 2.75-.107 5.5-.333 8.25-.245 2.75-.564 5.5-1.203 8.25h-3.928c-.64-2.75-.958-5.5-1.203-8.25-.226-2.75-.33-5.5-.333-8.25-.003-2.75.102-5.5.327-8.25.243-2.75.564-5.5 1.209-8.25h3.928zM78 48.613s1.735.297 1.735 3.162c0 2.864 1.103-.137 1.24-.546.138-.41-.344-4.229-.344-4.229L78 48.613zM77 74.387s1.736-.297 1.736-3.161c0-2.865 1.101.135 1.24.545.137.409-.345 4.229-.345 4.229L77 74.387z" fill="#5EB1EF"/>
    <path d="M86.83 49h-8.66c-.643 0-1.17-.535-1.17-1.19v-2.62c0-.655.527-1.19 1.17-1.19h8.66c.643 0 1.17.535 1.17 1.19v2.62c0 .655-.527 1.19-1.17 1.19M86.83 79h-8.66c-.643 0-1.17-.535-1.17-1.19v-2.62c0-.655.527-1.19 1.17-1.19h8.66c.643 0 1.17.535 1.17 1.19v2.62c0 .655-.527 1.19-1.17 1.19" fill="#5EB1EF"/>
    <path d="M84.465 46c.643 2.75.965 5.5 1.208 8.25.225 2.75.33 5.5.327 8.25-.002 2.75-.107 5.5-.333 8.25-.244 2.75-.563 5.5-1.202 8.25h-3.93c-.64-2.75-.958-5.5-1.202-8.25-.226-2.75-.331-5.5-.333-8.25-.003-2.75.102-5.5.327-8.25.243-2.75.564-5.5 1.208-8.25h3.93z" fill="#5EB1EF"/>
    <path d="M106.088 9h-3.175a.91.91 0 0 1-.913-.9V2.9c0-.495.41-.9.913-.9h3.175c.502 0 .912.405.912.9v5.2c0 .495-.41.9-.912.9zM2 44.5a3.5 3.5 0 1 0 7 0 3.5 3.5 0 0 0-7 0z" stroke="#EAEAEA" stroke-width="2.4"/>
    <path d="M102 55h6M105 52v6" stroke="#EAEAEA" stroke-width="2.4" stroke-linecap="round"/>
    <path d="M15 71.5a2.5 2.5 0 1 1-5 .001 2.5 2.5 0 0 1 5-.001" fill="#EAEAEA"/>
    <path d="M31 74h-1.778c-.507-2.766-.77-4.563-.95-6.74-.112-1.089-.14-2.283-.204-3.372L28 60.572l.064-3.29c.068-1.089.09-1.922.203-3.01.18-2.175.445-4.613.955-6.272h.896M39 48c.416 1.659.635 4.083.781 6.26.093 1.087.11 2.042.166 3.13L40 60.586l-.057 3.23c-.054 1.088-.074 2.373-.167 3.46-.146 2.176-.363 3.958-.776 6.724M39.367 75H42v4H26v-4h7.155M33.588 48H26v-4h16v4h-2.632M52 74h-1.778c-.507-2.766-.77-4.563-.95-6.74-.112-1.089-.14-2.283-.204-3.372L49 60.572l.064-3.29c.068-1.089.089-1.922.202-3.01.18-2.175.446-4.613.956-6.272h.895M61 48c.416 1.659.634 4.083.78 6.26.093 1.087.11 2.042.167 3.13L62 60.586l-.057 3.23c-.054 1.088-.074 2.373-.167 3.46-.146 2.176-.363 3.958-.776 6.724M61.366 75H64v4H48v-4h7.155M55.588 48H48v-4h16v4h-2.632M74 74h-1.778c-.506-2.766-.77-4.563-.95-6.74-.113-1.089-.14-2.283-.204-3.372L71 60.572l.063-3.29c.068-1.089.09-1.922.203-3.01.18-2.175.446-4.613.956-6.272h.896M82 48c.417 1.659.634 4.083.78 6.26.093 1.087.111 2.042.167 3.13L83 60.586l-.057 3.23c-.053 1.088-.074 2.373-.167 3.46-.146 2.176-.363 3.958-.776 6.724M82.366 75H85v4H69v-4h7.156M76.589 48H69v-4h16v4h-2.633" stroke="#231F20" stroke-width="2.4" stroke-linecap="round" stroke-linejoin="round"/>
    <path d="M66.587 21.6l8.193 7.347c.585.771.286 1.97-.569 2.28h-.696c-1.363.493-1.05 2.773.381 2.773h13.849c1.321 0 1.743-2.018.562-2.69l-21.28-12.165c-1.223-.696-1.333 1.279-.44 2.456" fill="#5EB1EF"/>
    <path d="M59.974 15.737l25.925 13.999c.725.384 1.101 1.37 1.101 2.19v4.471c0 .82-.415 2.603-2.61 2.603H26.333c-.82 0-2.332-.95-2.332-2.603v-4.471c0-1.239 1.012-1.806 1.737-2.19l28.926-15.243V4" stroke="#231F20" stroke-width="2.4" stroke-linecap="round" stroke-linejoin="round"/>
    <path stroke="#231F20" stroke-width="2.4" stroke-linecap="round" stroke-linejoin="round" d="M25 31h8v4"/>
    <path stroke="#231F20" stroke-width="2.4" stroke-linecap="round" stroke-linejoin="round" d="M25 31h19v4M72 31h7v4"/>
    <path stroke="#231F20" stroke-width="2.4" stroke-linecap="round" stroke-linejoin="round" d="M74 31h-7v4"/>
    <path d="M58 11.927V6.074c0-.7.667-1.213 1.353-1.04l10.83 2.926c1.09.274 1.09 1.806 0 2.08l-10.83 2.926A1.082 1.082 0 0 1 58 11.926" fill="#F77660"/>
    <path d="M64.462 8.462h-.924v-.924a.539.539 0 0 0-1.076 0v.924h-.923a.54.54 0 0 0 0 1.076h.923v.924a.539.539 0 0 0 1.076 0v-.924h.924a.539.539 0 0 0 0-1.076" fill="#FFF"/>
    <path d="M67 31h19" stroke="#231F20" stroke-width="2.4" stroke-linecap="round" stroke-linejoin="round"/>
  </g>
</svg>
