<svg viewBox="0 0 42 42" xmlns="http://www.w3.org/2000/svg">
  <g fill="none" fill-rule="evenodd">
    <path fill="#5F63B8" fill-rule="nonzero" d="M21 12.385l2.692 4.307v4.846l-3.769 4.308L15.077 28l-7-1.615-2.692-2.154-1.077-4.846L14 18.846z"/>
    <g fill="#231F20">
      <path d="M34.535 6.645V2.8L39.2 7.465h-3.845a.821.821 0 0 1-.82-.82zm-24.52 6.652H1.677c.392-4.418 3.921-7.947 8.338-8.339v8.339zM41.76 7.704L34.295.24a.82.82 0 0 0-.58-.24H9.352A2.464 2.464 0 0 0 6.89 2.46v1.565C2.86 5.605 0 9.533 0 14.117c0 .453.367.82.82.82h10.016a.82.82 0 0 0 .82-.82V4.102a.82.82 0 0 0-.82-.82c-.791 0-1.562.085-2.305.247V2.46c0-.452.368-.82.82-.82h23.544v5.004a2.464 2.464 0 0 0 2.46 2.46h5.004V39.54c0 .452-.368.82-.82.82H9.352a.821.821 0 0 1-.82-.82v-7.027a.82.82 0 0 0-1.641 0v7.027A2.464 2.464 0 0 0 9.35 42H39.54A2.464 2.464 0 0 0 42 39.54V8.283a.82.82 0 0 0-.24-.58z"/>
      <path d="M7.131 28.951a.827.827 0 0 0-.24.58c0 .216.087.428.24.58.153.153.364.24.58.24a.826.826 0 0 0 .58-.24.826.826 0 0 0 .24-.58.826.826 0 0 0-.24-.58.826.826 0 0 0-.58-.24.826.826 0 0 0-.58.24M4.615 17.875h9.159a.818.818 0 0 0 .58-.24l6.473-6.473a9.154 9.154 0 0 1 2.142 5.893c0 5.07-4.125 9.195-9.195 9.195-4.794 0-8.743-3.687-9.159-8.375zm15.052-7.873l-5.073 5.073V7.896c1.92.171 3.673.935 5.073 2.106zm4.942 7.053c0-5.975-4.86-10.835-10.835-10.835a.82.82 0 0 0-.82.82v9.195H3.758a.82.82 0 0 0-.82.82c0 5.975 4.86 10.836 10.835 10.836 5.975 0 10.835-4.861 10.835-10.836zM28.69 36.25a.821.821 0 0 1-1.641 0 .821.821 0 0 1 1.64 0zm7.246-8.72a.821.821 0 0 1 0 1.64.821.821 0 0 1 0-1.64zm-14.548 3.281a.821.821 0 0 1 0-1.64.821.821 0 0 1 0 1.64zm-6.302 6.262a.821.821 0 0 1 0-1.64c.22 0 .42.087.567.229l.01.01.012.011a.821.821 0 0 1-.59 1.39zm8.763-7.082a2.464 2.464 0 0 0-2.46-2.461 2.464 2.464 0 0 0-2.235 3.491l-3.01 3.01a2.464 2.464 0 0 0-3.519 2.221 2.464 2.464 0 0 0 2.461 2.462 2.464 2.464 0 0 0 2.22-3.524l2.993-2.993a2.445 2.445 0 0 0 2.304-.067l3.05 3.05a2.464 2.464 0 0 0 2.216 3.53 2.464 2.464 0 0 0 2.227-3.507l4.682-4.682a2.464 2.464 0 0 0 3.619-2.17 2.464 2.464 0 0 0-2.461-2.462 2.464 2.464 0 0 0-2.267 3.42l-4.726 4.727a2.446 2.446 0 0 0-2.125-.011l-3.138-3.139c.109-.277.17-.58.17-.895zM27.506 20.918h4.33a.82.82 0 0 0 0-1.64h-4.33a.82.82 0 0 0 0 1.64M34.99 19.518a.827.827 0 0 0-.24.58c0 .215.088.427.24.58.153.152.364.24.58.24a.826.826 0 0 0 .58-.24.826.826 0 0 0 .24-.58.826.826 0 0 0-.24-.58.826.826 0 0 0-.58-.24.826.826 0 0 0-.58.24M27.506 13.043h10.02a.82.82 0 0 0 0-1.64h-10.02a.82.82 0 0 0 0 1.64M27.506 16.98h10.02a.82.82 0 0 0 0-1.64h-10.02a.82.82 0 0 0 0 1.64"/>
    </g>
  </g>
</svg>
