<svg viewBox="0 0 43 43" xmlns="http://www.w3.org/2000/svg">
  <g fill="none" fill-rule="evenodd">
    <path d="M16.125 36.55h25.263V39a4 4 0 0 1-4 4H13.687c1.625 0 2.438-2.15 2.438-6.45z" fill="#5F63B8" fill-rule="nonzero"/>
    <g fill="#231F20">
      <path d="M14.543 13.407c.135.134.317.21.507.21h.05a.716.716 0 0 0 .523-.287l4.3-5.733a.717.717 0 0 0-1.146-.86l-3.804 5.072-.85-.849a.717.717 0 0 0-1.013 1.013l1.433 1.434"/>
      <path d="M41.567 37.983a3.588 3.588 0 0 1-3.584 3.584H17.121a5 5 0 0 0 1.512-3.584v-2.15h22.934v2.15zm-31.534 0V5.017a5 5 0 0 0-1.512-3.584h22.296A3.588 3.588 0 0 1 34.4 5.017V34.4H17.917a.717.717 0 0 0-.717.717v2.866a3.583 3.583 0 0 1-7.167 0zm-8.6-23.65V5.017a3.583 3.583 0 1 1 7.167 0v9.316H1.433zM42.283 34.4h-6.45V5.017A5.022 5.022 0 0 0 30.817 0h-25.8A5.022 5.022 0 0 0 0 5.017V15.05c0 .396.32.717.717.717H8.6v22.216A5.022 5.022 0 0 0 13.617 43h24.366A5.022 5.022 0 0 0 43 37.983v-2.866a.717.717 0 0 0-.717-.717z"/>
      <path d="M22.217 11.467h8.6a.717.717 0 0 0 0-1.434h-8.6a.717.717 0 1 0 0 1.434M14.543 22.007c.135.134.317.21.507.21h.05a.717.717 0 0 0 .523-.287l4.3-5.733a.717.717 0 0 0-1.146-.86l-3.804 5.072-.85-.849a.717.717 0 0 0-1.013 1.013l1.433 1.434M22.217 20.067h8.6a.717.717 0 0 0 0-1.434h-8.6a.717.717 0 1 0 0 1.434M15.05 30.817h.05a.717.717 0 0 0 .523-.287l4.3-5.733a.717.717 0 0 0-1.146-.86l-3.804 5.072-.85-.849a.717.717 0 0 0-1.013 1.013l1.433 1.434c.135.134.317.21.507.21M22.217 28.667h8.6a.717.717 0 0 0 0-1.434h-8.6a.717.717 0 1 0 0 1.434"/>
    </g>
  </g>
</svg>
