<svg viewBox="0 0 99 92" width="97" xmlns="http://www.w3.org/2000/svg" xmlns:xlink="http://www.w3.org/1999/xlink">
  <defs>
    <path id="a" d="M.111.421h5.705v5.692H.111z"/>
  </defs>
  <g fill="none" fill-rule="evenodd">
    <path d="M75.637 87.964h-50c-2.597 0-4.722-2.12-4.722-4.712V26.217c0-2.592 2.125-4.713 4.723-4.713h49.999c2.597 0 4.722 2.121 4.722 4.713v57.035c0 2.592-2.125 4.712-4.722 4.712" fill="#F77660"/>
    <path d="M67.043 80.235H29.527c-2 0-3.636-1.634-3.636-3.63V28.734a3.643 3.643 0 0 1 3.636-3.63h37.516c2 0 3.637 1.633 3.637 3.63v47.871a3.644 3.644 0 0 1-3.637 3.63" fill="#FFF"/>
    <path d="M42.122 38.996a3.923 3.923 0 0 1-3.927 3.92 3.924 3.924 0 0 1-3.928-3.92 3.924 3.924 0 0 1 3.928-3.919 3.923 3.923 0 0 1 3.927 3.92M42.122 51.961a3.923 3.923 0 0 1-3.927 3.92 3.924 3.924 0 0 1-3.928-3.92 3.924 3.924 0 0 1 3.928-3.919 3.923 3.923 0 0 1 3.927 3.92M42.122 64.926a3.923 3.923 0 0 1-3.927 3.92 3.924 3.924 0 0 1-3.928-3.92 3.924 3.924 0 0 1 3.928-3.919 3.923 3.923 0 0 1 3.927 3.92" fill="#5EB1EF"/>
    <path d="M73.285 86.632h-50c-2.596 0-4.722-2.121-4.722-4.714V24.884c0-2.592 2.126-4.713 4.723-4.713h49.999c2.597 0 4.722 2.12 4.722 4.713v57.034c0 2.593-2.125 4.714-4.722 4.714z" stroke="#231F20" stroke-width="2.4" stroke-linecap="round" stroke-linejoin="round"/>
    <path d="M52.85 15.202a4.572 4.572 0 0 0-4.577-4.566h.024a4.572 4.572 0 0 0-4.576 4.566c0 1.271-1.031 2.3-2.305 2.3h-8.65a4.572 4.572 0 0 0-4.576 4.567 4.571 4.571 0 0 0 4.576 4.567h31.038a4.571 4.571 0 0 0 4.576-4.567 4.572 4.572 0 0 0-4.576-4.566h-8.65a2.303 2.303 0 0 1-2.305-2.301" fill="#CBCBCB"/>
    <path d="M52.85 15.202a4.572 4.572 0 0 0-4.577-4.566h.024a4.572 4.572 0 0 0-4.576 4.566c0 1.271-1.031 2.3-2.305 2.3h-8.65a4.572 4.572 0 0 0-4.576 4.567 4.571 4.571 0 0 0 4.576 4.567h31.038a4.571 4.571 0 0 0 4.576-4.567 4.572 4.572 0 0 0-4.576-4.566h-8.65a2.303 2.303 0 0 1-2.305-2.301zM46.932 38.63h15.499M46.932 51.43h15.499M46.932 65.03h15.499" stroke="#231F20" stroke-width="2.4" stroke-linecap="round" stroke-linejoin="round"/>
    <path d="M89.954 39.144c0 2 1.625 3.623 3.629 3.623a3.627 3.627 0 0 0 3.63-3.623c0-2-1.625-3.622-3.63-3.622a3.626 3.626 0 0 0-3.63 3.622z" stroke="#EAEAEA" stroke-width="2.4"/>
    <path d="M1.4 27.43l6.424 6.41M7.823 27.43l-6.422 6.41" stroke="#EAEAEA" stroke-width="2.4" stroke-linecap="round"/>
    <g transform="translate(28.256 .38)">
      <mask id="b" fill="#fff">
        <use xlink:href="#a"/>
      </mask>
      <path d="M5.816 3.267a2.85 2.85 0 0 1-2.853 2.846A2.85 2.85 0 0 1 .11 3.267 2.85 2.85 0 0 1 2.963.42a2.85 2.85 0 0 1 2.853 2.847" fill="#EAEAEA" mask="url(#b)"/>
    </g>
    <path d="M89.833 89.15c0 1.342-1.09 2.43-2.434 2.43a2.431 2.431 0 0 1-2.435-2.43c0-1.342 1.09-2.43 2.435-2.43a2.432 2.432 0 0 1 2.434 2.43" fill="#EAEAEA"/>
  </g>
</svg>
