<svg viewBox="0 0 79 85" xmlns="http://www.w3.org/2000/svg" width="79" xmlns:xlink="http://www.w3.org/1999/xlink">
  <defs>
    <path id="a" d="M.336.324h37.786v66.74H.336z"/>
    <path id="c" d="M0 .203h5.761v5.743H0z"/>
    <path id="e" d="M0 84.265h78.538V0H0z"/>
  </defs>
  <g fill="none" fill-rule="evenodd">
    <path d="M44.645 16.504a5.825 5.825 0 0 1 1.745 2.016c.154-.121.308-.244.454-.374-.551-.697-1.31-1.263-2.199-1.642" fill="#5F63B8"/>
    <g transform="translate(33.634 17.201)">
      <mask id="b" fill="#fff">
        <use xlink:href="#a"/>
      </mask>
      <path d="M14.176 8.283V3.647c0-.152-.01-.3-.026-.447a11.75 11.75 0 0 1-.816.578v4.356a29.394 29.394 0 0 0-2.347-.301V4.944a11.45 11.45 0 0 1-3.22.645l-.065.002a1.171 1.171 0 0 1-.063-2.338 9.044 9.044 0 0 0 3.09-.73C10.156 1.245 8.655.324 6.88.324c-2.264 0-4.106 1.49-4.106 3.323v4.247a29.773 29.773 0 0 1 4.194-.302c16.35 0 29.651 13.262 29.651 29.562S23.32 66.716 6.97 66.716c-2.281 0-4.5-.266-6.633-.754a29.777 29.777 0 0 0 8.02 1.102c16.412 0 29.766-13.313 29.766-29.677 0-14.378-10.31-26.397-23.946-29.104" fill="#5F63B8" mask="url(#b)"/>
    </g>
    <path d="M20.68 54.588c0-11.714 9.559-21.244 21.309-21.244 1.646 0 3.246.192 4.785.546a21.425 21.425 0 0 0-6.172-.907c-11.82 0-21.437 9.587-21.437 21.372 0 11.471 9.113 20.857 20.499 21.35-10.66-1.16-18.984-10.185-18.984-21.117" fill="#5F63B8"/>
    <path d="M64.385 54.355c0 13.075-10.67 23.712-23.783 23.712-13.114 0-23.783-10.637-23.783-23.712 0-13.074 10.669-23.71 23.783-23.71s23.783 10.636 23.783 23.71m-51.088 0c0 15.01 12.25 27.223 27.305 27.223 15.056 0 27.305-12.212 27.305-27.223 0-15.01-12.25-27.222-27.305-27.222-15.056 0-27.305 12.212-27.305 27.222" fill="#5F63B8"/>
    <g transform="translate(0 59.311)">
      <mask id="d" fill="#fff">
        <use xlink:href="#c"/>
      </mask>
      <path d="M2.88.203A2.876 2.876 0 0 0 0 3.075a2.876 2.876 0 0 0 2.88 2.87c1.59 0 2.881-1.284 2.881-2.87A2.877 2.877 0 0 0 2.881.203" fill="#EAEAEA" mask="url(#d)"/>
    </g>
    <mask id="f" fill="#fff">
      <use xlink:href="#e"/>
    </mask>
    <path d="M61.827 14.842h4.94v-2.778h-4.94v2.778zm-.238 2.34h5.415c1.163 0 2.11-.943 2.11-2.103v-3.252c0-1.16-.947-2.103-2.11-2.103h-5.415a2.109 2.109 0 0 0-2.108 2.103v3.252c0 1.16.946 2.103 2.108 2.103zM7.397 26.158a3.162 3.162 0 0 1-3.163-3.153 3.162 3.162 0 0 1 3.163-3.153 3.161 3.161 0 0 1 3.162 3.153 3.162 3.162 0 0 1-3.162 3.153m5.509-3.153c0-3.029-2.471-5.492-5.509-5.492-3.038 0-5.51 2.463-5.51 5.492s2.472 5.493 5.51 5.493 5.509-2.464 5.509-5.493M77.365 77.275h-2.667v-2.659c0-.646-.525-1.17-1.173-1.17s-1.173.524-1.173 1.17v2.659h-2.666c-.648 0-1.173.524-1.173 1.17 0 .645.525 1.169 1.173 1.169h2.666v2.657c0 .645.525 1.17 1.173 1.17s1.173-.525 1.173-1.17v-2.657h2.667c.647 0 1.173-.524 1.173-1.17 0-.645-.526-1.17-1.173-1.17M42.248 49.303c.61.247 1.182.617 1.678 1.111a5.04 5.04 0 0 1 1.114 5.48 5.06 5.06 0 0 1-2.792 2.783 5.112 5.112 0 0 1-3.353.162 5.054 5.054 0 0 1-2.143-1.272 5.038 5.038 0 0 1-1.394-4.543 5.02 5.02 0 0 1 1.394-2.61 5.03 5.03 0 0 1 1.678-1.11 5.1 5.1 0 0 1 3.818 0m-1.005-8.837a.901.901 0 0 0-.533-.464c-.439-.144-.922.107-1.121.523-1.06 2.2-1.594 4.4-1.992 6.6-.04.238-.08.478-.115.718a.573.573 0 0 1-.972.316l-2.257-2.25c-.456-.455-1.204-.547-1.698-.134a1.21 1.21 0 0 0-.082 1.789l2.317 2.31a.57.57 0 0 1-.317.968c-.24.036-.48.074-.72.115-2.227.401-4.454.939-6.679 2.014a.898.898 0 0 0-.465.532c-.146.437.107.918.524 1.117 2.196 1.052 4.392 1.584 6.589 1.98.21-.267.423-.533.638-.797a6.186 6.186 0 0 0 1.562 2.59 6.201 6.201 0 0 0 3.29 1.718c-.478.392-.965.775-1.459 1.151.387 1.945.92 3.89 1.864 5.836.103.21.286.382.533.464.44.145.921-.108 1.121-.524 1.06-2.199 1.594-4.398 1.993-6.599.041-.239.079-.478.114-.719a.573.573 0 0 1 .972-.315l2.267 2.26a1.22 1.22 0 0 0 1.775-.059c.434-.492.346-1.256-.119-1.72l-2.203-2.196a.57.57 0 0 1 .317-.969c.24-.036.48-.074.721-.114 2.227-.401 4.452-.94 6.678-2.015a.902.902 0 0 0 .466-.53c.144-.439-.108-.92-.524-1.119-1.946-.931-3.89-1.454-5.835-1.837-.457.604-.929 1.197-1.41 1.778a6.172 6.172 0 0 0-1.728-3.298 6.226 6.226 0 0 0-2.615-1.562c.37-.301.745-.598 1.125-.89l-.001-.01c-.403-2.22-.942-4.439-2.02-6.658" fill="#EAEAEA" mask="url(#f)"/>
    <path d="M31.68 11.404c0-4.998 4.078-9.064 9.091-9.064 5.013 0 9.091 4.066 9.091 9.064 0 2.67-1.163 5.08-3.018 6.742-.146.13-.3.253-.454.374a5.835 5.835 0 0 0-1.745-2.016c-1.12-.822-2.56-1.318-4.131-1.318-2.478 0-4.63 1.234-5.713 3.036-1.982-1.725-3.121-4.174-3.121-6.818m36.226 42.951c0 15.01-12.249 27.223-27.304 27.223-15.056 0-27.305-12.212-27.305-27.223 0-15.01 12.249-27.222 27.305-27.222 15.055 0 27.304 12.212 27.304 27.222m2.347 0c0-16.3-13.301-29.561-29.65-29.561-1.425 0-2.825.107-4.196.302v-4.248c0-1.832 1.842-3.322 4.107-3.322 1.774 0 3.275.92 3.849 2.198-.957.41-1.994.67-3.09.73a1.172 1.172 0 0 0-1.108 1.231 1.173 1.173 0 0 0 1.17 1.107c.022 0 .043 0 .065-.002a11.478 11.478 0 0 0 3.22-.645v2.889c.792.069 1.575.17 2.347.3v-4.356c.281-.18.553-.373.817-.577 2.695-2.092 4.425-5.349 4.425-8.997C52.209 5.116 47.079 0 40.77 0c-6.307 0-11.438 5.116-11.438 11.404a11.32 11.32 0 0 0 4.441 9.02c.094.073.197.124.302.163-.004.088-.015.174-.015.26v4.68c-13.212 2.98-23.11 14.77-23.11 28.828 0 14.027 9.853 25.795 23.018 28.808 2.134.487 4.352.754 6.633.754 16.35 0 29.65-13.261 29.65-29.562" fill="#231F20" mask="url(#f)"/>
    <path d="M19.165 54.355c0-11.784 9.617-21.371 21.437-21.371 2.145 0 4.217.32 6.172.906 8.82 2.65 15.264 10.82 15.264 20.465 0 11.785-9.615 21.373-21.436 21.373-.314 0-.627-.01-.938-.024-11.387-.492-20.5-9.878-20.5-21.349m-2.346 0c0 13.075 10.67 23.712 23.784 23.712 13.114 0 23.783-10.637 23.783-23.712 0-13.074-10.669-23.71-23.783-23.71S16.818 41.28 16.818 54.354" fill="#231F20" mask="url(#f)"/>
    <path d="M35.922 58.394a6.186 6.186 0 0 1-1.562-2.59c-.215.264-.428.53-.638.798-.254.323-.509.647-.753.978-1.55 2.135-3 4.371-4.052 7.003a.996.996 0 0 0-.04.653c.151.51.704.75 1.235.539 2.64-1.05 4.882-2.494 7.024-4.04.209-.154.41-.315.617-.472.495-.376.981-.76 1.458-1.15a6.201 6.201 0 0 1-3.289-1.72" fill="#5EB1EF" mask="url(#f)"/>
    <path d="M44.755 49.587a6.172 6.172 0 0 1 1.727 3.298c.482-.582.954-1.174 1.411-1.779.105-.138.215-.272.318-.412 1.55-2.135 2.999-4.372 4.052-7.002.083-.208.102-.438.039-.654-.15-.509-.703-.75-1.235-.539-2.64 1.05-4.882 2.494-7.023 4.04-.264.194-.52.396-.779.595a50.3 50.3 0 0 0-1.125.891 6.226 6.226 0 0 1 2.615 1.562" fill="#F77660" mask="url(#f)"/>
    <path d="M38.43 49.303a5.04 5.04 0 0 0-1.679 1.111 5.029 5.029 0 0 0-1.462 4.06 5.036 5.036 0 0 0 1.463 3.092 5.06 5.06 0 0 0 3.586 1.482 5.12 5.12 0 0 0 1.91-.37 5.078 5.078 0 0 0 2.792-2.785 5.063 5.063 0 0 0 0-3.806 5.031 5.031 0 0 0-1.115-1.673 5.045 5.045 0 0 0-1.677-1.11 5.103 5.103 0 0 0-3.818 0" fill="#5F63B8" mask="url(#f)"/>
    <path d="M40.388 37.386c.69 0 1.249-.558 1.249-1.245 0-.688-.56-1.244-1.249-1.244a1.245 1.245 0 1 0 0 2.489M58.323 55.267c.69 0 1.249-.558 1.249-1.246 0-.687-.56-1.243-1.249-1.243-.69 0-1.249.556-1.249 1.243 0 .688.56 1.246 1.25 1.246" fill="#F77660" mask="url(#f)"/>
    <path d="M40.585 70.462c-.69 0-1.248.557-1.248 1.244 0 .688.559 1.244 1.248 1.244.69 0 1.249-.556 1.249-1.244 0-.687-.56-1.244-1.249-1.244M22.65 52.58c-.689 0-1.248.558-1.248 1.245 0 .688.56 1.245 1.248 1.245.69 0 1.249-.557 1.249-1.245 0-.687-.56-1.244-1.249-1.244" fill="#5EB1EF" mask="url(#f)"/>
  </g>
</svg>
