<?xml version="1.0" encoding="UTF-8"?>
<svg width="78px" height="69px" viewBox="0 0 78 69" version="1.1" xmlns="http://www.w3.org/2000/svg" xmlns:xlink="http://www.w3.org/1999/xlink">
    <!-- Generator: Sketch 52.5 (67469) - http://www.bohemiancoding.com/sketch -->
    <title>Group 29</title>
    <desc>Created with Sketch.</desc>
    <defs>
        <polygon id="path-1" points="0.420923833 0.253995621 49.5389268 0.253995621 49.5389268 48.875 0.420923833 48.875"></polygon>
        <polygon id="path-3" points="0.610829969 0.606569921 29.9570092 0.606569921 29.9570092 29.6556967 0.610829969 29.6556967"></polygon>
    </defs>
    <g id="Set-2---Initial-Sign-In---Logged-In---Pick-Path---Overview---Single-Step" stroke="none" stroke-width="1" fill="none" fill-rule="evenodd">
        <g id="Pick-a-Path---step-2-" transform="translate(-468.000000, -454.000000)">
            <g id="Group-6" transform="translate(170.000000, 441.000000)">
                <g id="Group-29" transform="translate(298.000000, 13.900000)">
                    <g id="Group-3" transform="translate(7.155963, 18.434375)">
                        <mask id="mask-2" fill="white">
                            <use xlink:href="#path-1"></use>
                        </mask>
                        <g id="Clip-2"></g>
                        <path d="M32.0019688,31.4897375 C31.9976752,31.4946958 31.9933817,31.4982375 31.9883725,31.5031958 C31.7894367,31.7008208 31.5811982,31.8892375 31.3650881,32.0698625 C31.3586477,32.0762375 31.3522073,32.0819042 31.3443358,32.0875708 C31.1260789,32.2689042 30.8992349,32.4417375 30.6652349,32.6046542 L30.4348128,32.7647375 C30.168611,32.9255292 29.744978,33.1691958 29.4923725,33.3059042 L29.2547945,33.4185292 C29.2247394,33.4319875 29.1961156,33.4475708 29.1667761,33.4603208 C28.9385009,33.5658625 28.7045009,33.6614875 28.4662073,33.7493208 C28.4247028,33.7649042 28.3839138,33.7790708 28.3431248,33.7939458 C28.1034,33.8796542 27.8600972,33.9568625 27.6103541,34.0241542 C27.5752899,34.0340708 27.5409413,34.0425708 27.5058771,34.0510708 C27.2446844,34.1190708 26.9784826,34.1792792 26.7079872,34.2267375 C26.4367761,34.2749042 26.1655651,34.3081958 25.8957853,34.3329875 C25.8607211,34.3365292 25.8256569,34.3400708 25.7905927,34.3429042 C25.5322624,34.3648625 25.2753633,34.3747792 25.0191798,34.3754875 L24.8946661,34.3754875 C24.637767,34.3733625 24.3822991,34.3627375 24.1282624,34.3407792 C24.1003541,34.3386542 24.0717303,34.3358208 24.043822,34.3322792 L23.7783358,34.3081958 C23.4906661,34.2642792 23.2552349,34.2288625 23.2552349,34.2288625 C23.2552349,34.2288625 23.1314367,34.2040708 22.9782991,34.1736125 C22.8251615,34.1424458 22.4287211,34.0454042 22.4287211,34.0461125 C22.4287211,34.0461125 22.178978,33.9738625 21.8734183,33.8853208 L21.6014917,33.7875708 C21.599345,33.7868625 21.5964826,33.7861542 21.5936202,33.7847375 C19.9620606,33.1961125 18.5094,32.1902792 17.3909229,30.8749042 L17.3851982,30.8692375 L17.1998587,30.6496542 C17.0116569,30.3960708 16.8570881,30.1878208 16.8563725,30.1878208 C16.8563725,30.1878208 16.7848128,30.0836958 16.6982257,29.9561958 C16.6123541,29.8286958 16.3983908,29.4823208 16.3991064,29.4823208 C16.3991064,29.4823208 16.2838954,29.2740708 16.1443541,29.0211958 L16.0291431,28.7831958 C16.0184092,28.7591125 16.0055284,28.7343208 15.9940789,28.7102375 C15.8860239,28.4814458 15.7879872,28.2455708 15.6971064,28.0054458 C15.6835101,27.9686125 15.6699138,27.9324875 15.6563174,27.8956542 C15.5690147,27.6548208 15.4902991,27.4104458 15.4216018,27.1611125 C15.4122991,27.1306542 15.4058587,27.0987792 15.3979872,27.0683208 C15.3271431,26.8069458 15.2663174,26.5420292 15.2183725,26.2714458 C15.1697119,26.0008625 15.1360789,25.7309875 15.111033,25.4618208 C15.1081706,25.4299458 15.1031615,25.3980708 15.1010147,25.3661958 C15.0802624,25.1076542 15.0695284,24.8519458 15.0673817,24.5969458 C15.0680972,24.5579875 15.0680972,24.5183208 15.0680972,24.4793625 C15.070244,24.2222375 15.080978,23.9686542 15.1031615,23.7157792 C15.1053083,23.6888625 15.1088862,23.6626542 15.111033,23.6357375 L15.1367945,23.3729458 C15.1797303,23.0874875 15.2162257,22.8544458 15.2155101,22.8544458 C15.2133633,22.8558625 15.2935101,22.4563625 15.3314367,22.3076125 C15.3686477,22.1588625 15.3994183,22.0363208 15.3994183,22.0370292 C15.4001339,22.0370292 15.4716936,21.7898208 15.5611431,21.4866542 L15.6598954,21.2189042 C15.660611,21.2153625 15.6620422,21.2118208 15.6634734,21.2089875 C15.7622257,20.9405292 15.8724275,20.6784458 15.9933633,20.4206125 C15.9947945,20.4206125 15.9947945,20.4191958 15.9947945,20.4184875 C16.4828312,19.3836125 17.149767,18.4394042 17.9648312,17.6311958 C17.9662624,17.6290708 17.9684092,17.6283625 17.9691248,17.6262375 C18.1709229,17.4264875 18.3813083,17.2345292 18.6002807,17.0517792 C18.6045743,17.0475292 18.6088679,17.0446958 18.6131615,17.0418625 L18.8335651,16.8591125 C19.0883174,16.6728208 19.4024642,16.4511125 19.530556,16.3646958 C19.6600789,16.2782792 20.0100055,16.0679042 20.0100055,16.0686125 C20.0100055,16.0686125 20.2175284,15.9559875 20.4708495,15.8185708 L20.7084275,15.7066542 C20.7370514,15.6924875 20.7649596,15.6783208 20.7942991,15.6648625 C21.0225743,15.5600292 21.2565743,15.4636958 21.4941523,15.3758625 C21.5363725,15.3602792 21.5785927,15.3461125 21.6200972,15.3305292 C21.8583908,15.2455292 22.100978,15.1683208 22.3492899,15.1010292 C22.3857853,15.0918208 22.4229963,15.0826125 22.4609229,15.0726958 C22.7199688,15.0054042 22.9840239,14.9451958 23.2538037,14.8977375 L23.2545193,14.8977375 C23.5228679,14.8509875 23.7905009,14.8176958 24.0581339,14.7929042 C24.0974917,14.7893625 24.1375651,14.7844042 24.1762073,14.7808625 C24.430244,14.7603208 24.6828495,14.7496958 24.935455,14.7496958 C24.9819688,14.7482792 25.0299138,14.7489875 25.0764275,14.7489875 C25.3283174,14.7511125 25.5780606,14.7624458 25.8256569,14.7822792 C25.8621523,14.7865292 25.8979321,14.7907792 25.9337119,14.7936125 C26.1934734,14.8184042 26.4503725,14.8509875 26.7058404,14.8949042 C26.9863541,14.9451958 27.2625743,15.0068208 27.5352165,15.0790708 C27.8114367,15.1527375 28.0812165,15.2377375 28.3481339,15.3326542 C28.3581523,15.3361958 28.3688862,15.3397375 28.3789046,15.3432792 C28.6436752,15.4396125 28.9027211,15.5458625 29.1560422,15.6627375 C29.1639138,15.6662792 29.1703541,15.6698208 29.1782257,15.6733625 C30.2172716,16.1550292 31.1654367,16.8116542 31.9776385,17.6113625 L31.9926661,17.6269458 C32.1916018,17.8231542 32.3826661,18.0292792 32.5651431,18.2446125 C32.5715835,18.2509875 32.5765927,18.2559458 32.5823174,18.2630292 L32.7655101,18.4797792 C32.9522807,18.7312375 33.1762624,19.0407792 33.2635651,19.1675708 C33.3501523,19.2943625 33.6757486,19.8468625 33.8131431,20.0954875 L33.9262073,20.3299458 C33.9412349,20.3596958 33.9555468,20.3894458 33.9705743,20.4199042 C34.075767,20.6444458 34.1723725,20.8753625 34.2611064,21.1098208 C34.2775651,21.1523208 34.2925927,21.1948208 34.3083358,21.2366125 C34.3934917,21.4717792 34.4714917,21.7111958 34.5387578,21.9555708 C34.5494917,21.9931125 34.5580789,22.0306542 34.5680972,22.0681958 C34.6367945,22.3253208 34.6976202,22.5866958 34.7448495,22.8530292 C34.7920789,23.1200708 34.8249963,23.3856958 34.8507578,23.6499042 C34.8543358,23.6881542 34.859345,23.7271125 34.8629229,23.7660708 C34.8836752,24.0175292 34.8936936,24.2696958 34.8944092,24.5190292 C34.8951248,24.5643625 34.8951248,24.6096958 34.8944092,24.6550292 C34.8922624,24.9050708 34.8815284,25.1544042 34.8607761,25.4009042 C34.8579138,25.4349042 34.8536202,25.4674875 34.8500422,25.5007792 L34.8249963,25.7593208 C34.7827761,26.0405292 34.7219505,26.3946958 34.6904642,26.5448625 C34.6596936,26.6957375 34.4893817,27.3339458 34.4013633,27.6335708 L34.3040422,27.8999042 C34.3011798,27.9069875 34.2983174,27.9147792 34.2947394,27.9225708 C34.1974183,28.1860708 34.0900789,28.4446125 33.9705743,28.6981958 C33.9677119,28.7038625 33.9648495,28.7088208 33.9619872,28.7151958 C33.4760972,29.7444042 32.8120239,30.6843625 32.0019688,31.4897375 M46.1994,33.8945292 L44.9449596,33.0261125 C44.2114734,32.5175292 43.8307761,31.4111125 44.0998404,30.5653625 L44.8676752,27.1058625 C44.9878954,26.2268208 45.8072532,25.3817792 46.6888679,25.2280708 L48.1944826,24.9631542 C49.0760972,24.8087375 49.6700422,23.9686542 49.5140422,23.0959875 L48.5351064,17.6149042 C48.3791064,16.7422375 47.5296936,16.1550292 46.6480789,16.3087375 L45.1417486,16.5722375 C44.2601339,16.7273625 43.198189,16.2116958 42.7809963,15.4268625 L40.8610514,12.4369875 C40.3150514,11.7336125 40.2885743,10.5648625 40.8023725,9.83952917 L41.6796936,8.59782083 C42.1927761,7.87177917 42.0124459,6.8609875 41.2789596,6.35382083 L36.6712349,3.1634875 C35.9377486,2.6556125 34.9180239,2.8341125 34.4042257,3.55944583 L33.5276202,4.80115417 C33.0145376,5.52719583 31.8960606,5.90332083 31.0416385,5.6369875 L27.5459505,4.87765417 C26.6593266,4.7593625 25.8056202,3.94832083 25.6496202,3.07565417 L25.3834183,1.5846125 C25.2267028,0.711945833 24.3780055,0.1247375 23.4963908,0.278445833 L17.9591064,1.2488625 C17.0774917,1.40257083 16.4835468,2.24265417 16.6395468,3.11602917 L16.905033,4.60565417 C17.0617486,5.47902917 16.5407945,6.53019583 15.7486294,6.94315417 L12.7266661,8.84290417 C12.0175101,9.38265417 10.8360606,9.40957083 10.1025743,8.9009875 L8.84956514,8.03327917 C8.1160789,7.52540417 7.09492294,7.70390417 6.58255596,8.42994583 L3.35951009,12.9916125 C2.84642752,13.7169458 3.0267578,14.7270292 3.75952844,15.2341958 L5.01396881,16.1026125 C5.74817064,16.6097792 6.12815229,17.7183208 5.85908807,18.5626542 L5.09125321,22.0242792 C4.97103303,22.9019042 4.15167523,23.7469458 3.27006055,23.9013625 L1.76587706,24.1655708 C0.884262385,24.3199875 0.290317431,25.1600708 0.445601835,26.0327375 L1.42525321,31.5138208 C1.58125321,32.3871958 2.42995046,32.9744042 3.31228073,32.8199875 L4.81717982,32.5564875 C5.6987945,32.4020708 6.76217064,32.9177375 7.1793633,33.7018625 L9.09859266,36.6917375 C9.64387706,37.3944042 9.67106972,38.5631542 9.15727156,39.2899042 L8.27995046,40.5316125 C7.76686789,41.2576542 7.94719817,42.2677375 8.67996881,42.7756125 L13.2884092,45.9659458 C14.0211798,46.4731125 15.0423358,46.2946125 15.5554183,45.5692792 L16.4320239,44.3275708 C16.9451064,43.6022375 18.0642991,43.2254042 18.9180055,43.4910292 L22.4144092,44.2517792 C23.3017486,44.3707792 24.1547394,45.1811125 24.311455,46.0544875 L24.5776569,47.5441125 C24.7336569,48.4167792 25.5823541,49.0046958 26.4639688,48.8509875 L32.0012532,47.8812792 C32.8828679,47.7268625 33.4768128,46.8860708 33.3215284,46.0141125 L33.054611,44.5223625 C32.898611,43.6504042 33.4188495,42.5985292 34.2117303,42.1862792 L37.2322624,40.2851125 C37.9414183,39.7453625 39.1228679,39.7191542 39.8563541,40.2270292 L41.1107945,41.0961542 C41.8442807,41.6033208 42.8654367,41.4248208 43.3770881,40.6987792 L46.6001339,36.1378208 C47.1132165,35.4117792 46.9328862,34.4016958 46.1994,33.8945292" id="Fill-1" fill="#F77660" mask="url(#mask-2)"></path>
                    </g>
                    <path d="M38.4499927,4.02630833 L38.4499927,1.17385 C38.4499927,0.72335 38.8228183,0.3536 39.277222,0.3536 L44.0624147,0.3536 C44.5175339,0.3536 44.8903596,0.72335 44.8903596,1.17385 L44.8903596,4.02630833 C44.8903596,4.47680833 44.5175339,4.84514167 44.0624147,4.84514167 L39.277222,4.84514167 C38.8228183,4.84514167 38.4499927,4.47680833 38.4499927,4.02630833 Z" id="Stroke-4" stroke="#EAEAEA" stroke-width="2.1375"></path>
                    <path d="M46.0763174,26.934375 L46.9536385,25.6926667 C47.4667211,24.9673333 47.2863908,23.95725 46.5529046,23.449375 L41.9458954,20.2590417 C41.2116936,19.7504583 40.1919688,19.9296667 39.6788862,20.6557083 L38.8015651,21.8967083 C38.2884826,22.62275 37.1700055,22.998875 36.3155835,22.7325417 L32.820611,21.9732083 C31.9332716,21.8549167 31.0795651,21.043875 30.9235651,20.1712083 L30.6573633,18.680875 C30.5006477,17.8067917 29.6519505,17.2202917 28.7703358,17.374 L23.2330514,18.3444167 C22.3514367,18.4988333 21.7582073,19.3382083 21.9134917,20.2115833 L22.178978,21.7005 C22.3356936,22.5745833 21.8147394,23.62575 21.0225743,24.038 L18.0013266,25.9391667 C17.291455,26.4782083 16.1100055,26.5058333 15.3772349,25.99725 L14.1235101,25.1288333 C13.3900239,24.6209583 12.3688679,24.7994583 11.8565009,25.5255 L8.63345505,30.0864583 C8.12037248,30.8125 8.30070275,31.8225833 9.03347339,32.32975 L10.2879138,33.1981667 C11.0221156,33.7060417 11.4020972,34.8131667 11.133033,35.6575 L10.3651982,39.119125 C10.244978,39.9974583 9.42562018,40.8432083 8.5440055,40.997625 L7.03982202,41.261125 C6.15820734,41.4155417 5.56426239,42.255625 5.71954679,43.1282917 L6.69991376,48.6100833 C6.85519817,49.4820417 7.70389541,50.0699583 8.58551009,49.9155417 L10.0911248,49.6513333 C10.9727394,49.497625 12.0361156,50.0132917 12.4533083,50.7974167 L14.3725376,53.7872917 C14.917822,54.48925 14.9450147,55.6594167 14.4312165,56.38475 L13.5538954,57.6271667 C13.0408128,58.3532083 13.2211431,59.3632917 13.9539138,59.8704583 L18.5623541,63.0607917 C19.2951248,63.5686667 20.3162807,63.3901667 20.8293633,62.664125 L21.7059688,61.423125 C22.2190514,60.6970833 23.338244,60.3209583 24.1919505,60.5872917 L27.6883541,61.346625 C28.5756936,61.465625 29.4286844,62.277375 29.5854,63.1493333 L29.8516018,64.6389583 C30.0076018,65.5123333 30.8562991,66.10025 31.7379138,65.9458333 L37.2751982,64.9768333 C38.1575284,64.8224167 38.7507578,63.9823333 38.5954734,63.1089583 L38.328556,61.618625 C38.172556,60.74525 38.6935101,59.693375 39.4856752,59.281125 L42.5062073,57.3806667 C43.2153633,56.841625 44.3968128,56.8147083 45.1302991,57.321875 L46.3847394,58.191 C47.1182257,58.698875 48.1393817,58.520375 48.6517486,57.793625 L51.8747945,53.2340833 C52.3871615,52.5080417 52.2068312,51.49725 51.473345,50.9900833 L50.2189046,50.1209583 C49.4854183,49.6137917 49.1047211,48.5066667 49.3737853,47.661625 L50.1423358,44.2007083 C50.262556,43.3230833 51.0811982,42.4773333 51.9635284,42.323625 L53.4684275,42.0594167 C54.3507578,41.905 54.9447028,41.0642083 54.7879872,40.1915417 L53.8090514,34.7111667 C53.6530514,33.8377917 52.8036385,33.249875 51.9220239,33.405 L50.4156936,33.6677917 C49.5340789,33.8229167 48.4721339,33.3065417 48.0549413,32.523125 L46.1349963,29.5318333 C45.5889963,28.829875 45.5625193,27.6597083 46.0763174,26.934375" id="Stroke-6" stroke="#231F20" stroke-width="2.1375" stroke-linecap="round" stroke-linejoin="round"></path>
                    <path d="M33.6525633,32.4391875 C33.9173339,32.5348125 34.1763798,32.6410625 34.4304165,32.7579375 C34.4382881,32.7621875 34.4440128,32.7657292 34.4518844,32.7685625 C34.9206,32.9853125 35.3707101,33.2388958 35.7986367,33.5243542" id="Stroke-8" stroke="#231F20" stroke-width="2.1375" stroke-linecap="round" stroke-linejoin="round"></path>
                    <path d="M39.9644092,43.6404167 C39.9336385,43.792 39.7633266,44.4295 39.6753083,44.729125 L39.5779872,44.99475 C39.5751248,45.00325 39.5722624,45.0103333 39.5686844,45.0174167 C39.4720789,45.281625 39.3640239,45.5401667 39.2445193,45.79375 L39.2359321,45.8100417 C38.7500422,46.8406667 38.0859688,47.7799167 37.2759138,48.5845833 C37.2716202,48.5895417 37.2673266,48.5937917 37.263033,48.59875 C37.0633817,48.7956667 36.8551431,48.9855 36.6397486,49.166125 C36.6325927,49.1717917 36.6261523,49.17675 36.6182807,49.1824167 C36.4007394,49.3644583 36.1731798,49.5372917 35.9391798,49.7009167 L35.7087578,49.8595833 C35.4432716,50.0210833 35.0189229,50.2654583 34.7663174,50.4021667 L34.5287394,50.5140833 C34.4986844,50.52825 34.4700606,50.5424167 34.4407211,50.555875 C34.2124459,50.6614167 33.9777303,50.7570417 33.7401523,50.8455833 C33.6986477,50.85975 33.6578587,50.8753333 33.6170697,50.8895 C33.377345,50.9752083 33.1340422,51.053125 32.8842991,51.1204167 C32.8499505,51.1289167 32.8148862,51.1374167 32.779822,51.1473333 C32.5186294,51.214625 32.2531431,51.2748333 31.9819321,51.3222917 C31.7100055,51.3704583 31.4395101,51.40375 31.1697303,51.4285417 C31.1346661,51.431375 31.0996018,51.435625 31.0645376,51.4391667 C30.8062073,51.4597083 30.5493083,51.4703333 30.2924092,51.47175 C30.2516202,51.4710417 30.2101156,51.47175 30.1693266,51.4710417 C29.9117119,51.4689167 29.656244,51.4582917 29.4022073,51.4370417 C29.3735835,51.4342083 29.3456752,51.4306667 29.317767,51.4278333 L29.0522807,51.4030417 C28.7653266,51.3598333 28.5298954,51.325125 28.5298954,51.325125 C28.5298954,51.325125 28.4053817,51.299625 28.252244,51.2691667 C28.0991064,51.2387083 27.7026661,51.1416667 27.7026661,51.1416667 C27.7026661,51.1416667 27.4536385,51.0687083 27.1473633,50.9801667 L26.8754367,50.8838333 C26.8732899,50.8824167 26.8697119,50.8817083 26.8675651,50.881 C25.2360055,50.2916667 23.783345,49.2858333 22.6648679,47.9704583 C22.6627211,47.9683333 22.6612899,47.9662083 22.6591431,47.9640833 L22.4745193,47.7459167 C22.2856018,47.491625 22.1303174,47.2840833 22.1303174,47.283375 C22.1303174,47.283375 22.0594734,47.17925 21.9721706,47.05175 C21.8862991,46.9249583 21.6723358,46.577875 21.6730514,46.5771667 C21.6730514,46.5771667 21.5578404,46.3703333 21.4182991,46.11675 L21.3030881,45.8780417 C21.2923541,45.8539583 21.2794734,45.8305833 21.2680239,45.8065 C21.1599688,45.5762917 21.0619321,45.341125 20.9710514,45.1017083 C20.957455,45.064875 20.9438587,45.0280417 20.9302624,44.9905 C20.8429596,44.750375 20.764244,44.5067083 20.6955468,44.2566667 C20.6869596,44.2255 20.6798037,44.1943333 20.6712165,44.1631667 C20.6010881,43.9017917 20.5402624,43.636875 20.4923174,43.367 C20.4436569,43.0957083 20.4100239,42.82725 20.384978,42.5580833 C20.3821156,42.5262083 20.3771064,42.4943333 20.3749596,42.46175 C20.3534917,42.2039167 20.3434734,41.9475 20.3413266,41.6925 C20.3420422,41.6535417 20.3420422,41.613875 20.3420422,41.5749167 C20.344189,41.3185 20.3549229,41.0642083 20.3771064,40.8113333 C20.3792532,40.785125 20.3828312,40.7582083 20.3856936,40.732 L20.4107394,40.4685 C20.4536752,40.1830417 20.4901706,39.95 20.489455,39.9492917 C20.4873083,39.9514167 20.5681706,39.552625 20.6053817,39.4031667 C20.6425927,39.2544167 20.6733633,39.131875 20.6733633,39.1325833 C20.6740789,39.1332917 20.7463541,38.885375 20.8358037,38.5822083 L20.9338404,38.31375 C20.934556,38.3109167 20.9359872,38.307375 20.9374183,38.3045417 C21.0361706,38.0367917 21.1463725,37.774 21.2673083,37.5161667 C21.2680239,37.5161667 21.2687394,37.5154583 21.2687394,37.51475 C21.7574917,36.479875 22.4237119,35.5349583 23.2387761,34.72675 C23.2402073,34.724625 23.2423541,34.7232083 23.2430697,34.7217917 C23.4448679,34.5213333 23.6552532,34.3300833 23.8749413,34.1480417 C23.8785193,34.1437917 23.8828128,34.1409583 23.8871064,34.1374167 L24.1075101,33.9546667 C24.3622624,33.7676667 24.6764092,33.5459583 24.8045009,33.46025 C24.9340239,33.3745417 25.2839505,33.1634583 25.2839505,33.1641667 C25.2839505,33.1641667 25.4914734,33.0515417 25.7447945,32.914125 L25.9823725,32.8015 C26.0109963,32.78875 26.0389046,32.7731667 26.068244,32.7604167 C26.2965193,32.654875 26.5312349,32.55925 26.7688128,32.4707083 C26.8103174,32.4558333 26.8525376,32.4409583 26.8940422,32.4260833 C27.1323358,32.3417917 27.3749229,32.263875 27.6232349,32.1972917 C27.6597303,32.1866667 27.6969413,32.1781667 27.7348679,32.16825 C27.9939138,32.1009583 28.2586844,32.04075 28.5284642,31.9932917 L28.5291798,31.994 C28.7975284,31.9458333 29.0651615,31.91325 29.3327945,31.8884583 C29.3714367,31.8849167 29.4115101,31.8799583 29.4508679,31.877125 C29.704189,31.8551667 29.9575101,31.8459583 30.2094,31.84525 C30.2566294,31.8445417 30.3038587,31.84525 30.3503725,31.84525 C30.6022624,31.847375 30.8527211,31.8572917 31.0996018,31.8785417 C31.1360972,31.8820833 31.1718771,31.885625 31.2076569,31.8891667 C31.4667028,31.9139583 31.7243174,31.9458333 31.9790697,31.9911667 C32.2602991,32.04075 32.5365193,32.1030833 32.8091615,32.174625" id="Stroke-10" stroke="#231F20" stroke-width="2.1375" stroke-linecap="round" stroke-linejoin="round"></path>
                    <g id="Group-14" transform="translate(47.944954, 4.976042)">
                        <mask id="mask-4" fill="white">
                            <use xlink:href="#path-3"></use>
                        </mask>
                        <g id="Clip-13"></g>
                        <path d="M17.8856862,20.3922792 C17.8821083,20.3936958 17.8792459,20.3951125 17.8756679,20.3972375 C17.7239615,20.4701958 17.5701083,20.5367792 17.4126771,20.5969875 C17.4069523,20.5991125 17.4019431,20.6012375 17.3969339,20.6026542 C17.2387872,20.6635708 17.0763468,20.7174042 16.9117596,20.7634458 L16.7500349,20.8094875 C16.568989,20.8498625 16.2813193,20.9058208 16.1117229,20.9341542 L15.9564385,20.9511542 C15.9364018,20.9532792 15.9170807,20.9568208 15.8977596,20.9582375 C15.7482,20.9731125 15.5972092,20.9830292 15.4455028,20.9865708 C15.4197413,20.9872792 15.3939798,20.9879875 15.3667872,20.9879875 C15.2157963,20.9901125 15.0626587,20.9872792 14.9088055,20.9766542 C14.8873376,20.9752375 14.8658697,20.9731125 14.8444018,20.9716958 C14.6833927,20.9596542 14.5216679,20.9419458 14.3592275,20.9171542 C14.1967872,20.8916542 14.0372092,20.8583625 13.879778,20.8201125 C13.8597413,20.8158625 13.8397046,20.8116125 13.8189523,20.8059458 C13.6686771,20.7684042 13.5212642,20.7244875 13.3767138,20.6756125 C13.3530991,20.6678208 13.3302,20.6600292 13.3073009,20.6515292 C13.1620349,20.6012375 13.0196312,20.5459875 12.8815211,20.4850708 C12.8650624,20.4779875 12.8500349,20.4701958 12.8342917,20.4638208 L12.6897413,20.3986542 C12.5358881,20.3186125 12.4106587,20.2534458 12.4106587,20.2534458 C12.4106587,20.2534458 12.3448239,20.2151958 12.2653927,20.1691542 C12.1845303,20.1216958 11.9798697,19.9913625 11.9798697,19.9913625 C11.9798697,19.9913625 11.8524936,19.9021125 11.6979248,19.7923208 L11.5633927,19.6860708 C11.5626771,19.6846542 11.5605303,19.6839458 11.5590991,19.6825292 C10.7540532,19.0358208 10.1322,18.1886542 9.76008991,17.2302792 L9.75794312,17.2260292 L9.69640183,17.0673625 C9.63986972,16.8874458 9.59335596,16.7401125 9.59335596,16.7401125 C9.59335596,16.7401125 9.57331927,16.6671542 9.54970459,16.5786125 C9.52537431,16.4900708 9.47313578,16.2534875 9.47385138,16.2527792 C9.47385138,16.2527792 9.4495211,16.1139458 9.42018165,15.9439458 L9.40300734,15.7874042 C9.40157615,15.7718208 9.39871376,15.7555292 9.39728257,15.7399458 C9.38082385,15.5897792 9.3722367,15.4374875 9.36794312,15.2844875 C9.36794312,15.2618208 9.36722752,15.2384458 9.36722752,15.2143625 C9.36508073,15.0627792 9.36794312,14.9090708 9.37796147,14.7546542 C9.37939266,14.7362375 9.38153945,14.7164042 9.38297064,14.6979875 C9.39513578,14.5364875 9.41231009,14.3756958 9.43807156,14.2134875 C9.46383303,14.0512792 9.49818165,13.8926125 9.53682385,13.7367792 C9.54183303,13.7176542 9.54541101,13.6985292 9.55042018,13.6801125 C9.58906239,13.5299458 9.63342936,13.3833208 9.6828055,13.2388208 C9.69067706,13.2175708 9.69854862,13.1949042 9.70570459,13.1736542 C9.75794312,13.0284458 9.81375963,12.8874875 9.87601651,12.7486542 C9.88245688,12.7337792 9.88961284,12.7203208 9.89605321,12.7054458 L9.96260367,12.5616542 C10.0427505,12.4086542 10.1093009,12.2846958 10.1093009,12.2846958 C10.1078697,12.2846958 10.2316679,12.0750292 10.2817596,11.9978208 C10.3318514,11.9213208 10.373356,11.8582792 10.373356,11.8582792 C10.373356,11.8589875 10.4628055,11.7329042 10.5722917,11.5791958 L10.681778,11.4467375 C10.6824936,11.4446125 10.6839248,11.4431958 10.6846404,11.4417792 C10.793411,11.3100292 10.9071908,11.1825292 11.0259798,11.0606958 C11.0266954,11.0606958 11.027411,11.0599875 11.027411,11.0599875 C11.5068606,10.5698208 12.0686037,10.1653625 12.6868789,9.8657375 C12.6883101,9.86502917 12.6897413,9.86502917 12.6911725,9.86432083 C12.8443101,9.7892375 13.0010257,9.72265417 13.1598881,9.6617375 C13.1634661,9.66032083 13.1663284,9.6596125 13.1691908,9.65819583 L13.3294844,9.59727917 C13.5105303,9.54202917 13.7309339,9.4768625 13.8203835,9.45277917 C13.909833,9.42869583 14.1488422,9.37769583 14.1488422,9.37769583 C14.1488422,9.37769583 14.2883835,9.35432083 14.4579798,9.32527917 L14.6146954,9.30827917 C14.6333009,9.30615417 14.6519064,9.30332083 14.6712275,9.30119583 C14.8207872,9.2856125 14.971778,9.2771125 15.1234844,9.2728625 C15.1499615,9.27215417 15.1764385,9.27215417 15.2029156,9.27144583 C15.354622,9.27002917 15.5063284,9.2728625 15.6594661,9.28207083 C15.6823651,9.28419583 15.7045486,9.28632083 15.7281633,9.2877375 C15.8877413,9.29977917 16.0487505,9.31677917 16.2104752,9.34157083 L16.2104752,9.34227917 C16.3714844,9.36777917 16.5289156,9.4003625 16.6849156,9.43790417 C16.7078147,9.44357083 16.7314294,9.44852917 16.7543284,9.45419583 C16.9017413,9.49032083 17.0462917,9.5342375 17.1879798,9.58240417 C17.2151725,9.59090417 17.2416495,9.60082083 17.2681266,9.60932083 C17.4098147,9.6596125 17.5486404,9.71344583 17.6846037,9.77294583 L17.7432826,9.7998625 C17.8849706,9.8636125 18.0237963,9.93090417 18.159044,10.0052792 C18.3078881,10.0874458 18.4510073,10.1759875 18.5912642,10.2694875 C18.7322367,10.3636958 18.8682,10.4635708 18.9998697,10.5691125 C19.0048789,10.5733625 19.0098881,10.5769042 19.0148972,10.5804458 C19.1458514,10.6859875 19.2717963,10.7957792 19.3913009,10.9105292 C19.3948789,10.9147792 19.3977413,10.9176125 19.4013193,10.9211542 C19.8936495,11.3929042 20.2993927,11.9461125 20.6006587,12.5545708 C20.6028055,12.5581125 20.6042367,12.5616542 20.6063835,12.5651958 C20.6793743,12.7146542 20.747356,12.8683625 20.8081817,13.0249042 C20.8103284,13.0291542 20.8117596,13.0334042 20.8139064,13.0383625 L20.8747321,13.1963208 C20.9305486,13.3741125 20.9963835,13.5915708 21.0199982,13.6801125 C21.0443284,13.7686542 21.1194661,14.1426542 21.1488055,14.3098208 L21.1659798,14.4642375 C21.1681266,14.4833625 21.170989,14.5039042 21.1731358,14.5237375 C21.1881633,14.6703625 21.1981817,14.8191125 21.2017596,14.9685708 C21.2024752,14.9961958 21.2031908,15.0224042 21.2031908,15.0493208 C21.2053376,15.1987792 21.2024752,15.3489458 21.1917413,15.4998208 C21.1903101,15.5224875 21.1881633,15.5458625 21.1860165,15.5685292 C21.174567,15.7271958 21.1573927,15.8865708 21.1316312,16.0452375 C21.1058697,16.2053208 21.0722367,16.3618625 21.0350257,16.5155708 C21.0300165,16.5389458 21.0250073,16.5609042 21.0192826,16.5835708 C20.981356,16.7301958 20.9377046,16.8732792 20.8883284,17.0149458 C20.8804569,17.0411542 20.8711541,17.0666542 20.8618514,17.0914458 C20.8117596,17.2324042 20.7566587,17.3705292 20.6965486,17.5065292 C20.6879615,17.5249458 20.6793743,17.5426542 20.6715028,17.5603625 L20.6063835,17.7013208 C20.5262367,17.8521958 20.4224752,18.0406125 20.3752459,18.1192375 C20.3280165,18.1985708 20.1068972,18.5251125 19.9981266,18.6774042 L19.8907872,18.8091542 C19.8879248,18.8134042 19.8850624,18.8162375 19.8814844,18.8204875 C19.7748606,18.9508208 19.6625119,19.0761958 19.5451541,19.1959042 C19.5430073,19.1980292 19.5408606,19.2008625 19.5379982,19.2036958 C19.0606954,19.6910292 18.5010991,20.0933625 17.8856862,20.3922792 M25.4259248,24.4843208 L24.8885119,23.7526125 C24.5750807,23.3247792 24.5779431,22.6263625 24.8956679,22.2013625 L26.0098514,20.3958208 C26.2495761,19.9233625 26.8785853,19.6046125 27.4066954,19.6874875 L28.3083468,19.8277375 C28.8364569,19.9106125 29.3366587,19.5507792 29.4203835,19.0280292 L29.9456312,15.7456125 C30.0286404,15.2228625 29.6651174,14.7277375 29.1370073,14.6455708 L28.235356,14.5039042 C27.7072459,14.4210292 27.2084752,13.9251958 27.1276128,13.4024458 L26.6324202,11.3447375 C26.4621083,10.8432375 26.6767872,10.1781125 27.1097229,9.8678625 L27.8489339,9.33590417 C28.2811541,9.0242375 28.3777596,8.42002917 28.0643284,7.99219583 L26.0907138,5.3033625 C25.7758514,4.87552917 25.1654477,4.77990417 24.7332275,5.0908625 L23.9940165,5.6221125 C23.5617963,5.93307083 22.8562183,5.9302375 22.4268606,5.6157375 L20.6035211,4.51357083 C20.1255028,4.27557083 19.8034844,3.65365417 19.8872092,3.13090417 L20.0296128,2.23840417 C20.112622,1.71565417 19.7490991,1.22052917 19.220989,1.13694583 L15.9049156,0.618445833 C15.3768055,0.535570833 14.8773193,0.895404167 14.7935945,1.41815417 L14.6504752,2.30994583 C14.5667505,2.83340417 14.0665486,3.32569583 13.5384385,3.40644583 L11.4596312,3.8966125 C10.952989,4.0644875 10.2803284,3.8519875 9.96689725,3.42415417 L9.4294844,2.69315417 C9.11533761,2.2646125 8.50493394,2.1689875 8.07199817,2.47994583 L5.35631009,4.43352917 C4.92408991,4.74377917 4.8274844,5.34940417 5.1409156,5.77652917 L5.67832844,6.5082375 C5.99319083,6.93607083 5.98961284,7.6344875 5.67188807,8.0594875 L4.55770459,9.8657375 C4.31726422,10.3381958 3.68825505,10.6569458 3.16086055,10.5747792 L2.25992477,10.4331125 C1.73181468,10.3509458 1.23161284,10.7107792 1.14717248,11.2328208 L0.622640367,14.5152375 C0.539631193,15.0379875 0.903154128,15.5338208 1.43126422,15.6159875 L2.3329156,15.7569458 C2.86031009,15.8398208 3.35836514,16.3356542 3.43994312,16.8591125 L3.93585138,18.9161125 C4.10544771,19.4176125 3.89076881,20.0827375 3.45783303,20.3936958 L2.71862202,20.9256542 C2.28640183,21.2366125 2.18908073,21.8415292 2.50394312,22.2686542 L4.4775578,24.9574875 C4.79098899,25.3853208 5.40282385,25.4816542 5.83432844,25.1699875 L6.57353945,24.6387375 C7.00647523,24.3284875 7.71133761,24.3313208 8.14141101,24.6458208 L9.96546606,25.7486958 C10.4427688,25.9859875 10.7647872,26.6079042 10.681778,27.1313625 L10.5386587,28.0231542 C10.4549339,28.5459042 10.8184569,29.0410292 11.346567,29.1239042 L14.6626404,29.6438208 C15.1900349,29.7266958 15.6909523,29.3668625 15.7746771,28.8441125 L15.9170807,27.9509042 C16.0008055,27.4288625 16.5010073,26.9344458 17.0305486,26.8551125 L19.1079248,26.3642375 C19.614567,26.1956542 20.2865119,26.4088625 20.6013743,26.8366958 L21.1380716,27.5684042 C21.4522183,27.9962375 22.0640532,28.0925708 22.4955578,27.7816125 L25.2112459,25.8280292 C25.6441817,25.5170708 25.7407872,24.9121542 25.4259248,24.4843208" id="Fill-12" fill="#5EB1EF" mask="url(#mask-4)"></path>
                    </g>
                    <path d="M58.2483963,16.4726458 C58.2984881,16.3961458 58.3399927,16.3331042 58.3399927,16.3338125 C58.3399927,16.3338125 58.4301578,16.2077292 58.539644,16.0540208 L58.6484147,15.9215625 C58.6498459,15.9201458 58.6505615,15.9180208 58.6512771,15.9166042 C58.7600477,15.7841458 58.8745431,15.6580625 58.9933321,15.5355208 C58.9940477,15.5355208 58.9940477,15.5355208 58.9940477,15.5348125 C59.4734972,15.0446458 60.0352404,14.6401875 60.6542312,14.3405625 C60.6556624,14.3398542 60.656378,14.3391458 60.6578092,14.3384375 C60.8109468,14.2647708 60.9676624,14.1974792 61.1265248,14.1365625 C61.1301028,14.1344375 61.1329651,14.1337292 61.1358275,14.1330208 L61.2961211,14.0721042 C61.477167,14.0161458 61.6975706,13.9509792 61.7870202,13.9276042 C61.8764697,13.9042292 62.1154789,13.8525208 62.1161945,13.8525208 C62.1161945,13.8525208 62.2557358,13.8298542 62.4253321,13.8008125 L62.5820477,13.7823958 C62.5999376,13.7809792 62.6185431,13.7774375 62.6378642,13.7760208 C62.7874239,13.7604375 62.9384147,13.7512292 63.0901211,13.7476875 C63.1165982,13.7469792 63.1430752,13.7469792 63.1695523,13.7455625 C63.3212587,13.7441458 63.4729651,13.7469792 63.6261028,13.7576042 C63.6490018,13.7590208 63.6719009,13.7611458 63.6948,13.7632708 C63.8550936,13.7746042 64.0161028,13.7916042 64.1771119,13.8171042 C64.3381211,13.8418958 64.4955523,13.8751875 64.6515523,13.9127292 C64.6737358,13.9183958 64.6980661,13.9233542 64.7209651,13.9283125 C64.868378,13.9658542 65.0129284,14.0083542 65.1546165,14.0572292 C65.1818092,14.0657292 65.2090018,14.0749375 65.2347633,14.0841458 C65.3764514,14.1337292 65.5152771,14.1875625 65.651956,14.2470625 C65.6712771,14.2562708 65.6898826,14.2654792 65.7099193,14.2739792 C65.8516073,14.3384375 65.990433,14.4064375 66.1256807,14.4801042 C66.2745248,14.5629792 66.4183596,14.6508125 66.5579009,14.7443125 C66.699589,14.8385208 66.8348367,14.9383958 66.9665064,15.0432292 C66.9715156,15.0474792 66.9765248,15.0517292 66.9822495,15.0559792 C67.1124881,15.1608125 67.238433,15.2713125 67.3579376,15.3860625 C67.3615156,15.3896042 67.364378,15.3931458 67.367956,15.3952708 C67.8602862,15.8677292 68.2660294,16.4216458 68.5672954,17.0293958 C68.5694422,17.0329375 68.5708734,17.0371875 68.5730202,17.0407292 C68.646011,17.1894792 68.7139927,17.3431875 68.7748183,17.4990208 C68.7769651,17.5039792 68.7791119,17.5082292 68.7805431,17.5131875 L68.8413688,17.6704375 C68.8971853,17.8489375 68.9630202,18.0663958 68.9873505,18.1549375 C69.0109651,18.2434792 69.0868183,18.6174792 69.1154422,18.7846458 L69.1326165,18.9383542 C69.1354789,18.9588958 69.1383413,18.9780208 69.1397725,18.9978542 C69.1555156,19.1451875 69.1648183,19.2932292 69.1683963,19.4433958 C69.1691119,19.4703125 69.1698275,19.4979375 69.1698275,19.5248542 C69.1719743,19.6736042 69.1691119,19.8230625 69.1590936,19.9739375 C69.1576624,19.9980208 69.1548,20.0206875 69.1533688,20.0433542 C69.1412037,20.2020208 69.1240294,20.3606875 69.0982679,20.5207708 C69.073222,20.6801458 69.039589,20.8359792 69.0016624,20.9911042 C68.9966532,21.0130625 68.991644,21.0357292 68.9859193,21.0583958 C68.9479927,21.2050208 68.9050569,21.3488125 68.8556807,21.4897708 C68.8470936,21.5152708 68.8385064,21.5407708 68.8292037,21.5662708 C68.7783963,21.7079375 68.724011,21.8460625 68.6631853,21.9806458 C68.6545982,21.9997708 68.646011,22.0174792 68.6381394,22.0358958 L68.5730202,22.1768542 C68.4928734,22.3270208 68.3898275,22.5147292 68.3418826,22.5940625 C68.2946532,22.6733958 68.0728183,23.0006458 67.9647633,23.1529375 L67.8574239,23.2839792 C67.8545615,23.2875208 67.8516991,23.2917708 67.8481211,23.2953125 C67.7414972,23.4249375 67.6291486,23.5503125 67.5117908,23.6707292 C67.509644,23.6735625 67.5067817,23.6756875 67.5046349,23.6785208 C67.0280477,24.1658542 66.4677358,24.5688958 65.8523229,24.8671042 C65.848745,24.8692292 65.8458826,24.8699375 65.8423046,24.8713542 C65.6913138,24.9450208 65.536745,25.0116042 65.3793138,25.0725208 C65.3743046,25.0746458 65.3692954,25.0760625 65.3635706,25.0774792 C65.2054239,25.1376875 65.0429835,25.1922292 64.8791119,25.2389792 L64.7166716,25.2843125 C64.5356257,25.3239792 64.247956,25.3799375 64.0783596,25.4082708 L63.9230752,25.4266875 C63.9030385,25.4288125 63.884433,25.4309375 63.8651119,25.4323542 C63.7155523,25.4486458 63.5638459,25.4578542 63.4121394,25.4606875 L63.3341394,25.4628125 C63.182433,25.4642292 63.0292954,25.4613958 62.8754422,25.4521875 C62.8539743,25.4500625 62.8325064,25.4479375 62.8110385,25.4465208 C62.6500294,25.4344792 62.4883046,25.4174792 62.3258642,25.3919792 C62.1634239,25.3671875 62.0038459,25.3331875 61.8464147,25.2956458 C61.826378,25.2899792 61.8063413,25.2857292 61.785589,25.2814792 C61.6353138,25.2432292 61.4879009,25.1993125 61.3433505,25.1504375 C61.3204514,25.1426458 61.2968367,25.1348542 61.2739376,25.1270625 C61.1286716,25.0760625 60.9862679,25.0201042 60.8481578,24.9591875 C60.8316991,24.9528125 60.8166716,24.9450208 60.801644,24.9379375 L60.656378,24.8727708 C60.5025248,24.7934375 60.3772954,24.7282708 60.3772954,24.7282708 C60.3772954,24.7282708 60.3121761,24.6900208 60.2313138,24.6432708 C60.151167,24.5965208 59.9465064,24.4654792 59.9465064,24.4654792 C59.9465064,24.4654792 59.8198459,24.3762292 59.6645615,24.2678542 L59.530745,24.1608958 C59.5293138,24.1594792 59.5278826,24.1587708 59.5264514,24.1573542 C58.7214055,23.5113542 58.0988367,22.6627708 57.7267266,21.7058125 C57.726011,21.7036875 57.7252954,21.7022708 57.7252954,21.7008542 L57.6630385,21.5414792 C57.6065064,21.3615625 57.5599927,21.2142292 57.5599927,21.2142292 C57.5599927,21.2142292 57.539956,21.1419792 57.5170569,21.0534375 C57.4927266,20.9648958 57.4404881,20.7283125 57.4404881,20.7283125 C57.4404881,20.7283125 57.4168734,20.5887708 57.3875339,20.4187708 L57.3689284,20.2622292 C57.3682128,20.2459375 57.3653505,20.2303542 57.3639193,20.2140625 C57.3474606,20.0638958 57.3388734,19.9123125 57.3345798,19.7600208 C57.3345798,19.7359375 57.3338642,19.7125625 57.3338642,19.6891875 C57.3317174,19.5368958 57.3352954,19.3831875 57.3445982,19.2301875 C57.3460294,19.2103542 57.3481761,19.1912292 57.3496073,19.1728125 C57.3617725,19.0113125 57.3789468,18.8498125 57.4054239,18.6883125 C57.4304697,18.5261042 57.4648183,18.3681458 57.5041761,18.2108958 C57.5084697,18.1924792 57.5120477,18.1733542 57.5177725,18.1549375 C57.5556991,18.0047708 57.6007817,17.8588542 57.6494422,17.7143542 C57.6573138,17.6923958 57.6659009,17.6697292 57.6730569,17.6477708 C57.7245798,17.5032708 57.7803963,17.3623125 57.8433688,17.2241875 C57.8490936,17.2093125 57.8562495,17.1951458 57.8634055,17.1802708 L57.9292404,17.0364792 C58.0101028,16.8841875 58.0759376,16.7588125 58.0759376,16.7588125 C58.0745064,16.7595208 58.1983046,16.5491458 58.2483963,16.4726458 Z" id="Stroke-15" stroke="#231F20" stroke-width="2.1375" stroke-linecap="round" stroke-linejoin="round"></path>
                    <path d="M59.8403119,50.3418875 C62.5037615,50.7760958 65.3275046,50.3673875 67.8807523,48.9903875 C72.7360734,46.3716792 75.147633,41.0414708 74.2438349,35.9336792" id="Stroke-17" stroke="#EAEAEA" stroke-width="2.1375" stroke-linecap="round" stroke-linejoin="round"></path>
                    <path d="M11.0008624,12.99735 L15.4268257,8.61630833" id="Stroke-19" stroke="#EAEAEA" stroke-width="2.1375" stroke-linecap="round"></path>
                    <path d="M11.0008624,8.6166625 L15.4268257,12.9977042" id="Stroke-21" stroke="#EAEAEA" stroke-width="2.1375" stroke-linecap="round"></path>
                    <path d="M5.09232661,60.0828875 C5.09232661,61.4747625 3.95166606,62.6031375 2.54551927,62.6031375 C1.14008807,62.6031375 0.000143119266,61.4747625 0.000143119266,60.0828875 C0.000143119266,58.6910125 1.14008807,57.5626375 2.54551927,57.5626375 C3.95166606,57.5626375 5.09232661,58.6910125 5.09232661,60.0828875" id="Fill-23" fill="#EAEAEA"></path>
                    <polyline id="Stroke-25" stroke="#EAEAEA" stroke-width="2.1375" stroke-linecap="round" stroke-linejoin="round" points="62.7152917 54.329025 58.690778 50.550775 62.5084844 46.5671083"></polyline>
                    <polyline id="Stroke-27" stroke="#231F20" stroke-width="2.1375" stroke-linecap="round" stroke-linejoin="round" points="26.5483376 40.0724708 30.6930716 45.3261792 43.6925945 32.6937625"></polyline>
                </g>
            </g>
        </g>
    </g>
</svg>