<svg viewBox="0 0 83 85" width="82" xmlns="http://www.w3.org/2000/svg">
  <g fill="none" fill-rule="evenodd">
    <path d="M82.255 63.015c0 3.104-2.51 5.62-5.605 5.62-3.096 0-5.606-2.516-5.606-5.62 0-3.102 2.51-5.618 5.606-5.618s5.605 2.516 5.605 5.618M48.055 73.542c0 4.488-3.629 8.126-8.105 8.126-4.476 0-8.104-3.638-8.104-8.126 0-4.486 3.628-8.124 8.104-8.124 4.476 0 8.105 3.638 8.105 8.124" fill="#F77660"/>
    <path stroke="#231F20" stroke-width="2.4" stroke-linecap="round" stroke-linejoin="round" d="M30.938 69.129l-18.71-13.294 9.112-9.43M69.22 65.098L45.57 72.696M62.885 28.399h9.981l2.122 28.245M80.399 62.75c0 3.103-2.51 5.619-5.606 5.619s-5.605-2.516-5.605-5.62c0-3.103 2.51-5.619 5.605-5.619 3.096 0 5.606 2.516 5.606 5.62z"/>
    <path d="M76.22 27.905a3.515 3.515 0 0 1-3.51 3.52 3.515 3.515 0 0 1-3.511-3.52 3.514 3.514 0 0 1 3.51-3.519 3.514 3.514 0 0 1 3.51 3.519" fill="#F77660"/>
    <path d="M76.22 27.905a3.515 3.515 0 0 1-3.51 3.52 3.515 3.515 0 0 1-3.511-3.52 3.514 3.514 0 0 1 3.51-3.519 3.514 3.514 0 0 1 3.51 3.519z" stroke="#231F20" stroke-width="2.4" stroke-linecap="round" stroke-linejoin="round"/>
    <path d="M16.235 55.813a3.515 3.515 0 0 1-3.51 3.52 3.515 3.515 0 0 1-3.512-3.52 3.515 3.515 0 0 1 3.511-3.52 3.515 3.515 0 0 1 3.511 3.52" fill="#F77660"/>
    <path d="M16.235 55.813a3.515 3.515 0 0 1-3.51 3.52 3.515 3.515 0 0 1-3.512-3.52 3.515 3.515 0 0 1 3.511-3.52 3.515 3.515 0 0 1 3.511 3.52z" stroke="#231F20" stroke-width="2.4" stroke-linecap="round" stroke-linejoin="round"/>
    <path d="M47.363 33.52l-.009.014a9.209 9.209 0 0 1-.917 1.245l-.167.188c-.197.198-.514.5-.704.673l-.182.148c-.024.019-.045.039-.068.055-.177.14-.359.274-.548.401l-.098.065c-.189.125-.384.245-.586.356l-.086.045c-.212.114-.43.222-.655.32a9.035 9.035 0 0 1-.683.263l-.09.032c-.22.072-.44.134-.663.19l-.107.025a8.7 8.7 0 0 1-.749.14l-.235.034-.47.04-.253.008c-.139.005-.504.003-.503.003l-.517-.025-.256-.03h-.008a8.885 8.885 0 0 1-4.26-1.68l-.006-.005-.207-.154-.396-.335-.186-.17c-.101-.094-.36-.354-.359-.355l-.318-.351-.15-.187-.045-.056a8.905 8.905 0 0 1-.407-.557c-.02-.03-.04-.059-.058-.09a8.753 8.753 0 0 1-.986-2.024l-.03-.082a9.467 9.467 0 0 1-.19-.67l-.024-.104a8.348 8.348 0 0 1-.13-.678l-.01-.07-.034-.238-.04-.473c-.001.002-.016-.366-.014-.505 0-.138 0-.252.002-.252 0 .001.01-.232.025-.518l.029-.255v-.01c.03-.256.07-.51.122-.762v-.002a8.922 8.922 0 0 1 1.124-2.862c0-.003.002-.003.003-.006a8.5 8.5 0 0 1 .436-.647l.152-.208c.182-.216.409-.477.502-.579.094-.102.354-.361.354-.361l.347-.316.183-.148.065-.054a8.731 8.731 0 0 1 .647-.467c.19-.123.384-.243.585-.353l.09-.049a8.98 8.98 0 0 1 .653-.319 8.85 8.85 0 0 1 .676-.26l.1-.035a8.38 8.38 0 0 1 .652-.187l.123-.03a8.946 8.946 0 0 1 1.445-.211 8.94 8.94 0 0 1 1.517.042l.03.003c.25.028.497.068.742.119l.02.004a8.883 8.883 0 0 1 2.84 1.12l.015.009c.214.132.424.274.627.424l.019.013.205.153c.214.182.474.407.576.5.102.094.501.51.673.702l.147.182.058.07a8.543 8.543 0 0 1 .466.648c.122.188.24.383.35.583.018.03.032.062.05.093.112.212.22.428.318.653.097.225.182.451.26.679l.034.099c.072.218.133.436.186.656l.03.12a8.69 8.69 0 0 1 .138.752l.033.232c.022.257.044.58.049.72.004.138-.01.735-.023 1.017l-.028.254a8.755 8.755 0 0 1-.125.79 8.932 8.932 0 0 1-1.118 2.847m12.831-.849l-1.271-.502c-.745-.294-1.308-1.187-1.252-1.987l-.061-3.202c-.08-.797.453-1.712 1.186-2.031l1.251-.547a1.463 1.463 0 0 0 .753-1.917l-2.004-4.614a1.455 1.455 0 0 0-1.912-.755l-1.252.546c-.733.32-1.764.088-2.291-.514l-2.296-2.23c-.621-.502-.89-1.525-.597-2.27l.5-1.275a1.463 1.463 0 0 0-.82-1.89l-4.67-1.842a1.456 1.456 0 0 0-1.885.822l-.501 1.274c-.292.746-1.185 1.31-1.982 1.254l-3.194.063c-.795.08-1.707-.454-2.026-1.19l-.544-1.254a1.456 1.456 0 0 0-1.913-.755l-4.604 2.009a1.463 1.463 0 0 0-.752 1.918l.545 1.253c.319.735.087 1.769-.514 2.296l-2.223 2.302c-.503.623-1.522.893-2.266.6l-1.27-.502a1.457 1.457 0 0 0-1.885.821l-1.838 4.684a1.461 1.461 0 0 0 .819 1.888l1.271.502c.744.293 1.307 1.187 1.252 1.986l.061 3.204c.08.797-.453 1.71-1.186 2.03l-1.25.547a1.464 1.464 0 0 0-.754 1.917l2.004 4.614a1.457 1.457 0 0 0 1.913.755l1.251-.547c.734-.319 1.765-.087 2.292.515l2.295 2.228c.622.504.89 1.526.597 2.272l-.5 1.275a1.46 1.46 0 0 0 .82 1.888l4.67 1.844a1.456 1.456 0 0 0 1.885-.822l.5-1.275c.293-.745 1.186-1.31 1.982-1.253l3.196-.063c.795-.08 1.707.455 2.026 1.19l.545 1.254a1.457 1.457 0 0 0 1.913.755l4.602-2.008a1.463 1.463 0 0 0 .753-1.918l-.544-1.255c-.32-.734-.09-1.769.512-2.296l2.222-2.302c.503-.622 1.523-.892 2.266-.6l1.272.503a1.455 1.455 0 0 0 1.885-.822l1.838-4.682a1.462 1.462 0 0 0-.82-1.889" fill="#5EB1EF"/>
    <path d="M17.657 32.607a1.461 1.461 0 0 0-.752 1.917l2.003 4.616a1.457 1.457 0 0 0 1.913.754l1.25-.547c.734-.319 1.765-.088 2.292.515l2.296 2.228c.62.504.89 1.526.597 2.272l-.5 1.274a1.462 1.462 0 0 0 .82 1.89l4.67 1.843a1.456 1.456 0 0 0 1.884-.822l.501-1.275c.293-.745 1.185-1.31 1.982-1.254l3.195-.061c.796-.08 1.708.454 2.026 1.188l.546 1.255a1.455 1.455 0 0 0 1.912.754l4.602-2.007a1.464 1.464 0 0 0 .754-1.918l-.545-1.255c-.32-.735-.088-1.769.513-2.296l2.222-2.302c.502-.623 1.523-.892 2.265-.6l1.272.503a1.455 1.455 0 0 0 1.885-.822l1.839-4.683a1.461 1.461 0 0 0-.82-1.888l-1.272-.502c-.745-.294-1.308-1.188-1.252-1.986l-.061-3.204c-.08-.796.454-1.711 1.187-2.03l1.25-.548a1.46 1.46 0 0 0 .753-1.917l-2.002-4.613a1.457 1.457 0 0 0-1.913-.755l-1.253.546c-.733.32-1.763.088-2.29-.514l-2.297-2.229c-.62-.503-.89-1.526-.597-2.271l.5-1.275a1.463 1.463 0 0 0-.82-1.89l-4.67-1.842a1.457 1.457 0 0 0-1.885.822l-.5 1.274c-.293.745-1.185 1.31-1.982 1.254l-3.194.062c-.795.08-1.707-.454-2.026-1.188l-.545-1.255a1.456 1.456 0 0 0-1.912-.755l-4.604 2.01a1.462 1.462 0 0 0-.753 1.916l.545 1.254c.32.735.087 1.769-.513 2.296l-2.223 2.302c-.503.622-1.523.893-2.265.6l-1.273-.503a1.456 1.456 0 0 0-1.883.822l-1.84 4.683a1.463 1.463 0 0 0 .82 1.89l1.272.501c.744.292 1.307 1.187 1.25 1.986l.063 3.203c.08.798-.454 1.712-1.187 2.03l-1.25.547z" stroke="#231F20" stroke-width="2.4" stroke-linecap="round" stroke-linejoin="round"/>
    <path d="M29.043 28.142c0-.138.002-.252.002-.252.001.001.012-.232.025-.518l.029-.256.001-.01c.029-.255.07-.51.121-.76l.001-.003a8.904 8.904 0 0 1 1.123-2.862l.004-.006c.133-.218.274-.43.427-.637l.009-.01.152-.207c.182-.217.408-.479.502-.58.093-.103.353-.362.354-.361l.347-.316.182-.149.066-.053a8.514 8.514 0 0 1 .647-.467c.19-.124.383-.243.584-.353l.092-.049a8.715 8.715 0 0 1 1.328-.58c.032-.01.066-.024.099-.034.217-.072.434-.133.653-.187.04-.011.081-.02.122-.03a9.088 9.088 0 0 1 1.445-.212 9.294 9.294 0 0 1 1.518.043l.03.003c.25.028.497.068.741.118l.022.005a8.879 8.879 0 0 1 2.838 1.12l.016.009c.213.132.423.273.627.425l.018.012.205.153c.216.182.475.407.577.5.102.094.501.51.672.702l.148.182.058.07c.138.175.27.357.397.546l.067.101c.124.19.242.383.352.584.017.03.033.062.049.093a8.671 8.671 0 0 1 .579 1.331c.01.034.023.066.034.1.07.218.133.436.186.655l.029.12a9.116 9.116 0 0 1 .14.753l.032.232c.021.256.044.58.048.72.005.138-.008.734-.023 1.017l-.028.254a9.056 9.056 0 0 1-.121.772l-.004.016a8.95 8.95 0 0 1-2.044 4.109l-.167.188c-.196.196-.513.5-.703.673l-.183.148a8.743 8.743 0 0 1-.615.456l-.097.065a8.574 8.574 0 0 1-.587.355l-.086.046a8.839 8.839 0 0 1-1.338.583c-.03.01-.06.022-.09.03-.22.074-.44.136-.663.192l-.108.024a8.544 8.544 0 0 1-.672.13c-.026.004-.051.008-.076.01l-.235.034-.47.041-.253.008c-.139.005-.504.003-.504.003l-.516-.025-.257-.03h-.008a8.87 8.87 0 0 1-4.259-1.681l-.006-.004-.208-.154a79.735 79.735 0 0 0-.396-.335l-.184-.17c-.102-.095-.36-.354-.36-.355l-.32-.352-.148-.186-.046-.056a8.808 8.808 0 0 1-.406-.557l-.059-.09a8.441 8.441 0 0 1-.359-.595l-.04-.077a8.641 8.641 0 0 1-.586-1.353l-.029-.081a9.608 9.608 0 0 1-.192-.67l-.024-.103a9.113 9.113 0 0 1-.14-.75l-.033-.237-.04-.473c-.002.002-.016-.366-.015-.505zM45.569 72.695c0 4.203-3.4 7.61-7.591 7.61-4.194 0-7.591-3.407-7.591-7.61 0-4.202 3.397-7.61 7.59-7.61 4.192 0 7.592 3.408 7.592 7.61z" stroke="#231F20" stroke-width="2.4" stroke-linecap="round" stroke-linejoin="round"/>
    <path d="M68.438 8.633a4.22 4.22 0 0 0 5.978 0 4.246 4.246 0 0 0 0-5.993 4.22 4.22 0 0 0-5.978 0 4.244 4.244 0 0 0 0 5.993z" stroke="#EAEAEA" stroke-width="2.4"/>
    <path d="M61.745 80.392h6.234M64.862 77.268v6.249M1.398 41.462l4.925-4.936M1.398 36.526l4.925 4.936" stroke="#EAEAEA" stroke-width="2.4" stroke-linecap="round"/>
    <path d="M16.213 5.973a2.837 2.837 0 0 1-2.834 2.84 2.836 2.836 0 0 1-2.832-2.84 2.837 2.837 0 0 1 2.832-2.84 2.837 2.837 0 0 1 2.834 2.84" fill="#EAEAEA"/>
  </g>
</svg>
