<svg viewBox="0 0 93 72" width="90" xmlns="http://www.w3.org/2000/svg">
  <g fill="none" fill-rule="evenodd">
    <path d="M83.757 5.533V2.321a.93.93 0 0 1 .93-.922h5.372a.93.93 0 0 1 .93.922v3.212a.93.93 0 0 1-.93.923h-5.372a.93.93 0 0 1-.93-.923z" stroke="#EAEAEA" stroke-width="2.4"/>
    <path d="M33.119 22.354c.533-3.34 12.6-5.989 27.403-5.963 15.137.027 27.404 2.843 27.398 6.29M87.91 33.385c-.006 2.867-8.503 5.267-20.074 5.977M60.511 27.096c15.138.028 27.405 2.843 27.399 6.29M33.1 22.582h-.01M87.917 22.68l-.005 4.705" stroke="#231F20" stroke-width="2.4" stroke-linecap="round" stroke-linejoin="round"/>
    <path d="M73.573 17.405c0 7.132-5.825 12.914-13.01 12.914s-13.01-5.782-13.01-12.914c0-7.131 5.825-12.913 13.01-12.913s13.01 5.782 13.01 12.913" fill="#5EB1EF"/>
    <path d="M73.456 17.405c0 7.132-5.825 12.914-13.01 12.914s-13.01-5.782-13.01-12.914c0-7.131 5.825-12.913 13.01-12.913s13.01 5.782 13.01 12.913z" stroke="#231F20" stroke-width="2.4" stroke-linecap="round" stroke-linejoin="round"/>
    <path d="M64.117 17.162c0 1.927-1.572 3.488-3.512 3.488s-3.513-1.561-3.513-3.488c0-1.925 1.573-3.486 3.513-3.486s3.512 1.56 3.512 3.486" fill="#FFF"/>
    <path d="M34.999 60.112c8.542 0 16.572 1.71 23.558 4.577l4.99-21.889c-4.883-7.41-15.828-13.329-28.548-13.329-12.721 0-23.666 5.92-28.547 13.326l4.925 21.917c7.019-2.886 15.063-4.602 23.622-4.602z"/>
    <path d="M28.623 31.762C16.77 33.474 9.997 36.65 5.138 42.84l5.021 22.499 13.613-3.79c-4.408-2.322-4.408-8.186-4.408-12.243 0-7.25 3.541-12.807 9.26-17.543z" fill="#EAEAEA"/>
    <path d="M10.463 64.706c6.994-2.878 15.038-4.594 23.597-4.594 8.543 0 16.573 1.71 23.558 4.577l.065.025L62.609 42.8v-.003h-.003C57.724 35.39 46.78 29.471 34.06 29.471c-12.72 0-23.665 5.92-28.546 13.326h-.002v.003l4.926 21.914" stroke="#231F20" stroke-width="2.4" stroke-linecap="round" stroke-linejoin="round"/>
    <g stroke="#EAEAEA" stroke-linecap="round" stroke-width="2.112">
      <path d="M73 66l4.82 4.807M77.82 66L73 70.807"/>
    </g>
    <path d="M40.676 43.438H35.73V38.53c0-1.07-.873-1.938-1.952-1.938a1.945 1.945 0 0 0-1.952 1.938v4.908H26.88a1.944 1.944 0 0 0-1.951 1.938c0 1.07.873 1.936 1.951 1.936h4.945v4.91c0 1.07.874 1.936 1.952 1.936a1.943 1.943 0 0 0 1.952-1.936v-4.91h4.946a1.943 1.943 0 0 0 1.951-1.936c0-1.07-.873-1.938-1.951-1.938" fill="#F77660"/>
    <path d="M40.676 42.855h-4.358v-4.326c0-1.389-1.14-2.52-2.54-2.52-1.4 0-2.539 1.131-2.539 2.52v4.326h-4.358c-1.4 0-2.539 1.13-2.539 2.52 0 1.39 1.14 2.52 2.54 2.52h4.357v4.326c0 1.39 1.14 2.52 2.54 2.52 1.4 0 2.539-1.13 2.539-2.52v-4.325h4.358c1.4 0 2.539-1.131 2.539-2.52 0-1.39-1.14-2.521-2.54-2.521" fill="#F77660"/>
    <path d="M1.402 25.84c0 1.995 1.629 3.61 3.638 3.61 2.01 0 3.639-1.615 3.639-3.61 0-1.994-1.63-3.61-3.64-3.61-2.008 0-3.637 1.616-3.637 3.61z" stroke="#EAEAEA" stroke-width="2.4"/>
    <path d="M17.106 2.202v9.037M21.658 6.72h-9.104" stroke="#EAEAEA" stroke-width="2.4" stroke-linecap="round"/>
    <path d="M88.047 50.588a2.101 2.101 0 0 1-2.11 2.094 2.101 2.101 0 0 1-2.109-2.094c0-1.156.944-2.094 2.11-2.094 1.165 0 2.109.938 2.109 2.094" fill="#EAEAEA"/>
  </g>
</svg>
