<?xml version="1.0" encoding="UTF-8"?>
<svg width="72px" height="59px" viewBox="0 0 72 59" version="1.1" xmlns="http://www.w3.org/2000/svg" xmlns:xlink="http://www.w3.org/1999/xlink">
    <!-- Generator: Sketch 52.5 (67469) - http://www.bohemiancoding.com/sketch -->
    <title>Group 31</title>
    <desc>Created with Sketch.</desc>
    <g id="Set-2---Initial-Sign-In---Logged-In---Pick-Path---Overview---Single-Step" stroke="none" stroke-width="1" fill="none" fill-rule="evenodd">
        <g id="Pick-a-Path---step-2-" transform="translate(-770.000000, -465.000000)">
            <g id="Group-6" transform="translate(170.000000, 441.000000)">
                <g id="Group-31" transform="translate(600.000000, 24.900000)">
                    <path d="M41.207406,8.17372875 C48.903806,15.8737163 48.903806,28.3560038 41.207406,36.0559913 C33.511716,43.7552663 21.033466,43.7552663 13.337066,36.0559913 C5.641376,28.3560038 5.641376,15.8737163 13.337066,8.17372875 C21.033466,0.47374125 33.511716,0.47374125 41.207406,8.17372875" id="Fill-1" fill="#5EB1EF"></path>
                    <path d="M63.297139,53.1857738 L59.966529,56.5181362 C59.344569,57.1408613 58.326429,57.1408613 57.704469,56.5181362 L46.604329,45.4131113 C45.982369,44.7910988 45.982369,43.7722238 46.604329,43.1502112 L49.934939,39.8178488 C50.556899,39.1958362 51.574329,39.1958362 52.196289,39.8178488 L63.297139,50.9235862 C63.919099,51.5455988 63.919099,52.5637612 63.297139,53.1857738" id="Fill-3" fill="#5F63B8"></path>
                    <path d="M16.043302,55.2599325 L16.043302,51.5022075 C16.043302,50.8980075 16.535332,50.4035325 17.137412,50.4035325 L23.553682,50.4035325 C24.155762,50.4035325 24.647792,50.8980075 24.647792,51.5022075 L24.647792,55.2599325 C24.647792,55.864845 24.155762,56.3586075 23.553682,56.3586075 L17.137412,56.3586075 C16.535332,56.3586075 16.043302,55.864845 16.043302,55.2599325 Z" id="Stroke-5" stroke="#EAEAEA" stroke-width="2.1375"></path>
                    <path d="M40.842679,7.233015 C49.057379,15.4517025 49.057379,28.77759 40.842679,36.9962775 C32.627269,45.2156775 19.306959,45.2156775 11.092259,36.9962775 C2.876139,28.77759 2.876139,15.4517025 11.092259,7.233015 C19.306959,-0.9856725 32.627269,-0.9856725 40.842679,7.233015 Z" id="Stroke-7" stroke="#231F20" stroke-width="2.1375" stroke-linecap="round" stroke-linejoin="round"></path>
                    <path d="M41.513842,37.6680225 L44.877822,41.0338725" id="Stroke-9" stroke="#231F20" stroke-width="2.1375" stroke-linecap="round" stroke-linejoin="round"></path>
                    <path d="M60.355893,53.1857738 L57.025283,56.5181362 C56.403323,57.1408613 55.385183,57.1408613 54.763223,56.5181362 L43.662373,45.4131113 C43.040413,44.7910988 43.040413,43.7722238 43.662373,43.1502112 L46.993693,39.8178488 C47.615653,39.1958362 48.633083,39.1958362 49.255043,39.8178488 L60.355893,50.9235862 C60.977853,51.5455988 60.977853,52.5637612 60.355893,53.1857738 Z" id="Stroke-11" stroke="#231F20" stroke-width="2.1375" stroke-linecap="round" stroke-linejoin="round"></path>
                    <polyline id="Stroke-13" stroke="#FFFFFF" stroke-width="2.1375" stroke-linecap="round" stroke-linejoin="round" points="40.208933 15.4997962 31.156433 26.6561212 20.078303 13.3729837 11.147923 22.9019587"></polyline>
                    <path d="M17.225452,14.4234225 C17.225452,15.9666975 18.472212,17.21856 20.010072,17.21856 C21.548642,17.21856 22.795402,15.9666975 22.795402,14.4234225 C22.795402,12.879435 21.548642,11.628285 20.010072,11.628285 C18.472212,11.628285 17.225452,12.879435 17.225452,14.4234225" id="Fill-15" fill="#F77660"></path>
                    <path d="M17.225452,14.4234225 C17.225452,15.9666975 18.472212,17.21856 20.010072,17.21856 C21.548642,17.21856 22.795402,15.9666975 22.795402,14.4234225 C22.795402,12.879435 21.548642,11.628285 20.010072,11.628285 C18.472212,11.628285 17.225452,12.879435 17.225452,14.4234225 Z" id="Stroke-17" stroke="#FFFFFF" stroke-width="2.1375" stroke-linecap="round" stroke-linejoin="round"></path>
                    <path d="M27.382499,26.6562638 C27.382499,28.8785513 29.177379,30.6797513 31.391869,30.6797513 C33.607069,30.6797513 35.401949,28.8785513 35.401949,26.6562638 C35.401949,24.4346887 33.607069,22.6334888 31.391869,22.6334888 C29.177379,22.6334888 27.382499,24.4346887 27.382499,26.6562638" id="Fill-19" fill="#F77660"></path>
                    <path d="M27.147418,26.6562638 C27.147418,28.8785513 28.942298,30.6797513 31.156078,30.6797513 C33.371278,30.6797513 35.166158,28.8785513 35.166158,26.6562638 C35.166158,24.4346887 33.371278,22.6334888 31.156078,22.6334888 C28.942298,22.6334888 27.147418,24.4346887 27.147418,26.6562638 Z" id="Stroke-21" stroke="#FFFFFF" stroke-width="2.1375" stroke-linecap="round" stroke-linejoin="round"></path>
                    <path d="M57.453484,11.8127513 C58.925314,13.2897638 61.313044,13.2897638 62.784874,11.8127513 C64.256704,10.3350263 64.256704,7.93960125 62.784874,6.46187625 C61.313044,4.98486375 58.925314,4.98486375 57.453484,6.46187625 C55.980944,7.93960125 55.980944,10.3350263 57.453484,11.8127513 Z" id="Stroke-23" stroke="#EAEAEA" stroke-width="2.1375"></path>
                    <path d="M62.205798,36.2450888 L70.937378,36.2450888" id="Stroke-25" stroke="#EAEAEA" stroke-width="2.1375" stroke-linecap="round"></path>
                    <path d="M66.571162,31.8636413 L66.571162,40.6259663" id="Stroke-27" stroke="#EAEAEA" stroke-width="2.1375" stroke-linecap="round"></path>
                    <path d="M3.449109,2.1432 C3.449109,3.099375 2.677339,3.874575 1.724519,3.874575 C0.771699,3.874575 0.000639,3.099375 0.000639,2.1432 C0.000639,1.187025 0.771699,0.4125375 1.724519,0.4125375 C2.677339,0.4125375 3.449109,1.187025 3.449109,2.1432" id="Fill-29" fill="#EAEAEA"></path>
                </g>
            </g>
        </g>
    </g>
</svg>