<svg viewBox="0 0 109 98" width="107" xmlns="http://www.w3.org/2000/svg">
  <g fill="none" fill-rule="evenodd">
    <path d="M1.393 18.587V15.42c0-.501.41-.91.91-.91h5.261c.5 0 .91.409.91.91v3.168c0 .502-.41.91-.91.91h-5.26c-.501 0-.911-.408-.911-.91z" stroke="#EAEAEA" stroke-width="2.4"/>
    <path d="M80.61 79.033H19.82c-3.26 0-5.927-2.668-5.927-5.928V23.584c0-3.26 2.668-5.928 5.927-5.928H80.61c3.26 0 5.927 2.668 5.927 5.928v49.521c0 3.26-2.667 5.928-5.927 5.928" fill="#5EB1EF"/>
    <path d="M82.709 17.656c3.26 0 5.926 2.668 5.926 5.928v49.521c0 3.26-2.667 5.928-5.926 5.928H21.917" stroke="#231F20" stroke-width="2.4" stroke-linecap="round" stroke-linejoin="round"/>
    <path d="M21.917 79.033c-3.26 0-5.926-2.668-5.926-5.928V23.584c0-3.26 2.666-5.928 5.926-5.928H82.71" stroke="#231F20" stroke-width="2.4" stroke-linecap="round" stroke-linejoin="round"/>
    <path d="M32.677 70.577a2.588 2.588 0 1 1-5.175 0 2.588 2.588 0 0 1 5.175 0M42.163 70.577a2.587 2.587 0 1 1-5.174 0 2.587 2.587 0 0 1 5.174 0M75.788 63.557H28.78a4.452 4.452 0 0 1-4.438-4.44v-29.75a4.452 4.452 0 0 1 4.438-4.439h47.008a4.452 4.452 0 0 1 4.438 4.44v29.75a4.452 4.452 0 0 1-4.438 4.44" fill="#FFF"/>
    <path stroke="#F77660" stroke-width="2.4" stroke-linecap="round" stroke-linejoin="round" d="M31.435 44.048h5.893l2.653-2.654 5.027 6.933 8.241-16.664 7.666 23.885 3.243-12.09h7.665"/>
    <path d="M62.69 73.165h13.634a1.909 1.909 0 0 0 1.902-1.903v-1.37a1.908 1.908 0 0 0-1.902-1.902H62.689a1.908 1.908 0 0 0-1.902 1.903v1.37c0 1.045.856 1.902 1.902 1.902" fill="#FFF"/>
    <path d="M100.496 29.306a3.562 3.562 0 1 0 7.125 0 3.562 3.562 0 0 0-7.125 0z" stroke="#EAEAEA" stroke-width="2.4"/>
    <path d="M58.854 87.43v8.916M63.31 91.888h-8.913M31.677 6.77l5.376-5.377M31.677 1.393l5.376 5.378" stroke="#EAEAEA" stroke-width="2.4" stroke-linecap="round"/>
    <path d="M99.862 40.738a2.8 2.8 0 1 1-5.599 0 2.8 2.8 0 0 1 5.6 0" fill="#EAEAEA"/>
  </g>
</svg>
