<svg viewBox="0 0 90 98" width="90" xmlns="http://www.w3.org/2000/svg" xmlns:xlink="http://www.w3.org/1999/xlink">
  <defs>
    <path id="a" d="M.01.375h17.166v17.242H.01z"/>
  </defs>
  <g fill="none" fill-rule="evenodd">
    <g transform="translate(72.681 20.974)">
      <mask id="b" fill="#fff">
        <use xlink:href="#a"/>
      </mask>
      <path d="M9.269 17.617H.059L.01 8.996C.01 4.234 3.854.375 8.593.375c4.74 0 8.584 3.86 8.584 8.62 0 4.762-3.843 8.621-8.584 8.621" fill="#5EB1EF" mask="url(#b)"/>
    </g>
    <path d="M61.356 10.306V7.085c0-.51.415-.926.921-.926h5.325c.507 0 .922.416.922.926v3.22c0 .51-.415.926-.922.926h-5.325a.926.926 0 0 1-.921-.925z" stroke="#EAEAEA" stroke-width="2.4"/>
    <path d="M30.864 19.628h49.053M70.407 28.25c0-4.762 3.843-8.621 8.582-8.621 4.742 0 8.584 3.859 8.584 8.62 0 4.761-3.842 8.621-8.584 8.621M20.848 29.728c0-5.578 4.502-10.1 10.055-10.1M52.113 82.651H22.172c-.731 0-1.33-.6-1.33-1.334v-50.96M70.407 28.25v33.543M79.666 36.871h-9.209M62.106 33.114H27.843M62.106 44.012H27.843M52.826 54.767H27.844" stroke="#231F20" stroke-width="2.4" stroke-linecap="round" stroke-linejoin="round"/>
    <path d="M64.763 58.203c-1.422.255-2.76.705-3.991 1.318a14.887 14.887 0 0 0-5.79 5.14l-.312.458-12.381 3.998 10.425 6.543.044-.088c1.466 8.088 9.168 13.468 17.231 12.021 8.08-1.45 13.46-9.205 12.017-17.32-1.443-8.116-9.163-13.52-17.243-12.07" fill="#F77660"/>
    <path d="M57.591 59.648a14.883 14.883 0 0 0-5.79 5.14M49.566 75.65c1.443 8.116 9.163 13.52 17.243 12.07 8.08-1.45 13.46-9.204 12.016-17.32-1.443-8.116-9.164-13.52-17.243-12.07a14.84 14.84 0 0 0-3.991 1.318M49.533 75.787l-10.425-6.544 12.328-3.988" stroke="#231F20" stroke-width="2.4" stroke-linecap="round" stroke-linejoin="round"/>
    <path d="M27.7 68.677a3.148 3.148 0 0 0 3.14 3.154 3.148 3.148 0 0 0 3.141-3.154 3.148 3.148 0 0 0-3.14-3.155 3.148 3.148 0 0 0-3.141 3.155" fill="#F77660"/>
    <path d="M69.212 78.46c-.195.034-.4.02-.592-.04l-2.815-.898-2.332 1.82a1.233 1.233 0 0 1-1.995-.97l-.02-2.967-2.445-1.665a1.236 1.236 0 0 1-.53-1.198 1.23 1.23 0 0 1 .834-1.007l2.803-.937.82-2.85c.132-.458.504-.794.97-.877.468-.084.932.102 1.212.485l1.753 2.388 2.953-.096c.473-.016.906.236 1.13.656.224.419.191.92-.085 1.307l-1.72 2.413 1.004 2.79c.124.346.091.726-.091 1.04-.183.32-.495.54-.854.606" fill="#FFF"/>
    <path d="M22.222 8.652a4.217 4.217 0 0 0 5.981 0 4.263 4.263 0 0 0 0-6.008 4.217 4.217 0 0 0-5.981 0 4.263 4.263 0 0 0 0 6.008z" stroke="#EAEAEA" stroke-width="2.4"/>
    <path d="M1.398 49.822h8.966M5.881 45.32v9.005M31.123 96.575l5.443-5.468M31.123 91.107l5.443 5.468" stroke="#EAEAEA" stroke-width="2.4" stroke-linecap="round"/>
    <path d="M84.322 55.142a1.938 1.938 0 0 1-1.935 1.944 1.938 1.938 0 0 1-1.935-1.944 1.94 1.94 0 0 1 1.935-1.944 1.94 1.94 0 0 1 1.935 1.944" fill="#EAEAEA"/>
  </g>
</svg>
