<svg viewBox="0 0 42 42" xmlns="http://www.w3.org/2000/svg">
  <g fill="none" fill-rule="evenodd">
    <path fill="#5F63B8" fill-rule="nonzero" d="M29.597 0l12.246 12.806H29.597z"/>
    <path d="M39.772 11.392L29.12.288a.803.803 0 0 0-.58-.247H12.665a3.23 3.23 0 0 0-3.222 3.231v11.289H3.008a2.417 2.417 0 0 0-2.41 2.418v12.104a2.417 2.417 0 0 0 2.41 2.418h6.434v7.26a3.228 3.228 0 0 0 3.222 3.226h24.11a3.227 3.227 0 0 0 3.223-3.223V11.952a.81.81 0 0 0-.225-.56zM28.74 2.22l8.744 9.115H28.74V2.22zM3.008 29.887a.804.804 0 0 1-.802-.804V16.979c0-.444.36-.805.802-.805h21.713c.443 0 .803.361.803.805v12.104c0 .443-.36.804-.803.804H3.008zm35.38 8.877c0 .888-.723 1.61-1.614 1.61h-24.11c-.89 0-1.614-.723-1.614-1.612V31.5h13.671c1.33 0 2.41-1.085 2.41-2.418V16.979a2.417 2.417 0 0 0-2.41-2.418h-13.67V3.272c0-.892.723-1.618 1.613-1.618h14.468v10.487c0 .445.36.807.804.807h10.453v25.816z" fill="#231F20"/>
    <g fill="#231F20">
      <path d="M10.324 21.275a1.524 1.524 0 0 0-.837-.571c-.217-.059-.683-.088-1.397-.088H6.206v5.835H7.38V24.25h.766c.531 0 .937-.028 1.218-.084.206-.045.41-.137.609-.276a1.6 1.6 0 0 0 .494-.575c.13-.244.194-.546.194-.904 0-.464-.112-.843-.337-1.136zM9.318 22.88a.773.773 0 0 1-.367.287c-.156.06-.465.09-.928.09H7.38v-1.655h.567c.424 0 .705.013.846.04.19.035.347.12.471.259a.755.755 0 0 1 .187.525.786.786 0 0 1-.133.454zM16.307 22.21a2.552 2.552 0 0 0-.556-.945 1.943 1.943 0 0 0-.876-.537c-.254-.075-.623-.112-1.107-.112H11.62v5.835h2.21c.434 0 .78-.041 1.04-.123.346-.112.621-.267.825-.466.27-.263.477-.606.623-1.031.119-.348.178-.761.178-1.242 0-.546-.063-1.006-.19-1.379zm-1.143 2.396c-.079.262-.182.45-.307.564a1.08 1.08 0 0 1-.474.242c-.146.037-.383.056-.71.056h-.877v-3.865h.527c.479 0 .8.019.964.056.22.048.401.14.544.275.143.135.254.323.333.565.08.241.12.587.12 1.039 0 .45-.04.807-.12 1.068zM21.488 21.603v-.987H17.5v5.835h1.175v-2.48h2.428v-.987h-2.428v-1.381z"/>
    </g>
  </g>
</svg>
