<svg viewBox="0 0 94 88" width="92" xmlns="http://www.w3.org/2000/svg">
  <g fill="none" fill-rule="evenodd">
    <path d="M58 75a5 5 0 1 1-10 0 5 5 0 0 1 10 0" fill="#F77660"/>
    <path d="M26 86l23-68M76 86L53 17" stroke="#231F20" stroke-width="2.4" stroke-linecap="round" stroke-linejoin="round"/>
    <path d="M20.289 64C17.372 64 15 61.631 15 58.72V20.278C15 17.368 17.372 15 20.289 15H83.71C86.628 15 89 17.368 89 20.278V58.72c0 2.911-2.372 5.28-5.289 5.28H20.29z" fill="#FFF"/>
    <path d="M86.515 13h-64.03C18.357 13 15 16.367 15 20.506v38.988C15 63.633 18.357 67 22.485 67h64.03C90.643 67 94 63.633 94 59.494V20.506C94 16.367 90.643 13 86.515 13m-3.553 4C84.638 17 86 18.424 86 20.174v38.652C86 60.576 84.638 62 82.962 62H22.038C20.362 62 19 60.576 19 58.826V20.174C19 18.424 20.362 17 22.038 17h60.924" fill="#5F63B8"/>
    <path d="M84.556 13C88.1 13 91 15.899 91 19.44V59.56C91 63.102 88.1 66 84.556 66h-66.11C14.9 66 12 63.102 12 59.559V19.44C12 15.9 14.9 13 18.445 13h66.11z" stroke="#231F20" stroke-width="2.4" stroke-linecap="round" stroke-linejoin="round"/>
    <path d="M22 51.5a4.5 4.5 0 1 0 9-.001 4.5 4.5 0 0 0-9 .001zM66 51.5a4.5 4.5 0 1 0 9-.001 4.5 4.5 0 0 0-9 .001z" stroke="#F77660" stroke-width="2.4"/>
    <path d="M2 2l6 6M8 2L2 8" stroke="#EAEAEA" stroke-width="2.4" stroke-linecap="round"/>
    <path d="M25 29l9 9M34 29l-9 9M42 22l9 9M51 22l-9 9M73 28l9 9M82 28l-9 9" stroke="#5F63B8" stroke-width="2.4" stroke-linecap="round"/>
    <path d="M11 79a2 2 0 1 1-4.001-.001A2 2 0 0 1 11 79" fill="#EAEAEA"/>
    <path d="M47 74a4 4 0 1 0 8 0 4 4 0 0 0-8 0zM51 66v4" stroke="#231F20" stroke-width="2.4" stroke-linecap="round" stroke-linejoin="round"/>
    <path d="M62.784 34c.566 3.286.033 6.769-1.762 9.92-3.414 5.99-10.363 8.964-17.022 7.85" stroke="#F77660" stroke-width="2.4" stroke-linecap="round" stroke-linejoin="round"/>
    <path stroke="#F77660" stroke-width="2.4" stroke-linecap="round" stroke-linejoin="round" d="M67 37l-4.868-5L57 36.743"/>
    <path d="M38 51.5a4.5 4.5 0 1 0 9-.001 4.5 4.5 0 0 0-9 .001" fill="#FFF"/>
    <path d="M38 51.5a4.5 4.5 0 1 0 9-.001 4.5 4.5 0 0 0-9 .001z" stroke="#F77660" stroke-width="2.4"/>
    <path d="M51 12V9" stroke="#231F20" stroke-width="2.4" stroke-linecap="round" stroke-linejoin="round"/>
    <path d="M53 8a2 2 0 1 1-4 0 2 2 0 0 1 4 0" fill="#231F20"/>
  </g>
</svg>
