<?xml version="1.0" encoding="UTF-8"?>
<svg width="643px" height="161px" viewBox="0 0 643 161" version="1.1" xmlns="http://www.w3.org/2000/svg" xmlns:xlink="http://www.w3.org/1999/xlink">
    <!-- Generator: Sketch 52.5 (67469) - http://www.bohemiancoding.com/sketch -->
    <title>Group 2</title>
    <desc>Created with Sketch.</desc>
    <g id="Set-2---Initial-Sign-In---Logged-In---Pick-Path---Overview---Single-Step" stroke="none" stroke-width="1" fill="none" fill-rule="evenodd" opacity="0.39">
        <g id="Initial-Sign-In" transform="translate(-621.000000, -158.000000)">
            <g id="Group-6" transform="translate(170.000000, 158.000000)">
                <g id="Group-2" transform="translate(451.000000, -21.322785)">
                    <g id="Group-10" transform="translate(0.000000, 0.322785)" fill="#FFFFFF">
                        <path d="M72.7865294,83.0344828 C73.4856067,80.6914351 73.8645066,78.20742 73.8645066,75.6322746 C73.8645066,61.5896515 62.6876589,50.2068966 48.8990584,50.2068966 C36.1912314,50.2068966 25.7085674,59.8788209 24.1426343,72.3878905 C22.5704094,72.0312004 20.938064,71.8368364 19.2609775,71.8368364 C11.0608009,71.8368364 3.89525867,76.3335515 0,83.0344828 L72.7865294,83.0344828 Z" id="Fill-1" opacity="0.398627"></path>
                        <path d="M17.9926362,58.4137931 C17.9926362,60.2797867 16.5082235,61.7931034 14.67787,61.7931034 C12.8475164,61.7931034 11.3637703,60.2797867 11.3637703,58.4137931 C11.3637703,56.5477995 12.8475164,55.0344828 14.67787,55.0344828 C16.5082235,55.0344828 17.9926362,56.5477995 17.9926362,58.4137931" id="Fill-3" opacity="0.7"></path>
                        <path d="M68.9775106,94.6206897 L37.0843451,94.6206897 C36.4777455,94.6206897 35.9852725,93.9717454 35.9852725,93.1724138 C35.9852725,92.3721707 36.4777455,91.7241379 37.0843451,91.7241379 L68.9775106,91.7241379 C69.5841101,91.7241379 70.0765832,92.3721707 70.0765832,93.1724138 C70.0765832,93.9717454 69.5841101,94.6206897 68.9775106,94.6206897" id="Fill-5" opacity="0.7"></path>
                        <path d="M121.662822,176.689655 C121.985474,175.58692 122.16053,174.417892 122.16053,173.206095 C122.16053,166.598949 117.001525,161.241379 110.637722,161.241379 C104.772314,161.241379 99.9345882,165.79346 99.2117097,171.679943 C98.4860851,171.511717 97.7330008,171.420476 96.9586351,171.420476 C93.1739916,171.420476 89.8664617,173.536131 88.0692194,176.689655 L121.662822,176.689655 Z" id="Fill-13" opacity="0.5"></path>
                        <path d="M95.6450663,163.172414 C95.6450663,164.239086 94.797423,165.103448 93.7513832,165.103448 C92.7053435,165.103448 91.8571429,164.239086 91.8571429,163.172414 C91.8571429,162.105742 92.7053435,161.241379 93.7513832,161.241379 C94.797423,161.241379 95.6450663,162.105742 95.6450663,163.172414" id="Fill-15" opacity="0.5"></path>
                        <path d="M74.8731989,175.724138 L49.181293,175.724138 C48.6919907,175.724138 48.2960236,175.076412 48.2960236,174.275862 C48.2960236,173.476201 48.6919907,172.827586 49.181293,172.827586 L74.8731989,172.827586 C75.3617941,172.827586 75.7584683,173.476201 75.7584683,174.275862 C75.7584683,175.076412 75.3617941,175.724138 74.8731989,175.724138" id="Fill-17" opacity="0.5"></path>
                        <path d="M564.576433,124.37225 L570.852857,124.37225 L570.852857,117.972578 L564.576433,117.972578 L564.576433,124.37225 Z M572.362004,127.448276 L563.06804,127.448276 C562.234652,127.448276 561.559647,126.760015 561.559647,125.910263 L561.559647,116.434565 C561.559647,115.585582 562.234652,114.896552 563.06804,114.896552 L572.362004,114.896552 C573.194637,114.896552 573.870398,115.585582 573.870398,116.434565 L573.870398,125.910263 C573.870398,126.760015 573.194637,127.448276 572.362004,127.448276 Z" id="Fill-32" opacity="0.5"></path>
                        <path d="M633.706035,63.5446636 L639.982459,63.5446636 L639.982459,57.1449915 L633.706035,57.1449915 L633.706035,63.5446636 Z M641.491607,66.6206897 L632.197642,66.6206897 C631.364255,66.6206897 630.689249,65.9324288 630.689249,65.0826766 L630.689249,55.6069785 C630.689249,54.7579953 631.364255,54.0689655 632.197642,54.0689655 L641.491607,54.0689655 C642.32424,54.0689655 643,54.7579953 643,55.6069785 L643,65.0826766 C643,65.9324288 642.32424,66.6206897 641.491607,66.6206897 Z" id="Fill-32-Copy" opacity="0.5"></path>
                        <path d="M199.81296,43.1979074 C198.110034,43.1979074 196.726456,44.6093644 196.726456,46.3448276 C196.726456,48.0802908 198.110034,49.4917477 199.81296,49.4917477 C201.515105,49.4917477 202.898684,48.0802908 202.898684,46.3448276 C202.898684,44.6093644 201.515105,43.1979074 199.81296,43.1979074 M199.81296,52.137931 C196.679608,52.137931 194.131075,49.5395128 194.131075,46.3448276 C194.131075,43.1501424 196.679608,40.5517241 199.81296,40.5517241 C202.946313,40.5517241 205.494845,43.1501424 205.494845,46.3448276 C205.494845,49.5395128 202.946313,52.137931 199.81296,52.137931" id="Fill-34" opacity="0.6"></path>
                        <path d="M129.262887,33.9301626 C128.553757,33.9301626 127.976695,34.5186014 127.976695,35.241711 C127.976695,35.9641573 128.553757,36.552596 129.262887,36.552596 C129.972016,36.552596 130.549079,35.9641573 130.549079,35.241711 C130.549079,34.5186014 129.972016,33.9301626 129.262887,33.9301626 M129.262887,37.6551724 C127.957828,37.6551724 126.895434,36.5724981 126.895434,35.241711 C126.895434,33.9109239 127.957828,32.8275862 129.262887,32.8275862 C130.567945,32.8275862 131.630339,33.9109239 131.630339,35.241711 C131.630339,36.5724981 130.567945,37.6551724 129.262887,37.6551724" id="Fill-35" opacity="0.6"></path>
                        <path d="M458.338733,89.5433492 C456.636588,89.5433492 455.252229,90.9547092 455.252229,92.6892572 C455.252229,94.4246011 456.636588,95.8359611 458.338733,95.8359611 C460.040878,95.8359611 461.425238,94.4246011 461.425238,92.6892572 C461.425238,90.9547092 460.040878,89.5433492 458.338733,89.5433492 M458.338733,98.4827586 C455.205381,98.4827586 452.656848,95.8837229 452.656848,92.6892572 C452.656848,89.4955875 455.205381,86.8965517 458.338733,86.8965517 C461.472086,86.8965517 464.020619,89.4955875 464.020619,92.6892572 C464.020619,95.8837229 461.472086,98.4827586 458.338733,98.4827586" id="Fill-36" opacity="0.7"></path>
                        <path d="M115.845612,111.136351 L112.431267,107.655907 L115.614436,104.410429 C116.45848,103.550598 116.45848,102.155484 115.614436,101.295652 C114.770392,100.435087 113.402782,100.435087 112.559458,101.295652 L109.376289,104.54113 L105.961944,101.059217 C105.1179,100.198652 103.751009,100.198652 102.906965,101.059217 C102.062921,101.919048 102.062921,103.314897 102.906965,104.174728 L106.32131,107.655907 L103.138141,110.90065 C102.294817,111.760481 102.294817,113.155595 103.138141,114.015427 C103.560163,114.445709 104.113257,114.660851 104.66635,114.660851 C105.218724,114.660851 105.771818,114.445709 106.19384,114.015427 L109.376289,110.770684 L112.790634,114.251128 C113.212656,114.68141 113.765029,114.896552 114.318123,114.896552 C114.870496,114.896552 115.42359,114.68141 115.845612,114.251128 C116.689656,113.391296 116.689656,111.996182 115.845612,111.136351" id="Fill-38" opacity="0.7"></path>
                        <path d="M539.357065,82.4587165 L537.080835,80.1384205 L539.202948,77.9747691 C539.765644,77.4015483 539.765644,76.4714718 539.202948,75.898251 C538.640252,75.3245407 537.728511,75.3245407 537.166295,75.898251 L535.044183,78.0619025 L532.767953,75.7406276 C532.205257,75.1669173 531.293996,75.1669173 530.7313,75.7406276 C530.168604,76.3138483 530.168604,77.2444143 530.7313,77.8176351 L533.00753,80.1384205 L530.885418,82.3015825 C530.323202,82.8748033 530.323202,83.8048798 530.885418,84.3781005 C531.166766,84.6649557 531.535495,84.8083833 531.904224,84.8083833 C532.272473,84.8083833 532.641202,84.6649557 532.92255,84.3781005 L535.044183,82.2149386 L537.320413,84.5352345 C537.601761,84.8220897 537.97001,84.9655172 538.338739,84.9655172 C538.706988,84.9655172 539.075717,84.8220897 539.357065,84.5352345 C539.919761,83.9620137 539.919761,83.0319373 539.357065,82.4587165" id="Fill-38-Copy" opacity="0.7"></path>
                        <path d="M198.642507,106.206897 L182.990777,106.206897 C182.344,106.206897 181.820324,105.559742 181.820324,104.758621 C181.820324,103.958323 182.344,103.310345 182.990777,103.310345 L198.642507,103.310345 C199.289284,103.310345 199.81296,103.958323 199.81296,104.758621 C199.81296,105.559742 199.289284,106.206897 198.642507,106.206897" id="Fill-59"></path>
                        <path d="M585.220556,162.220615 C582.479147,160.073204 579.352872,163.261366 581.459856,166.055607 C584.202017,168.203018 587.32754,165.014856 585.220556,162.220615 M586.802109,167.667314 C581.756774,171.622628 575.999588,165.752118 579.878303,160.608141 C584.923639,156.653594 590.680824,162.524104 586.802109,167.667314" id="Fill-82" opacity="0.5"></path>
                        <path d="M502.110639,153.69905 L518.734836,153.69905 L518.734836,129.054924 C518.734836,128.571505 519.126566,128.179969 519.610227,128.179969 L526.842493,128.179969 L510.422737,103.819038 L494.002981,128.179969 L501.235934,128.179969 C501.718908,128.179969 502.110639,128.571505 502.110639,129.054924 L502.110639,153.69905 Z M519.610227,155.448276 L501.235934,155.448276 C500.752959,155.448276 500.360543,155.056054 500.360543,154.57332 L500.360543,129.929194 L492.35785,129.929194 C492.034037,129.929194 491.737667,129.750226 491.585365,129.464974 C491.433749,129.179722 491.451587,128.834128 491.632702,128.566019 L509.696903,101.765361 C509.859496,101.523993 510.131855,101.37931 510.422737,101.37931 C510.713619,101.37931 510.985978,101.523993 511.148571,101.765361 L529.212772,128.566019 C529.393887,128.834128 529.411725,129.179722 529.259423,129.464974 C529.107808,129.750226 528.810751,129.929194 528.486938,129.929194 L520.484932,129.929194 L520.484932,154.57332 C520.484932,155.056054 520.093201,155.448276 519.610227,155.448276 Z" id="Fill-85" opacity="0.7"></path>
                        <path d="M475.858225,36.6135043 C471.900545,36.6135043 468.680738,39.8957459 468.680738,43.9310345 C468.680738,47.9663231 471.900545,51.2485646 475.858225,51.2485646 C479.815905,51.2485646 483.035021,47.9663231 483.035021,43.9310345 C483.035021,39.8957459 479.815905,36.6135043 475.858225,36.6135043 M475.858225,54.0689655 C470.375009,54.0689655 465.91458,49.5210691 465.91458,43.9310345 C465.91458,38.3409999 470.375009,33.7931034 475.858225,33.7931034 C481.340749,33.7931034 485.801178,38.3409999 485.801178,43.9310345 C485.801178,49.5210691 481.340749,54.0689655 475.858225,54.0689655" id="Fill-86" opacity="0.6"></path>
                        <path d="M474.910898,28.9655172 C474.126798,28.9655172 473.490427,28.3580541 473.490427,27.6095727 L473.490427,22.5973238 C473.490427,21.8488425 474.126798,21.2413793 474.910898,21.2413793 C475.694999,21.2413793 476.33137,21.8488425 476.33137,22.5973238 L476.33137,27.6095727 C476.33137,28.3580541 475.694999,28.9655172 474.910898,28.9655172" id="Fill-87" opacity="0.6"></path>
                        <path d="M474.910898,68.5517241 C474.126798,68.5517241 473.490427,67.944261 473.490427,67.1957796 L473.490427,62.1835307 C473.490427,61.4350493 474.126798,60.8275862 474.910898,60.8275862 C475.694999,60.8275862 476.33137,61.4350493 476.33137,62.1835307 L476.33137,67.1957796 C476.33137,67.944261 475.694999,68.5517241 474.910898,68.5517241" id="Fill-88" opacity="0.6"></path>
                        <path d="M496.615778,46.3448276 L491.085253,46.3448276 C490.259378,46.3448276 489.589102,45.696 489.589102,44.8965517 C489.589102,44.0971034 490.259378,43.4482759 491.085253,43.4482759 L496.615778,43.4482759 C497.441653,43.4482759 498.111929,44.0971034 498.111929,44.8965517 C498.111929,45.696 497.441653,46.3448276 496.615778,46.3448276" id="Fill-89" opacity="0.6"></path>
                        <path d="M459.683524,46.3448276 L454.153,46.3448276 C453.327124,46.3448276 452.656848,45.696 452.656848,44.8965517 C452.656848,44.0971034 453.327124,43.4482759 454.153,43.4482759 L459.683524,43.4482759 C460.5094,43.4482759 461.179676,44.0971034 461.179676,44.8965517 C461.179676,45.696 460.5094,46.3448276 459.683524,46.3448276" id="Fill-90" opacity="0.6"></path>
                        <path d="M487.77429,33.7931034 C487.511568,33.7931034 487.249358,33.6910873 487.048725,33.4865319 C486.64797,33.0779442 486.64797,32.4156242 487.048725,32.0070365 L489.730854,29.271958 C490.132121,28.8633703 490.78123,28.8633703 491.182498,29.271958 C491.583252,29.6810688 491.583252,30.3428657 491.182498,30.7519766 L488.499856,33.4865319 C488.299222,33.6910873 488.037013,33.7931034 487.77429,33.7931034" id="Fill-91" opacity="0.6"></path>
                        <path d="M459.364976,59.862069 C459.102225,59.862069 458.839987,59.7600528 458.639332,59.5554974 C458.238534,59.1474329 458.238534,58.4845897 458.639332,58.076002 L461.321751,55.3409235 C461.722549,54.9323358 462.371728,54.9323358 462.773039,55.3409235 C463.173837,55.7495112 463.173837,56.4118313 462.773039,56.8209421 L460.09062,59.5554974 C459.889964,59.7600528 459.627727,59.862069 459.364976,59.862069" id="Fill-92" opacity="0.6"></path>
                        <path d="M490.456932,59.862069 C490.19421,59.862069 489.932001,59.7600528 489.731367,59.5554974 L487.048725,56.8209421 C486.64797,56.4118313 486.64797,55.7500343 487.048725,55.3409235 C487.449992,54.9323358 488.099101,54.9323358 488.500369,55.3409235 L491.182498,58.076002 C491.583252,58.4845897 491.583252,59.1469098 491.182498,59.5554974 C490.981864,59.7600528 490.719655,59.862069 490.456932,59.862069" id="Fill-93" opacity="0.6"></path>
                        <path d="M463.941468,33.7931034 C463.678746,33.7931034 463.416537,33.6910873 463.215903,33.4865319 L460.533261,30.7519766 C460.132507,30.3428657 460.132507,29.6810688 460.533261,29.271958 C460.934528,28.8633703 461.583637,28.8633703 461.984905,29.271958 L464.667034,32.0070365 C465.067788,32.4156242 465.067788,33.0779442 464.667034,33.4865319 C464.4664,33.6910873 464.204191,33.7931034 463.941468,33.7931034" id="Fill-94" opacity="0.6"></path>
                    </g>
                    <g id="Group-11-Copy" transform="translate(210.000000, 34.322785)">
                        <path d="M212.363248,147.063514 C212.363248,149.258697 168.548506,151.037975 114.500231,151.037975 C60.4519552,151.037975 16.6367521,149.258697 16.6367521,147.063514 C16.6367521,144.867885 60.4519552,143.088608 114.500231,143.088608 C168.548506,143.088608 212.363248,144.867885 212.363248,147.063514" id="Fill-79" fill="#FFFFFF" opacity="0.2"></path>
                        <path d="M207.470085,127.189873 L207.470085,8.25893025 C207.470085,3.71628385 203.831968,0 199.38543,0 L29.6141099,0 C25.1675727,0 21.5299145,3.71628385 21.5299145,8.25893025 L21.5299145,127.189873 L207.470085,127.189873 Z" id="Fill-40" stroke="#FFFFFF" stroke-width="1.52276128" opacity="0.465848214"></path>
                        <polygon id="Fill-41" stroke="#FFFFFF" stroke-width="1.52276128" fill="#7679C2" points="26.4230769 119.240506 202.576923 119.240506 202.576923 7.94936709 26.4230769 7.94936709"></polygon>
                        <polygon id="Fill-42" stroke="#FFFFFF" stroke-width="1.52276128" points="0 131.164557 229 131.164557 229 127.189873 0 127.189873"></polygon>
                        <path d="M113.869264,131.164557 L106.817749,131.164557 L0.978632479,131.164557 C0.978632479,131.164557 2.39778789,134.14557 9.69735531,134.14557 L106.817749,134.14557 L113.869264,134.14557 L219.303106,134.14557 C226.602212,134.14557 228.021368,131.164557 228.021368,131.164557 L113.869264,131.164557 Z" id="Fill-44" stroke="#FFFFFF" stroke-width="1.52276128" opacity="0.8"></path>
                        <path d="M47.4481762,91.0854397 C47.001303,91.0854397 46.6378154,91.4560527 46.6378154,91.9127345 L46.6378154,106.821913 C46.6378154,107.278595 47.001303,107.649208 47.4481762,107.649208 L179.594098,107.649208 C180.041432,107.649208 180.404459,107.278595 180.404459,106.821913 L180.404459,91.9127345 C180.404459,91.4560527 180.041432,91.0854397 179.594098,91.0854397 L47.4481762,91.0854397 Z M179.594098,109.303797 L47.4481762,109.303797 C46.1075567,109.303797 45.017094,108.190547 45.017094,106.821913 L45.017094,91.9127345 C45.017094,90.5441001 46.1075567,89.4303797 47.4481762,89.4303797 L179.594098,89.4303797 C180.934718,89.4303797 182.025641,90.5441001 182.025641,91.9127345 L182.025641,106.821913 C182.025641,108.190547 180.934718,109.303797 179.594098,109.303797 Z" id="Fill-47" fill="#FFFFFF"></path>
                        <path d="M65.0788284,35.4384742 C61.9294886,35.4384742 59.3674393,38.0399759 59.3674393,41.2378117 C59.3674393,44.4351776 61.9294886,47.0366792 65.0788284,47.0366792 C68.2281683,47.0366792 70.7906803,44.4351776 70.7906803,41.2378117 C70.7906803,38.0399759 68.2281683,35.4384742 65.0788284,35.4384742 M65.0788284,48.6898734 C61.0321234,48.6898734 57.7393162,45.3473009 57.7393162,41.2378117 C57.7393162,37.1278526 61.0321234,33.7848101 65.0788284,33.7848101 C69.126459,33.7848101 72.4188034,37.1278526 72.4188034,41.2378117 C72.4188034,45.3473009 69.126459,48.6898734 65.0788284,48.6898734" id="Fill-49" fill="#FFFFFF"></path>
                        <path d="M57.7390813,96.0777546 C55.9524015,96.0777546 54.4993731,97.5539947 54.4993731,99.3675657 C54.4993731,101.181137 55.9524015,102.656423 57.7390813,102.656423 C59.5252911,102.656423 60.9792594,101.181137 60.9792594,99.3675657 C60.9792594,97.5539947 59.5252911,96.0777546 57.7390813,96.0777546 M57.7390813,104.335443 C55.0412042,104.335443 52.8461538,102.106769 52.8461538,99.3675657 C52.8461538,96.6274083 55.0412042,94.3987342 57.7390813,94.3987342 C60.4374283,94.3987342 62.6324786,96.6274083 62.6324786,99.3675657 C62.6324786,102.106769 60.4374283,104.335443 57.7390813,104.335443" id="Fill-51" fill="#FFFFFF"></path>
                        <path d="M72.5819088,59.6202532 L54.640777,59.6202532 C54.1905912,59.6202532 53.8247863,59.1762365 53.8247863,58.6265823 C53.8247863,58.0780579 54.1905912,57.6329114 54.640777,57.6329114 L72.5819088,57.6329114 C73.0320946,57.6329114 73.3974359,58.0780579 73.3974359,58.6265823 C73.3974359,59.1762365 73.0320946,59.6202532 72.5819088,59.6202532" id="Fill-52" fill="#FFFFFF"></path>
                        <path d="M68.6730191,16.8924051 L46.8056134,16.8924051 C46.3585411,16.8924051 45.9957265,16.4483884 45.9957265,15.8987342 C45.9957265,15.3496449 46.3585411,14.9050633 46.8056134,14.9050633 L68.6730191,14.9050633 C69.1200914,14.9050633 69.482906,15.3496449 69.482906,15.8987342 C69.482906,16.4483884 69.1200914,16.8924051 68.6730191,16.8924051" id="Fill-53" fill="#FFFFFF"></path>
                        <path d="M92.1424823,16.8924051 L81.0754664,16.8924051 C80.6181439,16.8924051 80.2478632,16.4483884 80.2478632,15.8987342 C80.2478632,15.3496449 80.6181439,14.9050633 81.0754664,14.9050633 L92.1424823,14.9050633 C92.5993343,14.9050633 92.9700855,15.3496449 92.9700855,15.8987342 C92.9700855,16.4483884 92.5993343,16.8924051 92.1424823,16.8924051" id="Fill-54" fill="#FFFFFF"></path>
                        <path d="M109.757867,16.8924051 L98.6913215,16.8924051 C98.233999,16.8924051 97.8632479,16.4483884 97.8632479,15.8987342 C97.8632479,15.3496449 98.233999,14.9050633 98.6913215,14.9050633 L109.757867,14.9050633 C110.215189,14.9050633 110.58547,15.3496449 110.58547,15.8987342 C110.58547,16.4483884 110.215189,16.8924051 109.757867,16.8924051" id="Fill-55" fill="#FFFFFF"></path>
                        <path d="M127.373221,16.8924051 L116.306266,16.8924051 C115.848927,16.8924051 115.478632,16.4483884 115.478632,15.8987342 C115.478632,15.3496449 115.848927,14.9050633 116.306266,14.9050633 L127.373221,14.9050633 C127.83009,14.9050633 128.200855,15.3496449 128.200855,15.8987342 C128.200855,16.4483884 127.83009,16.8924051 127.373221,16.8924051" id="Fill-56" fill="#FFFFFF"></path>
                        <path d="M143.031341,16.8924051 L131.964386,16.8924051 C131.507517,16.8924051 131.136752,16.4483884 131.136752,15.8987342 C131.136752,15.3496449 131.507517,14.9050633 131.964386,14.9050633 L143.031341,14.9050633 C143.48868,14.9050633 143.858974,15.3496449 143.858974,15.8987342 C143.858974,16.4483884 143.48868,16.8924051 143.031341,16.8924051" id="Fill-57" fill="#FFFFFF"></path>
                        <path d="M159.668123,16.8924051 L148.601578,16.8924051 C148.144255,16.8924051 147.773504,16.4483884 147.773504,15.8987342 C147.773504,15.3496449 148.144255,14.9050633 148.601578,14.9050633 L159.668123,14.9050633 C160.125916,14.9050633 160.495726,15.3496449 160.495726,15.8987342 C160.495726,16.4483884 160.125916,16.8924051 159.668123,16.8924051" id="Fill-58" fill="#FFFFFF"></path>
                        <path d="M177.283508,16.8924051 L166.216492,16.8924051 C165.75917,16.8924051 165.388889,16.4483884 165.388889,15.8987342 C165.388889,15.3496449 165.75917,14.9050633 166.216492,14.9050633 L177.283508,14.9050633 C177.74083,14.9050633 178.111111,15.3496449 178.111111,15.8987342 C178.111111,16.4483884 177.74083,16.8924051 177.283508,16.8924051" id="Fill-59" fill="#FFFFFF"></path>
                        <path d="M71.6071983,63.5949367 L58.5513828,63.5949367 C58.1029006,63.5949367 57.7393162,63.1504815 57.7393162,62.6015482 C57.7393162,62.0526149 58.1029006,61.6075949 58.5513828,61.6075949 L71.6071983,61.6075949 C72.0556805,61.6075949 72.4188034,62.0526149 72.4188034,62.6015482 C72.4188034,63.1504815 72.0556805,63.5949367 71.6071983,63.5949367" id="Fill-60" fill="#FFFFFF"></path>
                        <path d="M71.6060261,66.5759494 L56.5952907,66.5759494 C56.1461607,66.5759494 55.7820513,66.1314941 55.7820513,65.5819961 C55.7820513,65.0336276 56.1461607,64.5886076 56.5952907,64.5886076 L71.6060261,64.5886076 C72.054694,64.5886076 72.4188034,65.0336276 72.4188034,65.5819961 C72.4188034,66.1314941 72.054694,66.5759494 71.6060261,66.5759494" id="Fill-61" fill="#FFFFFF"></path>
                        <path d="M173.387233,97.3797468 L65.3986315,97.3797468 C64.9521106,97.3797468 64.5897436,96.9357302 64.5897436,96.3860759 C64.5897436,95.8369866 64.9521106,95.3924051 65.3986315,95.3924051 L173.387233,95.3924051 C173.834674,95.3924051 174.196581,95.8369866 174.196581,96.3860759 C174.196581,96.9357302 173.834674,97.3797468 173.387233,97.3797468" id="Fill-62" fill="#FFFFFF"></path>
                        <path d="M108.802977,103.341772 L65.3936039,103.341772 C64.9498584,103.341772 64.5897436,102.897755 64.5897436,102.348101 C64.5897436,101.799577 64.9498584,101.35443 65.3936039,101.35443 L108.802977,101.35443 C109.24718,101.35443 109.606838,101.799577 109.606838,102.348101 C109.606838,102.897755 109.24718,103.341772 108.802977,103.341772" id="Fill-63" fill="#FFFFFF"></path>
                        <path d="M46.4746674,27.4886833 C46.0268524,27.4886833 45.6625988,27.8588888 45.6625988,28.3150685 L45.6625988,76.0213142 C45.6625988,76.477024 46.0268524,76.8476994 46.4746674,76.8476994 L78.7902898,76.8476994 C79.2381048,76.8476994 79.6023585,76.477024 79.6023585,76.0213142 L79.6023585,28.3150685 C79.6023585,27.8588888 79.2381048,27.4886833 78.7902898,27.4886833 L46.4746674,27.4886833 Z M78.7902898,78.5 L46.4746674,78.5 C45.1312224,78.5 44.0384615,77.387974 44.0384615,76.0213142 L44.0384615,28.3150685 C44.0384615,26.9479389 45.1312224,25.835443 46.4746674,25.835443 L78.7902898,25.835443 C80.1337348,25.835443 81.2264957,26.9479389 81.2264957,28.3150685 L81.2264957,76.0213142 C81.2264957,77.387974 80.1337348,78.5 78.7902898,78.5 Z" id="Fill-64" fill="#FFFFFF"></path>
                        <path d="M114.989548,35.4384742 C111.839745,35.4384742 109.277696,38.0399759 109.277696,41.2378117 C109.277696,44.4351776 111.839745,47.0366792 114.989548,47.0366792 C118.138887,47.0366792 120.7014,44.4351776 120.7014,41.2378117 C120.7014,38.0399759 118.138887,35.4384742 114.989548,35.4384742 M114.989548,48.6898734 C110.94238,48.6898734 107.649573,45.3473009 107.649573,41.2378117 C107.649573,37.1278526 110.94238,33.7848101 114.989548,33.7848101 C119.036715,33.7848101 122.32906,37.1278526 122.32906,41.2378117 C122.32906,45.3473009 119.036715,48.6898734 114.989548,48.6898734" id="Fill-67" fill="#FFFFFF"></path>
                        <path d="M122.491702,59.6202532 L104.551033,59.6202532 C104.100384,59.6202532 103.735043,59.1762365 103.735043,58.6265823 C103.735043,58.0780579 104.100384,57.6329114 104.551033,57.6329114 L122.491702,57.6329114 C122.942351,57.6329114 123.307692,58.0780579 123.307692,58.6265823 C123.307692,59.1762365 122.942351,59.6202532 122.491702,59.6202532" id="Fill-68" fill="#FFFFFF"></path>
                        <path d="M121.51748,63.5949367 L108.461152,63.5949367 C108.013146,63.5949367 107.649573,63.1504815 107.649573,62.6015482 C107.649573,62.0526149 108.013146,61.6075949 108.461152,61.6075949 L121.51748,61.6075949 C121.965948,61.6075949 122.32906,62.0526149 122.32906,62.6015482 C122.32906,63.1504815 121.965948,63.5949367 121.51748,63.5949367" id="Fill-69" fill="#FFFFFF"></path>
                        <path d="M121.51626,66.5759494 L106.505108,66.5759494 C106.055965,66.5759494 105.692308,66.1314941 105.692308,65.5819961 C105.692308,65.0336276 106.055965,64.5886076 106.505108,64.5886076 L121.51626,64.5886076 C121.965402,64.5886076 122.32906,65.0336276 122.32906,65.5819961 C122.32906,66.1314941 121.965402,66.5759494 121.51626,66.5759494" id="Fill-70" fill="#FFFFFF"></path>
                        <path d="M96.3848936,27.4886833 C95.9370842,27.4886833 95.572835,27.8588888 95.572835,28.3150685 L95.572835,76.0213142 C95.572835,76.477024 95.9370842,76.8476994 96.3848936,76.8476994 L128.700576,76.8476994 C129.148386,76.8476994 129.513097,76.477024 129.513097,76.0213142 L129.513097,28.3150685 C129.513097,27.8588888 129.148386,27.4886833 128.700576,27.4886833 L96.3848936,27.4886833 Z M128.700576,78.5 L96.3848936,78.5 C95.0414653,78.5 93.9487179,77.387974 93.9487179,76.0213142 L93.9487179,28.3150685 C93.9487179,26.9479389 95.0414653,25.835443 96.3848936,25.835443 L128.700576,25.835443 C130.044005,25.835443 131.136752,26.9479389 131.136752,28.3150685 L131.136752,76.0213142 C131.136752,77.387974 130.044005,78.5 128.700576,78.5 Z" id="Fill-71" fill="#FFFFFF"></path>
                        <path d="M161.964138,35.4384742 C158.814236,35.4384742 156.251643,38.0399759 156.251643,41.2378117 C156.251643,44.4351776 158.814236,47.0366792 161.964138,47.0366792 C165.113114,47.0366792 167.675707,44.4351776 167.675707,41.2378117 C167.675707,38.0399759 165.113114,35.4384742 161.964138,35.4384742 M161.964138,48.6898734 C157.916843,48.6898734 154.623932,45.3473009 154.623932,41.2378117 C154.623932,37.1278526 157.916843,33.7848101 161.964138,33.7848101 C166.011433,33.7848101 169.303419,37.1278526 169.303419,41.2378117 C169.303419,45.3473009 166.011433,48.6898734 161.964138,48.6898734" id="Fill-74" fill="#FFFFFF"></path>
                        <path d="M171.42377,59.6202532 L153.482213,59.6202532 C153.031553,59.6202532 152.666667,59.1762365 152.666667,58.6265823 C152.666667,58.0780579 153.031553,57.6329114 153.482213,57.6329114 L171.42377,57.6329114 C171.87443,57.6329114 172.239316,58.0780579 172.239316,58.6265823 C172.239316,59.1762365 171.87443,59.6202532 171.42377,59.6202532" id="Fill-75" fill="#FFFFFF"></path>
                        <path d="M168.491839,63.5949367 L155.435511,63.5949367 C154.987043,63.5949367 154.623932,63.1504815 154.623932,62.6015482 C154.623932,62.0526149 154.987043,61.6075949 155.435511,61.6075949 L168.491839,61.6075949 C168.940769,61.6075949 169.303419,62.0526149 169.303419,62.6015482 C169.303419,63.1504815 168.940769,63.5949367 168.491839,63.5949367" id="Fill-76" fill="#FFFFFF"></path>
                        <path d="M170.447861,66.5759494 L155.436754,66.5759494 C154.987599,66.5759494 154.623932,66.1314941 154.623932,65.5819961 C154.623932,65.0336276 154.987599,64.5886076 155.436754,64.5886076 L170.447861,64.5886076 C170.897478,64.5886076 171.260684,65.0336276 171.260684,65.5819961 C171.260684,66.1314941 170.897478,66.5759494 170.447861,66.5759494" id="Fill-77" fill="#FFFFFF"></path>
                        <path d="M145.316116,27.4886833 C144.868757,27.4886833 144.504038,27.8588888 144.504038,28.3150685 L144.504038,76.0213142 C144.504038,76.477024 144.868757,76.8476994 145.316116,76.8476994 L177.63214,76.8476994 C178.080422,76.8476994 178.44468,76.477024 178.44468,76.0213142 L178.44468,28.3150685 C178.44468,27.8588888 178.080422,27.4886833 177.63214,27.4886833 L145.316116,27.4886833 Z M177.63214,78.5 L145.316116,78.5 C143.973116,78.5 142.880342,77.387974 142.880342,76.0213142 L142.880342,28.3150685 C142.880342,26.9479389 143.973116,25.835443 145.316116,25.835443 L177.63214,25.835443 C178.975602,25.835443 180.068376,26.9479389 180.068376,28.3150685 L180.068376,76.0213142 C180.068376,77.387974 178.975602,78.5 177.63214,78.5 Z" id="Fill-78" fill="#FFFFFF"></path>
                    </g>
                </g>
            </g>
        </g>
    </g>
</svg>