<svg viewBox="0 0 90 81" width="88" xmlns="http://www.w3.org/2000/svg">
  <g fill="none" fill-rule="evenodd">
    <path d="M5.547 72.873H2.326a.928.928 0 0 1-.926-.923v-5.335c0-.508.417-.924.926-.924h3.221c.509 0 .926.416.926.924v5.335a.928.928 0 0 1-.926.923z" stroke="#EAEAEA" stroke-width="2.4"/>
    <path d="M49.653 49.225H80.95c0-17.24-14.013-31.218-31.297-31.218v31.218z" fill="#EAEAEA"/>
    <path d="M18.25 48.466h-2.379M77.964 48.466h-2.38" stroke="#231F20" stroke-width="2.4" stroke-linecap="round" stroke-linejoin="round"/>
    <path d="M67.783 24.529l4.2-4.19c.501-.5 1.32-.5 1.821 0l3.879 3.868c.5.5.5 1.318 0 1.817l-4.067 4.057-5.833-5.552zM44.992 16.767V10.84c0-.706.58-1.285 1.287-1.285h5.486a1.29 1.29 0 0 1 1.287 1.285v5.738l-8.06.188z" fill="#5EB1EF"/>
    <path d="M56.625 10.027H40.711c-.99 0-1.8-.807-1.8-1.794V3.39c0-.988.81-1.796 1.8-1.796h15.914c.99 0 1.8.808 1.8 1.796v4.842c0 .987-.81 1.794-1.8 1.794" fill="#5EB1EF"/>
    <path d="M78.198 48.571c0 17.242-14.013 31.218-31.297 31.218-17.286 0-31.297-13.976-31.297-31.218 0-17.24 14.011-31.217 31.297-31.217 17.284 0 31.297 13.976 31.297 31.217z" stroke="#231F20" stroke-width="2.4" stroke-linecap="round" stroke-linejoin="round"/>
    <path d="M62.04 42.957H50.952V31.895c0-2.41-1.96-4.366-4.378-4.366a4.373 4.373 0 0 0-4.377 4.366v11.062H31.108a4.372 4.372 0 0 0-4.378 4.366c0 2.411 1.96 4.365 4.378 4.365h11.088V62.75a4.372 4.372 0 0 0 4.377 4.366 4.372 4.372 0 0 0 4.378-4.366V51.688h11.09a4.371 4.371 0 0 0 4.377-4.365 4.372 4.372 0 0 0-4.377-4.366" fill="#F77660"/>
    <path d="M64.132 52.417H48.666a4.372 4.372 0 0 1-4.378-4.366V32.623a4.372 4.372 0 0 1 4.378-4.366 4.372 4.372 0 0 1 4.377 4.366v11.062h11.089a4.372 4.372 0 0 1 4.378 4.366 4.372 4.372 0 0 1-4.378 4.366zM42.87 17.042v-5.926c0-.706.58-1.285 1.287-1.285h5.486a1.29 1.29 0 0 1 1.287 1.285v5.737M66.13 23.549l4.201-4.19c.501-.499 1.32-.499 1.821 0l3.878 3.87c.501.499.501 1.316 0 1.815l-4.067 4.057M54.858 9.831H38.943c-.99 0-1.8-.807-1.8-1.794V3.195c0-.988.81-1.796 1.8-1.796h15.915c.99 0 1.799.808 1.799 1.796v4.842c0 .987-.81 1.794-1.8 1.794zM46.866 76.327v3.25M46.866 17.354v2.532M27.427 67.843l-2.49 2.484M68.376 26.999l-1.261 1.257M26.715 28.101l-1.639-1.634M69.187 70.465l-1.9-1.895" stroke="#231F20" stroke-width="2.4" stroke-linecap="round" stroke-linejoin="round"/>
    <path d="M78.08 6.176a4.594 4.594 0 0 0 4.6 4.588c2.541 0 4.6-2.054 4.6-4.588a4.594 4.594 0 0 0-4.6-4.589c-2.54 0-4.6 2.054-4.6 4.589z" stroke="#EAEAEA" stroke-width="2.4"/>
    <path d="M82.647 73.539l5.783 5.768M88.43 73.539l-5.783 5.768" stroke="#EAEAEA" stroke-width="2.4" stroke-linecap="round"/>
    <path d="M16.414 12.759c0 1.157-.94 2.095-2.1 2.095-1.16 0-2.1-.938-2.1-2.095 0-1.157.94-2.095 2.1-2.095 1.16 0 2.1.938 2.1 2.095" fill="#EAEAEA"/>
  </g>
</svg>
