<svg viewBox="0 0 43 44" xmlns="http://www.w3.org/2000/svg">
  <g fill="none" fill-rule="evenodd">
    <path fill="#5F63B8" fill-rule="nonzero" d="M3.763 29.936h20.962v7.573H3.763zM3.763 13.936h20.962v7.573H3.763z"/>
    <g fill="#231F20">
      <path d="M8.6 5.053h1.433V3.61H8.6zM11.466 5.053H12.9V3.61h-1.434zM14.333 5.053h1.433V3.61h-1.433zM26.516 5.053h13.617V3.61H26.516zM28.666 12.986h11.467v-1.442H28.666zM34.4 18.756h5.733v-1.442H34.4zM28.666 24.526h11.467v-1.442H28.666zM28.666 36.066h11.467v-1.442H28.666zM34.4 30.296h5.733v-1.442H34.4z"/>
      <path d="M39.416 42.557H7.166v-3.606h15.05c1.976 0 3.584-1.618 3.584-3.606v-4.328c0-1.988-1.608-3.606-3.584-3.606H7.166v-4.327h15.05c1.976 0 3.584-1.618 3.584-3.607V15.15c0-1.989-1.608-3.606-3.584-3.606H7.166V7.937h34.4v32.457a2.16 2.16 0 0 1-2.15 2.163zM4.3 35.345v-3.606a.725.725 0 0 0-.157-.451l-1.935-2.434h20.008c1.186 0 2.15.97 2.15 2.163v4.328a2.16 2.16 0 0 1-2.15 2.164H6.45a2.16 2.16 0 0 1-2.15-2.164zm0-15.868v-3.606a.725.725 0 0 0-.157-.45l-1.935-2.435h20.008c1.186 0 2.15.971 2.15 2.164v4.327a2.16 2.16 0 0 1-2.15 2.164H6.45a2.16 2.16 0 0 1-2.15-2.164zM7.166 6.495h34.4V2.167h-34.4v4.328zM42.283.725H6.45a.719.719 0 0 0-.717.721v10.098H.716a.715.715 0 0 0-.645.409.726.726 0 0 0 .086.763l2.71 3.408v3.353a3.607 3.607 0 0 0 2.866 3.534v4.4H.716a.715.715 0 0 0-.645.41.726.726 0 0 0 .086.762l2.71 3.409v3.353a3.607 3.607 0 0 0 2.866 3.533v4.4c0 .399.32.722.717.722h32.966C41.392 44 43 42.382 43 40.394V1.446a.719.719 0 0 0-.717-.721z"/>
      <path d="M6.45 16.593h5.733V15.15H6.45zM13.616 16.593H17.2V15.15h-3.584zM18.633 16.593h3.583V15.15h-3.583zM6.45 19.478h3.583v-1.443H6.45zM11.466 19.478h10.75v-1.443h-10.75zM16.483 35.345h5.733v-1.442h-5.733zM11.466 35.345h3.584v-1.442h-3.584zM6.45 35.345h3.583v-1.442H6.45zM18.633 32.46h3.583v-1.442h-3.583zM6.45 32.46H17.2v-1.442H6.45z"/>
    </g>
  </g>
</svg>
