<?xml version="1.0" encoding="UTF-8"?>
<svg width="83px" height="67px" viewBox="0 0 83 67" version="1.1" xmlns="http://www.w3.org/2000/svg" xmlns:xlink="http://www.w3.org/1999/xlink">
    <!-- Generator: Sketch 52.5 (67469) - http://www.bohemiancoding.com/sketch -->
    <title>Group 31</title>
    <desc>Created with Sketch.</desc>
    <g id="Set-2---Initial-Sign-In---Logged-In---Pick-Path---Overview---Single-Step" stroke="none" stroke-width="1" fill="none" fill-rule="evenodd">
        <g id="Pick-a-Path---step-2-" transform="translate(-170.000000, -456.000000)">
            <g id="Group-6" transform="translate(170.000000, 441.000000)">
                <g id="Group-31" transform="translate(0.000000, 15.900000)">
                    <path d="M36.9340365,10.1761107 C21.3722587,10.1761107 8.71171905,22.6417806 8.71171905,37.9646738 C8.71171905,53.2869262 21.3722587,65.7525961 36.9340365,65.7525961 C52.4964651,65.7525961 65.1570048,53.2869262 65.1570048,37.9646738 C65.1570048,22.6417806 52.4964651,10.1761107 36.9340365,10.1761107 M36.9340365,16.4326544 C48.9919413,16.4326544 58.8026556,26.0923631 58.8026556,37.9646738 C58.8026556,49.8376252 48.9919413,59.4966932 36.9340365,59.4966932 C24.8761317,59.4966932 15.0654175,49.8376252 15.0654175,37.9646738 C15.0654175,26.0923631 24.8761317,16.4326544 36.9340365,16.4326544" id="Fill-1" fill="#5EB1EF"></path>
                    <path d="M36.9340365,22.6969515 C28.3839095,22.6969515 21.428227,29.5455728 21.428227,37.9647379 C21.428227,46.3832621 28.3839095,53.2318835 36.9340365,53.2318835 C45.4848143,53.2318835 52.4404968,46.3832621 52.4404968,37.9647379 C52.4404968,29.5455728 45.4848143,22.6969515 36.9340365,22.6969515 M36.9340365,29.9966796 C41.3965286,29.9966796 45.0273063,33.570932 45.0273063,37.9647379 C45.0273063,42.3585437 41.3965286,45.9327961 36.9340365,45.9327961 C32.4721952,45.9327961 28.8414175,42.3585437 28.8414175,37.9647379 C28.8414175,33.570932 32.4721952,29.9966796 36.9340365,29.9966796" id="Fill-3" fill="#5EB1EF"></path>
                    <path d="M61.2396175,27.4145417 C62.6329667,30.6575126 63.4028556,34.2221534 63.4028556,37.9649301 C63.4028556,52.9341146 51.0787762,65.0691437 35.8749349,65.0691437 C20.6717444,65.0691437 8.34701429,52.9341146 8.34701429,37.9649301 C8.34701429,22.9957456 20.6717444,10.8600757 35.8749349,10.8600757 C39.744554,10.8600757 43.4273952,11.6463087 46.7685698,13.0649883" id="Stroke-5" stroke="#231F20" stroke-width="1.92909375" stroke-linecap="round" stroke-linejoin="round"></path>
                    <path d="M37.3007587,37.3253068 L59.7726635,14.595035" id="Stroke-7" stroke="#231F20" stroke-width="1.92909375" stroke-linecap="round" stroke-linejoin="round"></path>
                    <polygon id="Fill-9" fill="#F77660" points="75.2215286 10.602932 68.0790683 8.68060194 66.1273381 1.64871845 54.019973 13.5703689 55.9704016 20.5971262 55.9671476 20.6009709 55.972354 20.6016117 55.9736556 20.6067379 55.9769095 20.6028932 63.1141635 22.5239417"></polygon>
                    <polygon id="Stroke-11" stroke="#231F20" stroke-width="1.92909375" stroke-linecap="round" stroke-linejoin="round" points="66.9893794 7.35707767 54.8820143 19.2780874 52.9289825 12.2410777 65.0363476 0.320708738"></polygon>
                    <polygon id="Stroke-13" stroke="#231F20" stroke-width="1.92909375" stroke-linecap="round" stroke-linejoin="round" points="66.9836524 7.35086214 54.8762873 19.2718718 62.0226524 21.1948427 74.1293667 9.27447379"></polygon>
                    <path d="M59.8948175,14.9006214 L62.974373,15.5894563" id="Stroke-15" stroke="#231F20" stroke-width="1.92909375" stroke-linecap="round" stroke-linejoin="round"></path>
                    <path d="M64.0207841,10.8381612 L67.1003397,11.5269961" id="Stroke-17" stroke="#231F20" stroke-width="1.92909375" stroke-linecap="round" stroke-linejoin="round"></path>
                    <path d="M9.35092857,5.23136505 C9.35092857,7.12678252 10.910881,8.66272427 12.8359286,8.66272427 C14.7609762,8.66272427 16.3215794,7.12678252 16.3215794,5.23136505 C16.3215794,3.33658835 14.7609762,1.80000583 12.8359286,1.80000583 C10.910881,1.80000583 9.35092857,3.33658835 9.35092857,5.23136505 Z" id="Stroke-19" stroke="#EAEAEA" stroke-width="1.92909375"></path>
                    <path d="M77.7293619,20.1701126 L77.7293619,27.4301126" id="Stroke-21" stroke="#EAEAEA" stroke-width="1.92909375" stroke-linecap="round"></path>
                    <path d="M81.416173,23.8001767 L74.0420302,23.8001767" id="Stroke-23" stroke="#EAEAEA" stroke-width="1.92909375" stroke-linecap="round"></path>
                    <path d="M70.0533159,37.2001631 L75.1490302,37.2001631" id="Stroke-25" stroke="#EAEAEA" stroke-width="1.92909375" stroke-linecap="round"></path>
                    <path d="M72.6012381,34.6908816 L72.6012381,39.7088039" id="Stroke-27" stroke="#EAEAEA" stroke-width="1.92909375" stroke-linecap="round"></path>
                    <path d="M4.63104762,53.4874252 C4.63104762,54.7465515 3.59433333,55.7673087 2.31552381,55.7673087 C1.03671429,55.7673087 0,54.7465515 0,53.4874252 C0,52.228299 1.03671429,51.206901 2.31552381,51.206901 C3.59433333,51.206901 4.63104762,52.228299 4.63104762,53.4874252" id="Fill-29" fill="#EAEAEA"></path>
                </g>
            </g>
        </g>
    </g>
</svg>