<svg viewBox="0 0 90 86" width="90" xmlns="http://www.w3.org/2000/svg" xmlns:xlink="http://www.w3.org/1999/xlink">
  <defs>
    <path id="a" d="M0 85.562h89.593V0H0z"/>
  </defs>
  <g fill="none" fill-rule="evenodd">
    <path d="M70.474 27.623c.079.407.171.832.267 1.268.563 2.553 1.261 5.733-.537 8.125-.39.52-.886.96-1.465 1.341.973-.427 1.757-.981 2.34-1.686 1.901-2.297 1.198-5.49.634-8.056-.096-.438-.19-.866-.269-1.276-1.033-5.388-13.189-9.54-29.78-7.934 16.084-1.309 27.784 2.863 28.81 8.218" fill="#F77660"/>
    <path d="M57.207 28.346l6.632-.543a1.292 1.292 0 0 1 1.386 1.18 1.288 1.288 0 0 1-1.177 1.391l-6.632.543a1.288 1.288 0 0 1-1.386-1.18 1.289 1.289 0 0 1 1.177-1.391M19.52 39.734l-6.439 2.153a1.286 1.286 0 0 1-1.627-.815 1.292 1.292 0 0 1 .813-1.632l6.44-2.154a1.286 1.286 0 0 1 1.625.816 1.29 1.29 0 0 1-.812 1.632M8.379 35.13c-.74 1.063-1.072 2.046-.934 2.765.083.429.157.88.233 1.343.373 2.283.76 4.643 2.356 5.678 1.199.777 3.131.818 5.741.117 7.433-1.998 7.056-3.886 6.306-7.65l-.148-.75c-.159-.826.029-1.654.542-2.394.957-1.373 3.5-3.406 14.5-5.202 11.013-1.794 16.216-1.081 16.867 2.317l.138.744c.7 3.823 1.044 5.744 8.856 5.26 2.706-.166 4.494-.804 5.316-1.897 1.084-1.443.573-3.768.078-6.016-.1-.459-.198-.907-.28-1.336-.522-2.721-7.887-6.392-20.345-6.392-3.57 0-7.555.302-11.918 1.013-14.554 2.372-24.202 7.937-27.308 12.4" fill="#F77660"/>
    <path d="M24.584 35.717c-.163.235-.139.361-.126.43l.144.73c.702 3.52.866 6.256-2.571 8.425 4.79-2.419 4.182-5.49 3.54-8.706l-.143-.734c-.089-.46.318-.978 1.134-1.502-1.26.584-1.776 1.067-1.978 1.357M54.702 79.374H24.024c-.71 0-1.285-.578-1.285-1.29 0-.712.576-1.29 1.285-1.29h30.678c.71 0 1.286.578 1.286 1.29 0 .712-.576 1.29-1.286 1.29zM27.73 61.324c.618-5.323 5.67-9.23 11.344-9.23 5.673 0 10.725 3.907 11.343 9.23.283 2.433-.398 4.764-1.762 6.68a2.565 2.565 0 0 1-.683-.396c-.448-.322-.779-.885-1.099-1.49l-.064-.122a.877.877 0 0 0-.813-.465.878.878 0 0 0-.835.919c.038.848.109 1.77.545 2.681.176.402.424.799.716 1.171-1.951 1.486-4.48 2.404-7.348 2.404-6.995 0-12.037-5.407-11.344-11.381zm30.09-6.366c-.557-4.077-4.576-7.152-9.35-7.152h-.668c-.02 0-.038-.005-.057-.006h-4.856c-.02 0-.037.006-.058.006h-7.198c-.02 0-.039-.005-.058-.006H30.72c-.02 0-.038.006-.059.006h-1.312c-1.573 0-3.066.347-4.384.953-2.321 1.704-3.9 4.246-4.193 7.19l-1.818 18.254a9.767 9.767 0 0 0 1.208 5.734c1.8 1.876 4.42 2.954 7.252 2.954h23.634c2.995 0 5.745-1.187 7.544-3.256 1.447-1.664 2.089-3.716 1.807-5.778l-2.58-18.899z" fill="#F77660"/>
    <mask id="b" fill="#fff">
      <use xlink:href="#a"/>
    </mask>
    <path fill="#F77660" mask="url(#b)" d="M44.116 45.22h2.4v-2.931h-2.4zM32.013 45.22h2.333v-2.931h-1.98c-.222.383-.353.84-.353 1.333v1.598zM49.087 45.24c.468.02.924.075 1.377.143V43.62c0-1.1-.647-2.022-1.528-2.324.093.264.151.546.151.843v3.1zM63.488 73.887l-.415-3.124c-.164-.01-.337-.016-.505-.024l.377 2.769c.128.933.106 1.86-.035 2.765.2-.01.399-.021.593-.035a9.725 9.725 0 0 0-.015-2.351M60.529 81.33c-2.288 2.632-5.743 4.14-9.482 4.14H28.693c.475.058.956.093 1.44.093h22.212c3.671 0 7.114-1.661 9.212-4.442.531-.705.953-1.466 1.277-2.258a65.83 65.83 0 0 1-.726.036 10.454 10.454 0 0 1-1.579 2.431M62.213 68.137l.515.026-1.664-12.53c-.242-1.82-.993-3.481-2.102-4.875a9.815 9.815 0 0 1 1.405 3.852l1.846 13.527zM36.917 45.22h2.109v-1.598c0-1.344-.958-2.437-2.137-2.437h-.16c.122.293.188.615.188.955v3.08z"/>
    <path d="M86.987 52.32H79.24c-.016 0-.035-.018-.035-.036l.035-4.572 7.78.036-.034 4.572zm0-7.188H79.24a2.613 2.613 0 0 0-2.606 2.616v4.536A2.613 2.613 0 0 0 79.24 54.9h7.746a2.614 2.614 0 0 0 2.606-2.616v-4.536a2.614 2.614 0 0 0-2.606-2.616zM52.814 3.34a2.597 2.597 0 0 1 3.676 0 2.617 2.617 0 0 1 0 3.689 2.597 2.597 0 0 1-3.676 0 2.617 2.617 0 0 1 0-3.688m1.838 7.029a5.146 5.146 0 0 0 3.656-1.517 5.205 5.205 0 0 0 0-7.336 5.164 5.164 0 0 0-7.312 0 5.205 5.205 0 0 0 0 7.336 5.146 5.146 0 0 0 3.656 1.517M4.016 21.736c1.684 0 3.05-1.37 3.05-3.06a3.055 3.055 0 0 0-3.05-3.06 3.056 3.056 0 0 0-3.05 3.06c0 1.69 1.366 3.06 3.05 3.06M7.497 72.594a1.282 1.282 0 0 0-1.818 0l-1.742 1.748-1.743-1.748a1.282 1.282 0 0 0-1.818 0 1.292 1.292 0 0 0 0 1.824l1.743 1.748-1.743 1.748a1.292 1.292 0 0 0 0 1.824 1.28 1.28 0 0 0 1.818 0l1.743-1.749 1.742 1.749a1.279 1.279 0 0 0 1.818 0 1.292 1.292 0 0 0 0-1.824l-1.742-1.748 1.742-1.748a1.292 1.292 0 0 0 0-1.824" fill="#EAEAEA" mask="url(#b)"/>
    <path d="M47.605 21.718c12.458 0 19.823 3.67 20.344 6.392.083.429.18.877.281 1.336.496 2.248 1.006 4.573-.078 6.016-.822 1.093-2.61 1.731-5.315 1.897-7.813.483-8.156-1.437-8.857-5.26l-.138-.744c-.65-3.398-5.854-4.111-16.866-2.317-11.001 1.795-13.544 3.829-14.5 5.203-.514.739-.702 1.567-.543 2.392l.148.751c.75 3.763 1.127 5.652-6.306 7.65-2.61.7-4.542.66-5.741-.117-1.596-1.036-1.983-3.395-2.356-5.678-.076-.463-.15-.913-.233-1.342-.138-.72.194-1.703.934-2.766 3.106-4.463 12.754-10.027 27.308-12.4 4.364-.71 8.349-1.013 11.918-1.013M8.024 44.627c.49-.396 1.196-.402 1.67.039a1.29 1.29 0 0 1 .08 1.802c-.007.006-.008.015-.013.02-.253.274-.48.548-.7.823.976.525 2.115.802 3.456.802 1.16 0 2.464-.196 3.923-.586 2.488-.67 4.294-1.407 5.59-2.225 3.438-2.17 3.274-4.904 2.572-8.424l-.144-.732c-.013-.068-.037-.194.127-.43.201-.29.716-.773 1.976-1.357 1.751-.81 4.95-1.816 10.828-2.775h-.001c13.308-2.169 13.91.158 13.93.257l.133.724c.885 4.828 2.162 7.948 11.543 7.37 2.486-.152 4.378-.678 5.745-1.577.58-.381 1.074-.822 1.465-1.342 1.799-2.392 1.1-5.571.538-8.125a47.63 47.63 0 0 1-.268-1.269c-1.026-5.353-12.726-9.526-28.81-8.216-2.063.168-4.194.42-6.39.778-16.342 2.665-25.837 8.922-29.003 13.47-1.158 1.664-1.625 3.3-1.35 4.73.078.407.147.835.22 1.273.318 1.948.7 4.254 1.975 5.978.243-.303.486-.605.76-.901.043-.047.1-.068.148-.107" fill="#231F20" mask="url(#b)"/>
    <path d="M33.239 61.325c.168-2.813 2.776-4.975 5.834-4.975s5.666 2.162 5.833 4.975c.178 2.984-2.43 5.54-5.833 5.54-3.405 0-6.013-2.556-5.834-5.54m5.834 11.38c2.867 0 5.398-.918 7.348-2.403a5.534 5.534 0 0 1-.716-1.171c-.436-.91-.507-1.834-.545-2.682a.877.877 0 0 1 1.648-.452l.064.121c.32.605.65 1.168 1.1 1.49.225.18.45.309.682.397 1.364-1.918 2.045-4.248 1.762-6.68-.618-5.323-5.67-9.23-11.343-9.23-5.674 0-10.726 3.907-11.344 9.23-.693 5.974 4.349 11.38 11.344 11.38" fill="#FFF" mask="url(#b)"/>
    <path d="M39.073 66.865c3.404 0 6.012-2.557 5.834-5.54-.168-2.812-2.777-4.976-5.834-4.976-3.058 0-5.666 2.164-5.835 4.976-.178 2.983 2.43 5.54 5.835 5.54" fill="#5F63B8" mask="url(#b)"/>
    <path d="M18.706 37.287l-6.44 2.153a1.29 1.29 0 0 0 .815 2.448l6.439-2.154a1.292 1.292 0 0 0 .812-1.632 1.284 1.284 0 0 0-1.626-.815M57.31 30.921c.035 0 .07-.001.106-.004l6.633-.543a1.288 1.288 0 0 0 1.176-1.39 1.292 1.292 0 0 0-1.386-1.181l-6.632.543a1.288 1.288 0 0 0-1.177 1.39 1.288 1.288 0 0 0 1.28 1.185M54.702 76.794H24.024c-.71 0-1.285.578-1.285 1.29 0 .712.576 1.29 1.285 1.29h30.678c.71 0 1.286-.578 1.286-1.29 0-.712-.576-1.29-1.286-1.29" fill="#231F20" mask="url(#b)"/>
    <path d="M63.502 76.238c-.194.014-.392.025-.591.036a9.58 9.58 0 0 0 .035-2.767l-.378-2.77c.168.01.341.016.505.027 7.075.413 10.75 1.95 11.168 2.752-.408.775-3.943 2.271-10.739 2.722zm-4.91 3.397c-1.8 2.069-4.55 3.256-7.544 3.256H27.413c-2.832 0-5.453-1.079-7.251-2.954-.066-.067-.137-.127-.198-.196-1.452-1.613-2.136-3.62-1.929-5.65l1.935-18.9c.286-2.794 2.258-5.176 4.993-6.432a10.51 10.51 0 0 1 4.385-.954h1.313c.02 0 .037-.004.057-.005h4.856c.019 0 .038.005.057.005h7.2c.02 0 .038-.004.057-.005h4.856c.02 0 .037.005.058.005h.667c4.773 0 8.793 3.076 9.35 7.154l2.579 18.897c.282 2.063-.36 4.115-1.806 5.779zM31.946 42.288h2.4v2.932H31.946v-2.932zm12.17 2.931h2.4v-2.93h-2.4v2.93zm-33.81 11.452a1.484 1.484 0 0 1 1.91-.864 1.489 1.489 0 0 1 .085 2.745c-.36.162-.763.176-1.133.035a1.475 1.475 0 0 1-.953-1.302l.001-.05c.001-.017-.002-.034-.002-.052.001-.172.029-.346.091-.512zm52.422 11.492l-.515-.026-1.846-13.528a9.815 9.815 0 0 0-1.405-3.851c-1.743-2.814-4.857-4.828-8.498-5.375-.452-.068-.91-.123-1.376-.143v-3.1c0-.297-.06-.58-.152-.843-.328-.925-1.17-1.589-2.164-1.589H43.86c-1.276 0-2.314 1.092-2.314 2.432v3.08h-4.628v-3.08c0-.34-.067-.662-.187-.956-.354-.867-1.174-1.476-2.127-1.476h-2.914c-1.276 0-2.314 1.092-2.314 2.432v3.085h-.027c-6.239 0-11.37 4.172-11.936 9.704l-.92 8.99a1.285 1.285 0 0 0-1.136-.857 5.437 5.437 0 0 1-3.73-1.803c.022 0 .044.006.067.006.567 0 1.134-.121 1.666-.363a4.038 4.038 0 0 0 2.123-2.269c.79-2.097-.269-4.448-2.358-5.24A4.052 4.052 0 0 0 7.9 55.76c-.023.06-.028.12-.048.18a6.148 6.148 0 0 1-.795-1.842c-.522-2.17.175-4.5 2.003-6.786.22-.275.448-.549.701-.822.006-.007.007-.014.012-.02a1.291 1.291 0 0 0-.08-1.804c-.474-.44-1.178-.434-1.67-.038-.047.038-.104.06-.147.106-.274.297-.518.599-.76.902-2.354 2.926-3.27 6.109-2.56 9.067.488 2.022 1.72 3.807 3.381 5.043.324 1.163.9 2.25 1.722 3.182a7.992 7.992 0 0 0 5.62 2.712 1.28 1.28 0 0 0 1.1-.635l-.902 8.822c-.283 2.767.633 5.481 2.579 7.644 2.286 2.543 5.698 4 9.357 4h23.635c3.738 0 7.193-1.509 9.48-4.14a10.454 10.454 0 0 0 1.58-2.43c.2-.01.442-.021.726-.037 3.721-.209 13.994-1.166 13.994-5.347 0-4.176-10.12-5.137-14.1-5.353z" fill="#231F20" mask="url(#b)"/>
  </g>
</svg>
