<svg viewBox="0 0 47 48" xmlns="http://www.w3.org/2000/svg">
  <g fill="none" fill-rule="evenodd">
    <path fill="#5F63B8" fill-rule="nonzero" d="M16.747 29.455h10.264v10.909H16.747zM14.046 4.364H24.31v2.182H14.046zM5.943 4.364h6.483V12H5.943z"/>
    <g fill="#231F20">
      <path d="M29.468 40.302h10.648V28.8H29.468v11.5zm-12.062 0h10.648V28.8H17.406v11.5zm0-12.927h22.71v-5.418h-22.71v5.418zm23.417-6.844H27.96V.713A.71.71 0 0 0 27.253 0H1.621a.71.71 0 0 0-.706.713v4.942a.71.71 0 0 0 .706.713.71.71 0 0 0 .707-.713v-4.23h24.218v19.106H16.7a.71.71 0 0 0-.707.713v6.13H2.328V8.983a.71.71 0 0 0-.707-.713.71.71 0 0 0-.706.713v19.106a.71.71 0 0 0 .706.713h14.371v12.214a.71.71 0 0 0 .707.712h24.124a.71.71 0 0 0 .707-.712V21.244a.71.71 0 0 0-.707-.713z"/>
      <path d="M5.39 18.155h6.786a.71.71 0 0 0 .706-.713.71.71 0 0 0-.706-.713H5.39a.71.71 0 0 0-.707.713.71.71 0 0 0 .707.713M5.39 21.957h2.262a.71.71 0 0 0 .707-.713.71.71 0 0 0-.707-.713H5.391a.71.71 0 0 0-.707.713.71.71 0 0 0 .707.713M12.176 20.531h-1.508a.71.71 0 0 0-.707.713.71.71 0 0 0 .707.713h1.508a.71.71 0 0 0 .706-.713.71.71 0 0 0-.706-.713M5.39 25.759h6.786a.71.71 0 0 0 .706-.713.71.71 0 0 0-.706-.713H5.39a.71.71 0 0 0-.707.713.71.71 0 0 0 .707.713M16.699 16.73a.71.71 0 0 0-.707.712.71.71 0 0 0 .707.713h2.262a.71.71 0 0 0 .706-.713.71.71 0 0 0-.706-.713h-2.262M21.976 16.73a.71.71 0 0 0-.707.712.71.71 0 0 0 .707.713h.754a.71.71 0 0 0 .707-.713.71.71 0 0 0-.707-.713h-.754M15.144 12.927h7.633V9.03h-7.633v3.897zm-9.046 0h7.633v-8.46H6.098v8.46zm9.046-5.323h7.633V4.467h-7.633v3.137zm9.047 6.036V3.755a.71.71 0 0 0-.707-.713H5.39a.71.71 0 0 0-.707.713v9.885a.71.71 0 0 0 .707.713h18.093a.71.71 0 0 0 .707-.713zM46.76 17.068a.702.702 0 0 0-.999 0l-1.005 1.014a15.827 15.827 0 0 0-4.392-8.541 15.599 15.599 0 0 0-8.468-4.43L32.9 4.096a.717.717 0 0 0 0-1.009.702.702 0 0 0-1 0L29.77 5.24a.717.717 0 0 0 0 1.008l2.132 2.151a.71.71 0 0 0 1.037-.04.724.724 0 0 0-.037-.968l-.78-.787a14.203 14.203 0 0 1 7.243 3.946 14.4 14.4 0 0 1 3.912 7.306l-.78-.787a.703.703 0 0 0-1 0 .717.717 0 0 0 0 1.008l2.133 2.151a.71.71 0 0 0 1 0l2.132-2.15a.717.717 0 0 0 0-1.009M15.066 42.454a.703.703 0 0 0-1 0 .717.717 0 0 0 0 1.008l.78.787a14.202 14.202 0 0 1-7.242-3.945 14.4 14.4 0 0 1-3.912-7.306l.78.786a.71.71 0 0 0 1.037-.04.725.725 0 0 0-.038-.968L3.34 30.625a.703.703 0 0 0-1 0l-2.132 2.15a.717.717 0 0 0 0 1.009.702.702 0 0 0 1 0l1.005-1.014a15.828 15.828 0 0 0 4.392 8.542 15.6 15.6 0 0 0 8.468 4.43l-1.005 1.014a.724.724 0 0 0-.038.967.71.71 0 0 0 1.037.04l2.133-2.15a.717.717 0 0 0 0-1.008l-2.133-2.15"/>
    </g>
  </g>
</svg>
