<svg viewBox="0 0 41 41" xmlns="http://www.w3.org/2000/svg">
  <g fill="none" fill-rule="evenodd">
    <path d="M2.099.043h33.928c1.125 0 2.036 1.22 2.036 2.725v2.725h-38V2.768C.063 1.263.975.043 2.1.043z" fill="#5F63B8"/>
    <path d="M3.43 2.043h33.671c1.116 0 2.02.902 2.02 2.015v2.015H1.412V4.058c0-1.113.904-2.015 2.02-2.015zm33.671 37.614H3.431a2.018 2.018 0 0 1-2.02-2.015V7.416h37.71v30.226a2.018 2.018 0 0 1-2.02 2.015zM3.431 41H37.1a3.367 3.367 0 0 0 3.367-3.358V4.058A3.367 3.367 0 0 0 37.101.7H3.431A3.367 3.367 0 0 0 .062 4.058v33.584A3.367 3.367 0 0 0 3.43 41z" fill="#231F20"/>
    <path d="M4.104 4.73h.673a.673.673 0 1 0 0-1.344h-.673a.673.673 0 1 0 0 1.344M7.215 4.676a.637.637 0 0 0 .512 0 .778.778 0 0 0 .222-.141.68.68 0 0 0 0-.954.778.778 0 0 0-.222-.141.618.618 0 0 0-.512 0 .778.778 0 0 0-.222.141.68.68 0 0 0 0 .954c.065.059.14.107.222.14M9.686 4.535c.266.26.691.26.957 0a.775.775 0 0 0 .141-.222.672.672 0 0 0-.361-.88.675.675 0 0 0-.737.148.776.776 0 0 0-.141.222.632.632 0 0 0 0 .51.775.775 0 0 0 .141.222M13.532 4.73h22.896a.673.673 0 1 0 0-1.344H13.532a.673.673 0 1 0 0 1.344M27.32 22.865a23.88 23.88 0 0 0-.706-5.306 13.661 13.661 0 0 0 2.927-1.79 12.006 12.006 0 0 1 2.812 7.096h-5.034zm-1.088 7.955a12.33 12.33 0 0 1 2.38 1.46 12.129 12.129 0 0 1-4.673 2.774 12.333 12.333 0 0 0 2.293-4.232v-.002zm-11.933 0a12.332 12.332 0 0 0 2.293 4.232 12.128 12.128 0 0 1-4.672-2.774 12.334 12.334 0 0 1 2.38-1.456v-.002zm0-14.571a12.335 12.335 0 0 1-2.379-1.46 12.128 12.128 0 0 1 4.672-2.774 12.334 12.334 0 0 0-2.293 4.236v-.002zm9.64-4.232a12.129 12.129 0 0 1 4.673 2.774 12.334 12.334 0 0 1-2.38 1.46 12.334 12.334 0 0 0-2.293-4.234zm-3 5.501V11.54c1.65.432 3.11 2.411 4.03 5.213-1.299.447-2.656.705-4.03.765zm0 5.347v-4.003a15.61 15.61 0 0 0 4.402-.806c.382 1.576.594 3.188.632 4.809h-5.034zm0 5.346v-4.003h5.034a22.689 22.689 0 0 1-.632 4.807 15.61 15.61 0 0 0-4.402-.804zm0 1.344c1.374.06 2.731.318 4.03.765-.92 2.803-2.38 4.782-4.03 5.213v-5.978zm-1.347 0v5.978c-1.65-.432-3.11-2.411-4.03-5.213 1.3-.447 2.657-.705 4.03-.765zm0-5.347v4.003a15.61 15.61 0 0 0-4.401.806 22.686 22.686 0 0 1-.632-4.809h5.033zm0-5.346v4.003H14.56c.038-1.62.25-3.232.632-4.807 1.42.478 2.903.749 4.401.804zm0-1.344a14.335 14.335 0 0 1-4.03-.765c.92-2.803 2.38-4.782 4.03-5.213v5.978zm-8.601-1.75c.896.718 1.88 1.319 2.926 1.79a23.89 23.89 0 0 0-.705 5.307H8.18a12.006 12.006 0 0 1 2.812-7.096zm-2.812 8.44h5.033c.036 1.79.272 3.57.705 5.306a13.664 13.664 0 0 0-2.926 1.79 12.007 12.007 0 0 1-2.812-7.096zm21.362 7.096a13.66 13.66 0 0 0-2.927-1.79c.433-1.736.67-3.516.705-5.306h5.034a12.005 12.005 0 0 1-2.812 7.096zm.649-16.818a.657.657 0 0 0-.058-.098.595.595 0 0 0-.1-.075 13.424 13.424 0 0 0-9.765-4.209c-3.697 0-7.23 1.523-9.764 4.209a.599.599 0 0 0-.1.075.67.67 0 0 0-.059.098 13.327 13.327 0 0 0 0 18.1.662.662 0 0 0 .058.099c.03.028.064.053.1.074a13.425 13.425 0 0 0 9.77 4.211 13.424 13.424 0 0 0 9.768-4.217.626.626 0 0 0 .095-.067.658.658 0 0 0 .058-.098 13.327 13.327 0 0 0 0-18.1l-.003-.002z" fill="#231F20"/>
  </g>
</svg>
