<svg viewBox="0 0 41 41" xmlns="http://www.w3.org/2000/svg">
  <g fill="none" fill-rule="evenodd">
    <path d="M.615 41h40.152V0H.615v41zm1.49-14.91h37.177V1.494H2.104V26.09zm0 13.417h37.177V27.584H2.104v11.923z" fill="#231F20"/>
    <path fill="#5F63B8" d="M17.715 9.559l6.053 3.857-6.053 3.863z"/>
    <path d="M16.616 19.291a.78.78 0 0 0 .36.092c.137 0 .275-.04.398-.117l8.177-5.22a.744.744 0 0 0 0-1.255l-8.177-5.22a.745.745 0 0 0-.758-.025.75.75 0 0 0-.385.655v10.435a.75.75 0 0 0 .385.655zm1.1-9.732l6.052 3.857-6.053 3.863v-7.72zM35.565 32.8h-17.85V31.31a.741.741 0 1 0-1.484 0v1.488h-2.973a.744.744 0 0 0-.745.746c0 .411.33.747.745.747h2.973v1.488a.741.741 0 1 0 1.484 0v-1.488h17.85c.41 0 .74-.336.74-.747 0-.41-.33-.746-.74-.746zM5.822 30.565a.741.741 0 0 0-.744.746v4.469a.741.741 0 1 0 1.484 0v-4.469a.74.74 0 0 0-.74-.746zM8.795 30.565c-.41 0-.744.33-.744.746v4.469a.744.744 0 1 0 1.489 0v-4.469a.744.744 0 0 0-.745-.746z" fill="#231F20"/>
  </g>
</svg>
